<?xml version="1.0" encoding="UTF-8"?>
<svg id="_レイヤー_1" data-name="レイヤー 1" xmlns="http://www.w3.org/2000/svg" viewBox="0 0 2221.27 800">
  <defs>
    <style>
      .cls-1 {
        stroke: #fff;
      }

      .cls-1, .cls-2 {
        stroke-linecap: round;
        stroke-linejoin: round;
        stroke-width: 12px;
      }

      .cls-1, .cls-3 {
        fill: #fff;
      }

      .cls-2 {
        fill: #000;
        stroke: #000;
      }

      .cls-3, .cls-4 {
        stroke-width: 0px;
      }

      .cls-4 {
        fill: #fff800;
      }
    </style>
  </defs>
  <rect class="cls-3" width="800" height="800"/>
  <g>
    <polygon class="cls-4" points="239.5 162.93 239.5 633.93 578.5 633.93 239.5 162.93"/>
    <path class="cls-2" d="M592.9,637.07H229.1V163.79h184.28c39.44,0,71.62,7.03,96.56,21.08,24.48,13.6,43.52,32.19,57.12,55.76,13.6,23.58,20.4,49.64,20.4,78.2,0,35.36-10.88,66.98-32.64,94.86-21.76,27.88-49.19,46.36-82.28,55.42l120.36,167.96ZM254.26,205.27v244.12h174.76l-174.76-244.12ZM254.26,611.91h291.04l-99.28-138.04-21.08.68h-170.68v137.36ZM271.94,188.95l184.96,258.4c30.37-6.34,55.53-21.53,75.48-45.56,19.94-24.02,29.92-51.68,29.92-82.96,0-24.93-6.12-47.6-18.36-68-12.24-20.4-29.47-36.04-51.68-46.92-19.95-9.97-46.02-14.96-78.2-14.96h-142.12Z"/>
  </g>
  <g>
    <polygon class="cls-4" points="1286.48 163.79 1286.48 634.79 1625.48 634.79 1286.48 163.79"/>
    <path class="cls-2" d="M1639.88,637.93h-363.8V164.65h184.28c39.44,0,71.62,7.03,96.56,21.08,24.48,13.6,43.52,32.19,57.12,55.76,13.6,23.58,20.4,49.64,20.4,78.2,0,35.36-10.88,66.98-32.64,94.86-21.76,27.88-49.19,46.36-82.28,55.42l120.36,167.96ZM1301.24,206.13v244.12h174.76l-174.76-244.12ZM1301.24,612.77h291.04l-99.28-138.04-21.08.68h-170.68v137.36ZM1318.92,189.81l184.96,258.4c30.37-6.34,55.53-21.53,75.48-45.56,19.94-24.02,29.92-51.68,29.92-82.96,0-24.93-6.12-47.6-18.36-68-12.24-20.4-29.47-36.04-51.68-46.92-19.95-9.97-46.02-14.96-78.2-14.96h-142.12Z"/>
  </g>
  <g>
    <polygon class="cls-4" points="1861.87 141.91 1861.87 612.91 2200.87 612.91 1861.87 141.91"/>
    <path class="cls-1" d="M2215.27,616.05h-363.8V142.77h184.28c39.44,0,71.62,7.03,96.56,21.08,24.48,13.6,43.52,32.19,57.12,55.76,13.6,23.58,20.4,49.64,20.4,78.2,0,35.36-10.88,66.98-32.64,94.86-21.76,27.88-49.19,46.36-82.28,55.42l120.36,167.96ZM1876.63,184.25v244.12h174.76l-174.76-244.12ZM1876.63,590.89h291.04l-99.28-138.04-21.08.68h-170.68v137.36ZM1894.31,167.93l184.96,258.4c30.37-6.34,55.53-21.53,75.48-45.56,19.94-24.02,29.92-51.68,29.92-82.96,0-24.93-6.12-47.6-18.36-68-12.24-20.4-29.47-36.04-51.68-46.92-19.95-9.97-46.02-14.96-78.2-14.96h-142.12Z"/>
  </g>
</svg>