<?xml version="1.0" encoding="UTF-8"?>
<svg id="_レイヤー_1" data-name="レイヤー 1" xmlns="http://www.w3.org/2000/svg" viewBox="0 0 375.8 485.28">
  <defs>
    <style>
      .cls-1 {
        fill: #000;
        stroke: #000;
        stroke-linecap: round;
        stroke-linejoin: round;
        stroke-width: 12px;
      }

      .cls-2 {
        fill: #fff800;
        stroke-width: 0px;
      }
    </style>
  </defs>
  <polygon class="cls-2" points="16.4 5.14 16.4 476.14 355.4 476.14 16.4 5.14"/>
  <path class="cls-1" d="M369.8,479.28H6V6h184.28c39.44,0,71.62,7.03,96.56,21.08,24.48,13.6,43.52,32.19,57.12,55.76,13.6,23.58,20.4,49.64,20.4,78.2,0,35.36-10.88,66.98-32.64,94.86-21.76,27.88-49.19,46.36-82.28,55.42l120.36,167.96ZM31.16,47.48v244.12h174.76L31.16,47.48ZM31.16,454.12h291.04l-99.28-138.04-21.08.68H31.16v137.36ZM48.84,31.16l184.96,258.4c30.37-6.34,55.53-21.53,75.48-45.56,19.94-24.02,29.92-51.68,29.92-82.96,0-24.93-6.12-47.6-18.36-68-12.24-20.4-29.47-36.04-51.68-46.92-19.95-9.97-46.02-14.96-78.2-14.96H48.84Z"/>
</svg>