<?xml version="1.0" encoding="UTF-8"?>
<svg id="_レイヤー_1" data-name="レイヤー 1" xmlns="http://www.w3.org/2000/svg" version="1.1" viewBox="0 0 250 250">
  <defs>
    <style>
      .cls-1 {
        fill: #fcf6a9;
      }

      .cls-1, .cls-2, .cls-3, .cls-4 {
        stroke-width: 0px;
      }

      .cls-2 {
        fill: #222;
      }

      .cls-3 {
        fill: #eee000;
      }

      .cls-4 {
        fill: #fff;
      }
    </style>
  </defs>
  <g id="freepik--background-simple--inject-18">
    <path class="cls-1" d="M218.7,114.9c-2.1,17.7-10.2,38.3-26.3,47.7-24.4,14.3-22.3,36.2-69.9,45.8-6.9,1.4-14,2.1-21.1,2-3.5,0-6.9-.3-10.4-.8-30.2-4.4-50.6-25.4-58-50.8-9.8-33.4,9.8-55.2,22.8-68.4,13-13.2,22.5-54.2,69.2-63.9,7.1-1.5,14.4-2.2,21.7-2.1,16.6.4,34.7,5.9,47.3,17.2.9.8,1.9,1.7,2.8,2.7,17.4,17.9,24.8,46.5,22,70.6Z"/>
  </g>
  <g id="freepik--Table--inject-18">
    <path class="cls-2" d="M222.1,134h-6.4c-.1,0-.2,0-.2-.2s0-.2.2-.2h6.4c.1,0,.2,0,.2.2,0,.1,0,.2-.2.2Z"/>
    <path class="cls-2" d="M212.8,134H29c-.1,0-.2,0-.2-.2s0-.2.2-.2h183.8c.1,0,.2,0,.2.2,0,.1,0,.2-.2.2Z"/>
  </g>
  <g id="freepik--Gears--inject-18">
    <path class="cls-2" d="M193,97.3h-3.7l-.5-3.2c-1.5-.3-3-.9-4.2-1.8l-2.6,1.9-2.6-2.6,2-2.6c-.9-1.3-1.4-2.7-1.7-4.2l-3.2-.5v-3.7l3.2-.5c.3-1.5.9-3,1.8-4.2l-1.9-2.6,2.6-2.6,2.6,2c1.3-.9,2.7-1.4,4.2-1.7l.5-3.2h3.7l.5,3.2c1.5.3,3,.9,4.2,1.8l2.6-1.9,2.6,2.6-2,2.6c.9,1.3,1.5,2.7,1.7,4.2l3.2.5v3.7l-3.2.5c-.3,1.5-.9,3-1.8,4.2l1.9,2.6-2.6,2.6-2.6-2c-1.3.9-2.7,1.4-4.2,1.7l-.5,3.2ZM189.7,96.8h3l.4-3.1h.2c1.6-.3,3-.9,4.3-1.8h.1c0,0,2.5,1.8,2.5,1.8l2.1-2.1-1.9-2.5h0c.9-1.4,1.5-2.9,1.8-4.5h0c0-.1,3.2-.6,3.2-.6v-3l-3.1-.4v-.2c-.3-1.6-.9-3-1.8-4.4h0c0-.1,1.9-2.7,1.9-2.7l-2.1-2.1-2.5,1.9h-.1c-1.3-1-2.8-1.6-4.3-1.9h-.1s-.5-3.2-.5-3.2h-3l-.4,3.1h-.1c-1.6.3-3,.9-4.4,1.8h-.1c0,0-2.5-1.8-2.5-1.8l-2.1,2.1,1.9,2.5h0c-.9,1.4-1.5,2.9-1.8,4.5h0c0,.1-3.2.6-3.2.6v3l3.1.4h0c.3,1.7.9,3.2,1.8,4.5h0c0,.1-1.9,2.7-1.9,2.7l2.1,2.1,2.5-1.9h.1c1.3,1,2.8,1.6,4.3,1.9h.1s.4,3.2.4,3.2ZM191.2,90.8c-4.6,0-8.2-3.7-8.2-8.2s3.7-8.2,8.2-8.2c4.6,0,8.2,3.7,8.2,8.2,0,4.6-3.7,8.2-8.2,8.2ZM191.2,74.7c-4.3,0-7.8,3.5-7.8,7.8s3.5,7.8,7.8,7.8c4.3,0,7.8-3.5,7.8-7.8h0c0-4.3-3.5-7.8-7.8-7.8h0Z"/>
    <path class="cls-2" d="M205.9,113.4h-2.7l-.3-2.3c-1.1-.2-2.1-.6-3-1.2l-1.9,1.4-1.9-1.9,1.4-1.9c-.6-.9-1-1.9-1.2-3l-2.3-.3v-2.8l2.3-.3c.2-1.1.6-2.1,1.2-3l-1.4-1.9,1.9-1.9,1.9,1.4c.9-.6,1.9-1,3-1.2l.3-2.3h2.7l.3,2.3c1.1.2,2.1.6,3,1.2l1.9-1.4,1.9,1.9-1.4,1.9c.6.9,1,1.9,1.2,3l2.3.3v2.8l-2.3.3c-.2,1.1-.6,2.1-1.2,3l1.4,1.9-1.9,1.9-1.9-1.4c-.9.6-1.9,1-3,1.2l-.4,2.3ZM203.5,113h2l.3-2.2h.2c1.1-.2,2.2-.7,3.1-1.3h.1c0,0,1.8,1.3,1.8,1.3l1.4-1.4-1.4-1.8h0c.6-1.1,1.1-2.1,1.3-3.2h0c0-.1,2.2-.5,2.2-.5v-2l-2.2-.3h0c-.2-1.3-.6-2.3-1.3-3.2h0c0-.1,1.4-1.9,1.4-1.9l-1.4-1.4-1.8,1.4h-.1c-.9-.7-2-1.2-3.1-1.4h-.2s-.3-2.3-.3-2.3h-2l-.3,2.2h-.2c-1.1.2-2.2.7-3.1,1.3h-.1c0,0-1.8-1.2-1.8-1.2l-1.4,1.4,1.4,1.8h0c-.6,1.1-1.1,2.1-1.3,3.2h0c0,.1-2.2.5-2.2.5v2l2.2.3h0c.2,1.3.6,2.3,1.3,3.2h0c0,.1-1.4,1.9-1.4,1.9l1.4,1.4,1.8-1.4h.1c.9.7,2,1.2,3.1,1.4h.2s.3,2.3.3,2.3ZM204.6,108.7c-3.3,0-6-2.7-6-6,0-3.3,2.7-6,6-6s6,2.7,6,6c0,3.3-2.7,5.9-6,5.9h0ZM204.6,97.2c-3.1,0-5.5,2.5-5.5,5.5,0,3.1,2.5,5.5,5.5,5.5s5.5-2.5,5.5-5.5c0-3.1-2.5-5.5-5.5-5.5h0Z"/>
    <path class="cls-2" d="M62.5,117.4h-3.4l-.4-2.9c-1.4-.3-2.7-.8-3.8-1.6l-2.4,1.8-2.4-2.4,1.8-2.4c-.8-1.2-1.3-2.5-1.6-3.9l-2.9-.4v-3.4l2.9-.4c.3-1.4.8-2.7,1.6-3.8l-1.8-2.4,2.4-2.4,2.4,1.8c1.2-.8,2.5-1.3,3.9-1.6l.4-2.9h3.4l.4,2.9c1.4.3,2.7.8,3.8,1.6l2.4-1.8,2.4,2.4-1.8,2.4c.8,1.2,1.3,2.5,1.6,3.9l2.9.4v3.4l-3,.4c-.3,1.4-.8,2.7-1.6,3.8l1.8,2.4-2.4,2.4-2.4-1.8c-1.2.8-2.5,1.3-3.9,1.6l-.4,2.9ZM59.5,116.9h2.7l.4-2.9h.2c1.4-.3,2.8-.8,4-1.7h.1c0,0,2.3,1.7,2.3,1.7l1.9-1.9-1.7-2.3h0c.8-1.3,1.4-2.7,1.7-4.1h0c0-.1,2.9-.6,2.9-.6v-2.7l-2.9-.4v-.2c-.3-1.4-.8-2.8-1.7-4h0c0-.1,1.7-2.4,1.7-2.4l-1.9-1.9-2.3,1.7h-.1c-1.2-.9-2.5-1.5-4-1.7h-.1s-.4-2.9-.4-2.9h-2.7l-.4,2.9h-.1c-1.4.3-2.8.8-4,1.7h-.1c0,0-2.3-1.7-2.3-1.7l-1.9,1.9,1.7,2.3h0c-.8,1.3-1.4,2.7-1.7,4.1h0c0,.1-2.9.6-2.9.6v2.7l2.9.4h0c.3,1.6.8,2.9,1.6,4.1h0c0,.1-1.7,2.4-1.7,2.4l1.9,1.9,2.3-1.7h.1c1.2.9,2.5,1.5,4,1.7h.1s.4,2.9.4,2.9ZM60.8,111.4c-4.2,0-7.5-3.4-7.5-7.5,0-4.2,3.4-7.5,7.5-7.5s7.5,3.4,7.5,7.5h0c0,4.2-3.4,7.5-7.5,7.5h0ZM60.8,96.8c-3.9,0-7.1,3.2-7.1,7.1s3.2,7.1,7.1,7.1,7.1-3.2,7.1-7.1c0,0,0,0,0,0,0-3.9-3.2-7.1-7.1-7.1h0Z"/>
    <path class="cls-2" d="M49.2,95.1h-2.2l-.3-1.8c-.8-.2-1.6-.5-2.3-.9l-1.5,1.1-1.6-1.6,1.1-1.5c-.5-.7-.8-1.5-.9-2.3l-1.8-.3v-2.2l1.8-.3c.2-.8.5-1.6.9-2.3l-1.1-1.4,1.6-1.6,1.5,1.1c.7-.5,1.5-.8,2.3-.9l.3-1.8h2.2l.3,1.8c.8.2,1.6.5,2.3.9l1.4-1.1,1.6,1.6-1.1,1.5c.5.7.8,1.5.9,2.3l1.8.3v2.2l-1.8.3c-.2.8-.5,1.6-.9,2.3l1.1,1.5-1.5,1.6-1.5-1.1c-.7.5-1.5.8-2.3.9l-.3,1.8ZM47.4,94.7h1.5l.2-1.7h.2c.9-.2,1.7-.5,2.4-1h.1c0,0,1.4,1,1.4,1l1-1-1-1.4h0c.5-.8.8-1.7,1-2.5h0c0-.1,1.7-.4,1.7-.4v-1.5l-1.7-.2h0c-.2-1-.5-1.8-1-2.5h0c0-.1,1.1-1.5,1.1-1.5l-1-1-1.4,1.1h-.1c-.7-.6-1.5-.9-2.4-1.1h-.1s-.2-1.8-.2-1.8h-1.5l-.2,1.7h-.2c-.9.2-1.7.5-2.4,1h-.1c0,0-1.4-1-1.4-1l-1,1,1,1.4h0c-.5.8-.8,1.7-1,2.5h0c0,.1-1.7.4-1.7.4v1.5l1.7.2h0c.2,1,.5,1.8,1,2.5h0c0,.1-1.1,1.5-1.1,1.5l1,1,1.4-1.1h.1c.7.6,1.5.9,2.4,1.1h.1s.3,1.8.3,1.8ZM48.2,91.5c-2.6,0-4.7-2.1-4.7-4.7s2.1-4.7,4.7-4.7c2.6,0,4.7,2.1,4.7,4.7,0,0,0,0,0,0,0,2.6-2.1,4.7-4.7,4.7ZM48.2,82.6c-2.4,0-4.3,1.9-4.3,4.2s1.9,4.3,4.2,4.3c2.4,0,4.3-1.9,4.3-4.2,0,0,0,0,0,0,0-2.3-1.9-4.2-4.2-4.2Z"/>
    <path class="cls-2" d="M123.6,64.9h-2.9l-.4-2.5c-1.1-.2-2.2-.7-3.2-1.3l-2,1.5-2.1-2.1,1.5-2c-.6-1-1.1-2.1-1.3-3.2l-2.5-.4v-2.9l2.5-.4c.2-1.1.7-2.2,1.3-3.2l-1.5-2,2.1-2,2,1.5c1-.6,2.1-1.1,3.2-1.3l.4-2.5h2.9l.4,2.5c1.1.2,2.2.7,3.2,1.3l2-1.5,2.1,2-1.5,2c.6,1,1.1,2.1,1.3,3.2l2.5.4v2.9l-2.5.4c-.2,1.1-.7,2.2-1.3,3.2l1.5,2-2.1,2-2-1.5c-1,.6-2.1,1.1-3.2,1.3l-.4,2.5ZM121.1,64.4h2.2l.3-2.4h.2c1.2-.2,2.3-.7,3.3-1.4h.1c0,0,1.9,1.4,1.9,1.4l1.6-1.5-1.4-1.9h0c.7-1.1,1.2-2.2,1.4-3.4h0c0-.1,2.4-.5,2.4-.5v-2.2l-2.4-.4h0c-.2-1.3-.7-2.5-1.4-3.5h0c0-.1,1.4-2,1.4-2l-1.5-1.5-1.9,1.5h-.1c-1-.8-2.1-1.2-3.3-1.5h-.2s-.3-2.4-.3-2.4h-2.2l-.3,2.4h-.2c-1.2.2-2.3.7-3.3,1.4h-.1c0,0-1.9-1.4-1.9-1.4l-1.5,1.5,1.4,1.9h0c-.7,1.1-1.2,2.2-1.4,3.4h0c0,.1-2.4.5-2.4.5v2.2l2.4.3h0c.2,1.3.7,2.5,1.4,3.5h0c0,.1-1.5,2.1-1.5,2.1l1.5,1.5,1.9-1.5h.1c1,.8,2.1,1.2,3.3,1.5h.2s.3,2.4.3,2.4ZM122.2,59.9c-3.5,0-6.3-2.8-6.3-6.3s2.8-6.3,6.3-6.3,6.3,2.8,6.3,6.3h0c0,3.5-2.8,6.3-6.3,6.3ZM122.2,47.6c-3.3,0-5.9,2.7-5.9,5.9s2.7,5.9,5.9,5.9,5.9-2.7,5.9-5.9c0-3.3-2.6-5.9-5.9-5.9h0Z"/>
  </g>
  <g id="freepik--Device--inject-18">
    <path class="cls-2" d="M68,52.1h116.4c1.9,0,3.4,1.5,3.4,3.4v81h-123.1V55.5c0-1.9,1.5-3.4,3.3-3.4Z"/>
    <path class="cls-2" d="M187.8,136.7h-123.1c-.1,0-.2,0-.2-.2V55.5c0-2,1.6-3.6,3.6-3.6h116.4c2,0,3.6,1.6,3.6,3.6v81c0,.1,0,.2-.2.2ZM64.9,136.3h122.7V55.5c0-1.7-1.4-3.2-3.2-3.2h-116.4c-1.7,0-3.2,1.4-3.2,3.2,0,0,0,0,0,0v80.8Z"/>
    <polygon class="cls-4" points="206.3 173.8 46.2 173.8 64.6 136.5 187.8 136.5 206.3 173.8"/>
    <path class="cls-2" d="M206.3,174H46.2c0,0-.1,0-.2-.1,0,0,0-.1,0-.2l18.5-37.3c0,0,.1-.1.2-.1h123.2c0,0,.2,0,.2.1l18.5,37.3c0,0,0,.1,0,.2,0,0-.1.1-.2.1ZM46.5,173.6h159.4l-18.3-36.9h-122.9l-18.3,36.9Z"/>
    <rect class="cls-3" x="72.1" y="58.8" width="108.2" height="71"/>
    <path class="cls-2" d="M180.3,130h-108.2c-.1,0-.2,0-.2-.2V58.8c0-.1,0-.2.2-.2h108.2c.1,0,.2,0,.2.2v71c0,.1,0,.2-.2.2ZM72.3,129.6h107.8V59h-107.8v70.6Z"/>
    <polygon class="cls-2" points="121.1 148.3 121.3 143.8 114.8 143.8 114.4 148.3 121.1 148.3"/>
    <path class="cls-4" d="M121.1,148.5h-6.7c0,0-.1,0-.2,0,0,0,0-.1,0-.2l.4-4.5c0-.1.1-.2.2-.2h6.5c0,0,.1,0,.2,0,0,0,0,0,0,.2l-.2,4.5c0,.1,0,.2-.2.2ZM114.6,148.1h6.3l.2-4.1h-6.1l-.4,4.1Z"/>
    <polygon class="cls-2" points="134.5 148.3 134.3 143.8 127.8 143.8 127.8 148.3 134.5 148.3"/>
    <path class="cls-4" d="M134.5,148.5h-6.7c-.1,0-.2,0-.2-.2v-4.5c0-.1,0-.2.2-.2,0,0,0,0,0,0h6.5c.1,0,.2,0,.2.2l.2,4.5c0,0,0,.1,0,.2,0,0,0,0-.2,0ZM128,148.1h6.3l-.2-4.1h-6.1v4.1Z"/>
    <polygon class="cls-2" points="169.6 153.2 176.5 153.2 174.9 148.3 168.2 148.3 169.6 153.2"/>
    <path class="cls-4" d="M176.5,153.4h-7c0,0-.2,0-.2-.2l-1.4-4.9c0,0,0-.1,0-.2,0,0,.1,0,.2,0h6.7c0,0,.2,0,.2.1l1.6,4.9c0,0,0,.1,0,.2,0,0-.1,0-.2,0ZM169.7,153h6.5l-1.5-4.4h-6.3l1.3,4.4Z"/>
    <polygon class="cls-2" points="114.4 148.3 114.8 143.8 108.3 143.8 107.6 148.3 114.4 148.3"/>
    <path class="cls-4" d="M114.4,148.5h-6.7c0,0-.1,0-.2,0,0,0,0-.1,0-.2l.6-4.5c0-.1.1-.2.2-.2h6.5c0,0,.1,0,.2,0,0,0,0,.1,0,.2l-.4,4.5c0,.1-.1.2-.2.2ZM107.9,148.1h6.3l.4-4.1h-6.1l-.6,4.1Z"/>
    <polygon class="cls-2" points="100.9 148.3 101.8 143.8 95.3 143.8 94.2 148.3 100.9 148.3"/>
    <path class="cls-4" d="M100.9,148.5h-6.7c0,0-.1,0-.2,0,0,0,0-.1,0-.2l1.1-4.5c0,0,.1-.2.2-.2h6.5c0,0,.1,0,.2,0,0,0,0,.1,0,.2l-.9,4.5c0,.1-.1.2-.2.2ZM94.5,148.1h6.3l.8-4.1h-6.1l-1,4.1Z"/>
    <polygon class="cls-2" points="161.4 148.3 160.3 143.8 153.8 143.8 154.7 148.3 161.4 148.3"/>
    <path class="cls-4" d="M161.4,148.5h-6.7c-.1,0-.2,0-.2-.2l-.9-4.5c0-.1,0-.2.2-.2,0,0,0,0,0,0h6.5c0,0,.2,0,.2.2l1.1,4.5c0,0,0,.1,0,.2,0,0-.1,0-.2,0ZM154.9,148.1h6.3l-1-4.1h-6.1l.8,4.1Z"/>
    <polygon class="cls-2" points="168.2 148.3 166.8 143.8 160.3 143.8 161.4 148.3 168.2 148.3"/>
    <path class="cls-4" d="M168.2,148.5h-6.7c0,0-.2,0-.2-.2l-1.1-4.5c0,0,0-.1,0-.2,0,0,.1,0,.2,0h6.5c0,0,.2,0,.2.2l1.3,4.5c0,0,0,.1,0,.2,0,0,0,0-.2,0ZM161.6,148.1h6.3l-1.2-4.1h-6.1l1,4.1Z"/>
    <polygon class="cls-2" points="94.2 148.3 95.3 143.8 88.8 143.8 87.5 148.3 94.2 148.3"/>
    <path class="cls-4" d="M94.2,148.5h-6.7c0,0-.1,0-.2,0,0,0,0-.1,0-.2l1.3-4.5c0,0,.1-.2.2-.2h6.5c0,0,.1,0,.2,0,0,0,0,.1,0,.2l-1.1,4.5c0,0-.1.2-.2.2ZM87.7,148.1h6.3l1-4.1h-6.1l-1.2,4.1Z"/>
    <polygon class="cls-2" points="141.3 148.3 140.8 143.8 134.3 143.8 134.5 148.3 141.3 148.3"/>
    <path class="cls-4" d="M141.3,148.5h-6.7c-.1,0-.2,0-.2-.2l-.2-4.5c0,0,0-.1,0-.2,0,0,0,0,.2,0h6.5c.1,0,.2,0,.2.2l.4,4.5c0,.1,0,.2-.2.2,0,0,0,0,0,0ZM134.7,148.1h6.3l-.4-4.1h-6.1l.2,4.1Z"/>
    <polygon class="cls-2" points="174.9 148.3 173.4 143.8 166.8 143.8 168.2 148.3 174.9 148.3"/>
    <path class="cls-4" d="M174.9,148.5h-6.7c0,0-.2,0-.2-.2l-1.3-4.5c0-.1,0-.2.2-.3,0,0,0,0,0,0h6.5c0,0,.2,0,.2.1l1.5,4.5c0,0,0,.1,0,.2,0,0-.1,0-.2,0ZM168.3,148.1h6.3l-1.4-4.1h-6.1l1.2,4.1Z"/>
    <polygon class="cls-2" points="154.7 148.3 153.8 143.8 147.3 143.8 148 148.3 154.7 148.3"/>
    <path class="cls-4" d="M154.7,148.5h-6.7c-.1,0-.2,0-.2-.2l-.7-4.5c0-.1,0-.2.2-.2,0,0,0,0,0,0h6.5c.1,0,.2,0,.2.2l.9,4.5c0,.1,0,.2-.2.3,0,0,0,0,0,0h0ZM148.2,148.1h6.3l-.8-4.1h-6.1l.6,4.1Z"/>
    <polygon class="cls-2" points="148 148.3 147.3 143.8 140.8 143.8 141.3 148.3 148 148.3"/>
    <path class="cls-4" d="M148,148.5h-6.7c-.1,0-.2,0-.2-.2l-.4-4.5c0,0,0-.1,0-.2,0,0,0,0,.2,0h6.5c.1,0,.2,0,.2.2l.7,4.5c0,0,0,.1,0,.2,0,0-.1,0-.2,0ZM141.4,148.1h6.3l-.6-4.1h-6.1l.4,4.1Z"/>
    <polygon class="cls-2" points="127.8 148.3 127.8 143.8 121.3 143.8 121.1 148.3 127.8 148.3"/>
    <path class="cls-4" d="M127.8,148.5h-6.7c0,0-.1,0-.2,0,0,0,0,0,0-.2l.2-4.5c0-.1,0-.2.2-.2h6.5c.1,0,.2,0,.2.2v4.5c0,0,0,.1,0,.1,0,0,0,0-.1,0ZM121.3,148.1h6.3v-4.1h-6.1l-.2,4.1Z"/>
    <polygon class="cls-2" points="80.7 148.3 74 148.3 72.2 153.2 79.1 153.2 80.7 148.3"/>
    <path class="cls-4" d="M79.1,153.4h-7c0,0-.1,0-.2,0,0,0,0-.1,0-.2l1.9-4.9c0,0,.1-.1.2-.1h6.7c0,0,.1,0,.2,0,0,0,0,.1,0,.2l-1.6,4.9c0,0-.1.1-.2.1ZM72.5,153h6.5l1.5-4.4h-6.3l-1.7,4.4Z"/>
    <polygon class="cls-2" points="82.3 143.8 75.7 143.8 74 148.3 80.7 148.3 82.3 143.8"/>
    <path class="cls-4" d="M80.7,148.5h-6.7c0,0-.1,0-.2,0,0,0,0-.1,0-.2l1.7-4.5c0,0,.1-.1.2-.1h6.5c.1,0,.2,0,.2.2,0,0,0,0,0,0l-1.5,4.5c0,0-.1.1-.2.1ZM74.3,148.1h6.3l1.4-4.1h-6.1l-1.6,4.1Z"/>
    <polygon class="cls-2" points="87.5 148.3 88.8 143.8 82.3 143.8 80.7 148.3 87.5 148.3"/>
    <path class="cls-4" d="M87.5,148.5h-6.7c-.1,0-.2,0-.2-.2,0,0,0,0,0,0l1.5-4.5c0,0,.1-.1.2-.1h6.5c0,0,.1,0,.2,0,0,0,0,.1,0,.2l-1.3,4.5c0,0-.1.2-.2.2ZM81,148.1h6.3l1.2-4.1h-6.1l-1.4,4.1Z"/>
    <polygon class="cls-2" points="70.2 158.4 68 164 75.5 164 77.4 158.4 70.2 158.4"/>
    <path class="cls-4" d="M75.5,164.2h-7.5c0,0-.1,0-.2,0,0,0,0-.1,0-.2l2.1-5.6c0,0,.1-.1.2-.1h7.2c0,0,.1,0,.2,0,0,0,0,.1,0,.2l-1.9,5.6c0,0-.1.1-.2.1ZM68.3,163.8h7l1.7-5.2h-6.8l-2,5.2Z"/>
    <polygon class="cls-2" points="79.1 153.2 72.2 153.2 70.2 158.4 77.4 158.4 79.1 153.2"/>
    <path class="cls-4" d="M77.4,158.6h-7.2c-.1,0-.2,0-.2-.2,0,0,0,0,0,0l2-5.2c0,0,.1-.1.2-.1h7c0,0,.1,0,.2,0,0,0,0,.1,0,.2l-1.7,5.2c0,0-.1.1-.2.1ZM70.5,158.2h6.8l1.6-4.8h-6.5l-1.8,4.8Z"/>
    <polygon class="cls-2" points="77.4 158.4 75.5 164 83 164 84.6 158.4 77.4 158.4"/>
    <path class="cls-4" d="M83,164.2h-7.5c-.1,0-.2,0-.2-.2,0,0,0,0,0,0l1.9-5.6c0,0,.1-.1.2-.1h7.2c0,0,.1,0,.2,0,0,0,0,.1,0,.2l-1.6,5.6c0,0-.1.1-.2.1ZM75.8,163.8h7l1.5-5.2h-6.8l-1.7,5.2Z"/>
    <polygon class="cls-2" points="107.6 148.3 108.3 143.8 101.8 143.8 100.9 148.3 107.6 148.3"/>
    <path class="cls-4" d="M107.6,148.5h-6.7c0,0-.1,0-.2,0,0,0,0-.1,0-.2l.8-4.5c0,0,.1-.2.2-.2h6.5c.1,0,.2,0,.2.2,0,0,0,0,0,0l-.6,4.5c0,0,0,.2-.2.2ZM101.2,148.1h6.3l.6-4.1h-6.1l-.8,4.1Z"/>
    <polygon class="cls-2" points="106.9 153.2 107.6 148.3 100.9 148.3 100 153.2 106.9 153.2"/>
    <path class="cls-4" d="M106.9,153.4h-7c-.1,0-.2,0-.2-.2,0,0,0,0,0,0l.9-4.9c0,0,.1-.2.2-.2h6.7c0,0,.1,0,.2,0,0,0,0,.1,0,.2l-.7,4.9c0,.1-.1.2-.2.2ZM100.2,153h6.5l.7-4.4h-6.3l-.9,4.4Z"/>
    <polygon class="cls-2" points="100 153.2 100.9 148.3 94.2 148.3 93 153.2 100 153.2"/>
    <path class="cls-4" d="M100,153.4h-7c0,0-.1,0-.2,0,0,0,0-.1,0-.2l1.2-4.9c0,0,.1-.2.2-.2h6.7c0,0,.1,0,.2,0,0,0,0,.1,0,.2l-.9,4.9c0,0-.1.2-.2.2ZM93.3,153h6.5l.8-4.4h-6.3l-1.1,4.4Z"/>
    <polygon class="cls-2" points="113.9 153.2 114.4 148.3 107.6 148.3 106.9 153.2 113.9 153.2"/>
    <path class="cls-4" d="M113.9,153.4h-7c-.1,0-.2,0-.2-.2,0,0,0,0,0,0l.7-4.9c0-.1.1-.2.2-.2h6.7c0,0,.1,0,.2,0,0,0,0,.1,0,.2l-.5,4.9c0,.1,0,.2-.2.2ZM107.2,153h6.5l.4-4.4h-6.3l-.6,4.4Z"/>
    <polygon class="cls-2" points="87.5 148.3 80.7 148.3 79.1 153.2 86.1 153.2 87.5 148.3"/>
    <path class="cls-4" d="M86.1,153.4h-7c0,0-.1,0-.2,0,0,0,0-.1,0-.2l1.6-4.9c0,0,.1-.1.2-.1h6.7c0,0,.1,0,.2,0,0,0,0,.1,0,.2l-1.4,4.9c0,0-.1.2-.2.2ZM79.4,153h6.5l1.3-4.4h-6.3l-1.5,4.4Z"/>
    <polygon class="cls-2" points="171.1 158.4 178.3 158.4 176.5 153.2 169.6 153.2 171.1 158.4"/>
    <path class="cls-4" d="M178.3,158.6h-7.2c0,0-.2,0-.2-.2l-1.5-5.2c0,0,0-.1,0-.2,0,0,.1,0,.2,0h7c0,0,.2,0,.2.1l1.7,5.2c0,0,0,.1,0,.2,0,0-.1,0-.2,0ZM171.2,158.2h6.8l-1.6-4.8h-6.5l1.4,4.8Z"/>
    <polygon class="cls-2" points="93 153.2 94.2 148.3 87.5 148.3 86.1 153.2 93 153.2"/>
    <path class="cls-4" d="M93,153.4h-7c0,0-.1,0-.2,0,0,0,0-.1,0-.2l1.4-4.9c0,0,.1-.2.2-.2h6.7c0,0,.1,0,.2,0,0,0,0,.1,0,.2l-1.2,4.9c0,0-.1.2-.2.2ZM86.3,153h6.5l1.1-4.4h-6.3l-1.3,4.4Z"/>
    <polygon class="cls-2" points="79.1 153.2 77.4 158.4 84.6 158.4 86.1 153.2 79.1 153.2"/>
    <path class="cls-4" d="M84.6,158.6h-7.2c0,0-.1,0-.2,0,0,0,0-.1,0-.2l1.7-5.2c0,0,.1-.1.2-.1h7c.1,0,.2.1.2.2,0,0,0,0,0,0l-1.5,5.2c0,0-.1.2-.2.2ZM77.6,158.2h6.8l1.4-4.8h-6.5l-1.6,4.8Z"/>
    <polygon class="cls-2" points="155.6 153.2 154.7 148.3 148 148.3 148.7 153.2 155.6 153.2"/>
    <path class="cls-4" d="M155.6,153.4h-7c-.1,0-.2,0-.2-.2l-.7-4.9c0,0,0-.1,0-.2,0,0,0,0,.2,0h6.7c.1,0,.2,0,.2.2l.9,4.9c0,.1,0,.2-.2.2,0,0,0,0,0,0h0ZM148.9,153h6.5l-.8-4.4h-6.3l.6,4.4Z"/>
    <polygon class="cls-2" points="148.7 153.2 148 148.3 141.3 148.3 141.7 153.2 148.7 153.2"/>
    <path class="cls-4" d="M148.7,153.4h-7c-.1,0-.2,0-.2-.2l-.5-4.9c0,0,0-.1,0-.2,0,0,0,0,.2,0h6.7c.1,0,.2,0,.2.2l.7,4.9c0,.1,0,.2-.2.2,0,0,0,0,0,0h0ZM141.9,153h6.5l-.6-4.4h-6.3l.4,4.4Z"/>
    <polygon class="cls-2" points="169.6 153.2 168.2 148.3 161.4 148.3 162.6 153.2 169.6 153.2"/>
    <path class="cls-4" d="M169.6,153.4h-7c0,0-.2,0-.2-.2l-1.2-4.9c0,0,0-.1,0-.2,0,0,.1,0,.2,0h6.7c0,0,.2,0,.2.2l1.4,4.9c0,0,0,.1,0,.2,0,0-.1,0-.2,0ZM162.8,153h6.5l-1.3-4.4h-6.3l1.1,4.4Z"/>
    <polygon class="cls-2" points="127.8 153.2 127.8 148.3 121.1 148.3 120.9 153.2 127.8 153.2"/>
    <path class="cls-4" d="M127.8,153.4h-7c0,0-.1,0-.2,0,0,0,0,0,0-.2l.2-4.9c0-.1,0-.2.2-.2h6.7c.1,0,.2,0,.2.2v4.9c0,0,0,.1,0,.2,0,0,0,0-.1,0ZM121.1,153h6.5v-4.4h-6.3l-.2,4.4Z"/>
    <polygon class="cls-2" points="141.7 153.2 141.3 148.3 134.5 148.3 134.8 153.2 141.7 153.2"/>
    <path class="cls-4" d="M141.7,153.4h-7c-.1,0-.2,0-.2-.2l-.2-4.9c0,0,0-.1,0-.2,0,0,0,0,.2,0h6.7c.1,0,.2,0,.2.2l.5,4.9c0,0,0,.1,0,.2,0,0-.1,0-.2,0ZM135,153h6.5l-.4-4.4h-6.3l.2,4.4Z"/>
    <polygon class="cls-2" points="134.8 153.2 134.5 148.3 127.8 148.3 127.8 153.2 134.8 153.2"/>
    <path class="cls-4" d="M134.8,153.4h-7c-.1,0-.2,0-.2-.2v-4.9c0,0,0-.1,0-.2,0,0,0,0,.2,0h6.7c.1,0,.2,0,.2.2l.2,4.9c0,0,0,.1,0,.2,0,0,0,0-.2,0ZM128,153h6.5l-.2-4.4h-6.3v4.4Z"/>
    <polygon class="cls-2" points="120.9 153.2 121.1 148.3 114.4 148.3 113.9 153.2 120.9 153.2"/>
    <path class="cls-4" d="M120.9,153.4h-7c0,0-.1,0-.2,0,0,0,0-.1,0-.2l.5-4.9c0-.1,0-.2.2-.2h6.7c.1,0,.2,0,.2.2,0,0,0,0,0,0l-.2,4.9c0,.1-.1.2-.2.2ZM114.1,153h6.5l.2-4.4h-6.3l-.4,4.4Z"/>
    <polygon class="cls-2" points="141.7 153.2 142.2 158.4 149.4 158.4 148.7 153.2 141.7 153.2"/>
    <path class="cls-4" d="M149.4,158.6h-7.2c-.1,0-.2,0-.2-.2l-.5-5.2c0,0,0-.1,0-.2,0,0,0,0,.2,0h7c.1,0,.2,0,.2.2l.7,5.2c0,0,0,.1,0,.2,0,0,0,0-.2,0ZM142.4,158.2h6.8l-.7-4.8h-6.5l.5,4.8Z"/>
    <polygon class="cls-2" points="148.7 153.2 149.4 158.4 156.6 158.4 155.6 153.2 148.7 153.2"/>
    <path class="cls-4" d="M156.6,158.6h-7.2c-.1,0-.2,0-.2-.2l-.8-5.2c0,0,0-.1,0-.2,0,0,0,0,.2,0h7c.1,0,.2,0,.2.2l1,5.2c0,0,0,.1,0,.2,0,0,0,0-.2,0ZM149.6,158.2h6.8l-.9-4.8h-6.5l.7,4.8Z"/>
    <polygon class="cls-2" points="86.1 153.2 84.6 158.4 91.8 158.4 93 153.2 86.1 153.2"/>
    <path class="cls-4" d="M91.8,158.6h-7.2c0,0-.1,0-.2,0,0,0,0-.1,0-.2l1.5-5.2c0,0,.1-.2.2-.2h7c.1,0,.2,0,.2.2,0,0,0,0,0,0l-1.2,5.2c0,0-.1.2-.2.2ZM84.9,158.2h6.8l1.1-4.8h-6.5l-1.4,4.8Z"/>
    <polygon class="cls-2" points="155.6 153.2 156.6 158.4 163.9 158.4 162.6 153.2 155.6 153.2"/>
    <path class="cls-4" d="M163.9,158.6h-7.2c0,0-.2,0-.2-.2l-1-5.2c0,0,0-.1,0-.2,0,0,.1,0,.2,0h7c0,0,.2,0,.2.2l1.3,5.2c0,0,0,.1,0,.2,0,0-.1,0-.2,0ZM156.8,158.2h6.8l-1.2-4.8h-6.5l.9,4.8Z"/>
    <polygon class="cls-2" points="127.8 153.2 127.8 158.4 135 158.4 134.8 153.2 127.8 153.2"/>
    <path class="cls-4" d="M135,158.6h-7.2c-.1,0-.2,0-.2-.2v-5.2c0,0,0-.1,0-.1,0,0,0,0,.2,0h7c.1,0,.2,0,.2.2l.3,5.2c0,0,0,.1,0,.2,0,0-.1,0-.2,0ZM128,158.2h6.8l-.2-4.8h-6.5v4.8Z"/>
    <polygon class="cls-2" points="162.6 153.2 163.9 158.4 171.1 158.4 169.6 153.2 162.6 153.2"/>
    <path class="cls-4" d="M171.1,158.6h-7.2c0,0-.2,0-.2-.2l-1.3-5.2c0,0,0-.1,0-.2,0,0,.1,0,.2,0h7c0,0,.2,0,.2.2l1.5,5.2c0,0,0,.1,0,.2,0,0-.1,0-.2,0ZM164,158.2h6.8l-1.4-4.8h-6.5l1.2,4.8Z"/>
    <polygon class="cls-2" points="134.8 153.2 135 158.4 142.2 158.4 141.7 153.2 134.8 153.2"/>
    <path class="cls-4" d="M142.2,158.6h-7.2c-.1,0-.2,0-.2-.2l-.3-5.2c0,0,0-.1,0-.2,0,0,0,0,.2,0h6.9c.1,0,.2,0,.2.2l.5,5.2c0,0,0,.1,0,.2,0,0,0,0-.2,0ZM135.2,158.2h6.8l-.5-4.8h-6.5l.2,4.8Z"/>
    <polygon class="cls-2" points="100 153.2 99 158.4 106.2 158.4 106.9 153.2 100 153.2"/>
    <path class="cls-4" d="M106.2,158.6h-7.2c0,0-.1,0-.2,0,0,0,0-.1,0-.2l1-5.2c0-.1.1-.2.2-.2h7c.1,0,.2,0,.2.2,0,0,0,0,0,0l-.7,5.2c0,.1-.1.2-.2.2ZM99.2,158.2h6.8l.7-4.8h-6.5l-.9,4.8Z"/>
    <polygon class="cls-2" points="93 153.2 91.8 158.4 99 158.4 100 153.2 93 153.2"/>
    <path class="cls-4" d="M99,158.6h-7.2c0,0-.1,0-.2,0,0,0,0-.1,0-.2l1.2-5.2c0,0,.1-.2.2-.2h7c0,0,.1,0,.2,0,0,0,0,.1,0,.2l-1,5.2c0,.1-.1.2-.2.2ZM92.1,158.2h6.8l.9-4.8h-6.5l-1.1,4.8Z"/>
    <polygon class="cls-2" points="120.9 153.2 120.6 158.4 127.8 158.4 127.8 153.2 120.9 153.2"/>
    <path class="cls-4" d="M127.8,158.6h-7.2c0,0-.1,0-.2,0,0,0,0,0,0-.2l.2-5.2c0-.1,0-.2.2-.2h7c.1,0,.2,0,.2.2v5.2c0,0,0,.1,0,.2,0,0,0,0-.2,0ZM120.8,158.2h6.8v-4.8h-6.5l-.2,4.8Z"/>
    <polygon class="cls-2" points="113.9 153.2 113.4 158.4 120.6 158.4 120.9 153.2 113.9 153.2"/>
    <path class="cls-4" d="M120.6,158.6h-7.2c0,0-.1,0-.2,0,0,0,0-.1,0-.2l.5-5.2c0-.1,0-.2.2-.2h7c0,0,.1,0,.2,0,0,0,0,0,0,.2l-.2,5.2c0,.1-.1.2-.2.2ZM113.6,158.2h6.8l.2-4.8h-6.5l-.5,4.8Z"/>
    <polygon class="cls-2" points="106.9 153.2 106.2 158.4 113.4 158.4 113.9 153.2 106.9 153.2"/>
    <path class="cls-4" d="M113.4,158.6h-7.2c-.1,0-.2,0-.2-.2,0,0,0,0,0,0l.7-5.2c0-.1.1-.2.2-.2h7c0,0,.1,0,.2,0,0,0,0,.1,0,.2l-.5,5.2c0,.1-.1.2-.2.2ZM106.4,158.2h6.8l.5-4.8h-6.5l-.7,4.8Z"/>
    <polygon class="cls-2" points="162.6 153.2 161.4 148.3 154.7 148.3 155.6 153.2 162.6 153.2"/>
    <path class="cls-4" d="M162.6,153.4h-7c-.1,0-.2,0-.2-.2l-.9-4.9c0,0,0-.1,0-.2,0,0,.1,0,.2,0h6.7c0,0,.2,0,.2.2l1.2,4.9c0,0,0,.1,0,.2,0,0-.1,0-.2,0ZM155.8,153h6.5l-1.1-4.4h-6.3l.9,4.4Z"/>
    <polygon class="cls-2" points="82.3 143.8 83.8 139.1 77.5 139.1 75.7 143.8 82.3 143.8"/>
    <path class="cls-4" d="M82.3,144h-6.5c-.1,0-.2,0-.2-.2,0,0,0,0,0,0l1.8-4.7c0,0,.1-.1.2-.1h6.3c.1,0,.2,0,.2.2,0,0,0,0,0,0l-1.6,4.7c0,0-.1.1-.2.1ZM76.1,143.5h6l1.4-4.2h-5.8l-1.6,4.2Z"/>
    <polygon class="cls-2" points="75.7 143.8 69.7 143.8 67.8 148.3 74 148.3 75.7 143.8"/>
    <path class="cls-4" d="M74,148.5h-6.2c0,0-.1,0-.2,0,0,0,0-.1,0-.2l1.9-4.5c0,0,.1-.1.2-.1h6c0,0,.1,0,.2,0,0,0,0,.1,0,.2l-1.7,4.5c0,0-.1.1-.2.1ZM68.1,148.1h5.7l1.6-4.1h-5.6l-1.8,4.1Z"/>
    <polygon class="cls-2" points="77.5 139.1 71.7 139.1 69.7 143.8 75.7 143.8 77.5 139.1"/>
    <path class="cls-4" d="M75.7,144h-6c0,0-.1,0-.2,0,0,0,0-.1,0-.2l2-4.7c0,0,.1-.1.2-.1h5.8c0,0,.1,0,.2,0,0,0,0,.1,0,.2l-1.8,4.7c0,0-.1.1-.2.1ZM70.1,143.5h5.5l1.6-4.2h-5.4l-1.8,4.2Z"/>
    <polygon class="cls-2" points="74 148.3 67.8 148.3 65.7 153.2 72.2 153.2 74 148.3"/>
    <path class="cls-4" d="M72.2,153.4h-6.4c-.1,0-.2,0-.2-.2,0,0,0,0,0,0l2.1-4.9c0,0,.1-.1.2-.1h6.2c0,0,.1,0,.2,0,0,0,0,.1,0,.2l-1.9,4.9c0,0-.1.1-.2.1ZM66,153h6l1.7-4.4h-5.8l-1.9,4.4Z"/>
    <polygon class="cls-2" points="72.2 153.2 65.7 153.2 63.5 158.4 70.2 158.4 72.2 153.2"/>
    <path class="cls-4" d="M70.2,158.6h-6.7c-.1,0-.2,0-.2-.2,0,0,0,0,0,0l2.2-5.2c0,0,.1-.1.2-.1h6.4c.1,0,.2.1.2.2,0,0,0,0,0,0l-2,5.2c0,0,0,.1-.2.1ZM63.8,158.2h6.2l1.9-4.8h-6l-2,4.8Z"/>
    <polygon class="cls-2" points="70.2 158.4 63.5 158.4 61.1 164 68 164 70.2 158.4"/>
    <path class="cls-4" d="M68,164.2h-6.9c0,0-.1,0-.2,0,0,0,0-.1,0-.2l2.4-5.6c0,0,.1-.1.2-.1h6.6c0,0,.1,0,.2,0,0,0,0,.1,0,.2l-2.1,5.6c0,0-.1.1-.2.1ZM61.4,163.8h6.4l2-5.2h-6.2l-2.2,5.2Z"/>
    <polygon class="cls-2" points="181.6 148.3 183.5 153.2 189.6 153.2 187.6 148.3 181.6 148.3"/>
    <path class="cls-4" d="M189.6,153.4h-6.2c0,0-.2,0-.2-.1l-1.9-4.9c0,0,0-.1,0-.2,0,0,.1,0,.2,0h5.9c0,0,.2,0,.2.1l2.1,4.9c0,0,0,.1,0,.2,0,0-.1,0-.2,0ZM183.6,153h5.7l-1.9-4.4h-5.5l1.7,4.4Z"/>
    <polygon class="cls-2" points="185.5 158.4 191.8 158.4 189.6 153.2 183.5 153.2 185.5 158.4"/>
    <path class="cls-4" d="M191.8,158.6h-6.4c0,0-.2,0-.2-.1l-2-5.2c0-.1,0-.2.1-.3,0,0,0,0,0,0h6.2c0,0,.2,0,.2.1l2.2,5.2c0,.1,0,.2-.1.3,0,0,0,0,0,0h0ZM185.6,158.2h5.9l-2-4.8h-5.7l1.8,4.8Z"/>
    <polygon class="cls-2" points="187.6 164 194.2 164 191.8 158.4 185.5 158.4 187.6 164"/>
    <path class="cls-4" d="M194.2,164.2h-6.6c0,0-.2,0-.2-.1l-2.2-5.6c0-.1,0-.2.1-.3,0,0,0,0,0,0h6.4c0,0,.2,0,.2.1l2.4,5.6c0,0,0,.1,0,.2,0,0-.1.1-.2,0ZM187.8,163.8h6.1l-2.2-5.2h-5.9l2,5.2Z"/>
    <polygon class="cls-2" points="134.3 143.8 134.1 139.1 127.8 139.1 127.8 143.8 134.3 143.8"/>
    <path class="cls-4" d="M134.3,144h-6.5c-.1,0-.2,0-.2-.2v-4.7c0,0,0-.1,0-.1,0,0,0,0,.2,0h6.3c.1,0,.2,0,.2.2l.2,4.7c0,0,0,.1,0,.2,0,0,0,0-.1,0ZM128,143.5h6.1l-.2-4.2h-5.9v4.2Z"/>
    <polygon class="cls-2" points="181.6 148.3 187.6 148.3 185.6 143.8 179.9 143.8 181.6 148.3"/>
    <path class="cls-4" d="M187.6,148.5h-5.9c0,0-.2,0-.2-.1l-1.7-4.5c0-.1,0-.2.1-.3,0,0,0,0,0,0h5.8c0,0,.2,0,.2.1l1.9,4.5c0,0,0,.1,0,.2,0,0-.1.1-.2,0ZM181.7,148.1h5.5l-1.8-4.1h-5.3l1.6,4.1Z"/>
    <polygon class="cls-2" points="178.3 158.4 185.5 158.4 183.5 153.2 176.5 153.2 178.3 158.4"/>
    <path class="cls-4" d="M185.5,158.6h-7.2c0,0-.2,0-.2-.1l-1.8-5.2c0-.1,0-.2.1-.3,0,0,0,0,0,0h7c0,0,.2,0,.2.1l2,5.2c0,0,0,.1,0,.2,0,0-.1,0-.2,0ZM178.4,158.2h6.7l-1.8-4.8h-6.5l1.6,4.8Z"/>
    <polygon class="cls-2" points="88.8 143.8 90.1 139.1 83.8 139.1 82.3 143.8 88.8 143.8"/>
    <path class="cls-4" d="M88.8,144h-6.5c-.1,0-.2,0-.2-.2,0,0,0,0,0,0l1.6-4.7c0,0,.1-.1.2-.1h6.3c0,0,.1,0,.2,0,0,0,0,.1,0,.2l-1.3,4.7c0,0-.1.2-.2.2ZM82.5,143.5h6.1l1.2-4.2h-5.8l-1.4,4.2Z"/>
    <polygon class="cls-2" points="173.4 143.8 174.9 148.3 181.6 148.3 179.9 143.8 173.4 143.8"/>
    <path class="cls-4" d="M181.6,148.5h-6.7c0,0-.2,0-.2-.1l-1.5-4.5c0,0,0-.1,0-.2,0,0,.1,0,.2,0h6.5c0,0,.2,0,.2.1l1.7,4.5c0,0,0,.1,0,.2,0,0-.1,0-.2,0ZM175,148.1h6.3l-1.6-4.1h-6.1l1.4,4.1Z"/>
    <polygon class="cls-2" points="185.6 143.8 183.6 139.1 178.1 139.1 179.9 143.8 185.6 143.8"/>
    <path class="cls-4" d="M185.6,144h-5.8c0,0-.2,0-.2-.1l-1.8-4.7c0,0,0-.1,0-.2,0,0,.1,0,.2,0h5.6c0,0,.2,0,.2.1l2,4.7c0,0,0,.1,0,.2,0,0-.1,0-.2,0ZM180,143.5h5.3l-1.8-4.2h-5.1l1.6,4.2Z"/>
    <polygon class="cls-2" points="179.9 143.8 178.1 139.1 171.8 139.1 173.4 143.8 179.9 143.8"/>
    <path class="cls-4" d="M179.9,144h-6.5c0,0-.2,0-.2-.1l-1.6-4.7c0,0,0-.1,0-.2,0,0,.1,0,.2,0h6.3c0,0,.2,0,.2.1l1.8,4.7c0,.1,0,.2-.1.3,0,0,0,0,0,0ZM173.5,143.5h6l-1.6-4.2h-5.9l1.4,4.2Z"/>
    <polygon class="cls-2" points="156.6 158.4 157.7 164 165.2 164 163.9 158.4 156.6 158.4"/>
    <path class="cls-4" d="M165.2,164.2h-7.5c-.1,0-.2,0-.2-.2l-1.1-5.6c0,0,0-.1,0-.2,0,0,0,0,.2,0h7.2c0,0,.2,0,.2.2l1.3,5.6c0,0,0,.1,0,.2,0,0,0,0-.2,0ZM157.9,163.8h7l-1.2-5.2h-6.8l1,5.2Z"/>
    <polygon class="cls-2" points="180.1 164 187.6 164 185.5 158.4 178.3 158.4 180.1 164"/>
    <path class="cls-4" d="M187.6,164.2h-7.5c0,0-.2,0-.2-.1l-1.9-5.6c0,0,0-.1,0-.2,0,0,.1,0,.2,0h7.2c0,0,.2,0,.2.1l2.1,5.6c0,0,0,.1,0,.2,0,0-.1,0-.2,0ZM180.3,163.8h7l-2-5.2h-6.8l1.7,5.2Z"/>
    <polygon class="cls-2" points="173.4 143.8 171.8 139.1 165.5 139.1 166.8 143.8 173.4 143.8"/>
    <path class="cls-4" d="M173.4,144h-6.5c0,0-.2,0-.2-.2l-1.3-4.7c0,0,0-.1,0-.2,0,0,.1,0,.2,0h6.3c0,0,.2,0,.2.1l1.6,4.7c0,0,0,.1,0,.2,0,0-.1,0-.2,0ZM167,143.5h6.1l-1.4-4.2h-5.8l1.2,4.2Z"/>
    <polygon class="cls-2" points="171.1 158.4 172.7 164 180.1 164 178.3 158.4 171.1 158.4"/>
    <path class="cls-4" d="M180.1,164.2h-7.5c0,0-.2,0-.2-.2l-1.6-5.6c0,0,0-.1,0-.2,0,0,.1,0,.2,0h7.2c0,0,.2,0,.2.1l1.9,5.6c0,0,0,.1,0,.2,0,0,0,0-.2,0ZM172.8,163.8h7l-1.7-5.2h-6.8l1.5,5.2Z"/>
    <polygon class="cls-2" points="163.9 158.4 165.2 164 172.7 164 171.1 158.4 163.9 158.4"/>
    <path class="cls-4" d="M172.7,164.2h-7.5c0,0-.2,0-.2-.2l-1.3-5.6c0,0,0-.1,0-.2,0,0,.1,0,.2,0h7.2c0,0,.2,0,.2.2l1.6,5.6c0,0,0,.1,0,.2,0,0,0,0-.2,0ZM165.4,163.8h7l-1.5-5.2h-6.8l1.3,5.2Z"/>
    <polygon class="cls-2" points="176.5 153.2 183.5 153.2 181.6 148.3 174.9 148.3 176.5 153.2"/>
    <path class="cls-4" d="M183.5,153.4h-7c0,0-.2,0-.2-.1l-1.6-4.9c0-.1,0-.2.1-.3,0,0,0,0,0,0h6.7c0,0,.2,0,.2.1l1.9,4.9c0,.1,0,.2-.1.3,0,0,0,0,0,0h0ZM176.7,153h6.5l-1.7-4.4h-6.3l1.5,4.4Z"/>
    <polygon class="cls-2" points="114.8 143.8 115.2 139.1 108.9 139.1 108.3 143.8 114.8 143.8"/>
    <path class="cls-4" d="M114.8,144h-6.5c0,0-.1,0-.2,0,0,0,0-.1,0-.2l.7-4.7c0-.1.1-.2.2-.2h6.3c0,0,.1,0,.2,0,0,0,0,.1,0,.2l-.4,4.7c0,.1-.1.2-.2.2ZM108.5,143.5h6.1l.4-4.2h-5.9l-.6,4.2Z"/>
    <polygon class="cls-2" points="166.8 143.8 165.5 139.1 159.2 139.1 160.3 143.8 166.8 143.8"/>
    <path class="cls-4" d="M166.8,144h-6.5c0,0-.2,0-.2-.2l-1.1-4.7c0,0,0-.1,0-.2,0,0,.1,0,.2,0h6.3c0,0,.2,0,.2.2l1.3,4.7c0,.1,0,.2-.2.3,0,0,0,0,0,0h0ZM160.5,143.5h6.1l-1.2-4.2h-5.9l1,4.2Z"/>
    <polygon class="cls-2" points="108.3 143.8 108.9 139.1 102.7 139.1 101.8 143.8 108.3 143.8"/>
    <path class="cls-4" d="M108.3,144h-6.5c0,0-.1,0-.2,0,0,0,0-.1,0-.2l.9-4.7c0-.1.1-.2.2-.2h6.3c0,0,.1,0,.2,0,0,0,0,.1,0,.2l-.7,4.7c0,.1-.1.2-.2.2ZM102,143.5h6.1l.6-4.2h-5.9l-.8,4.2Z"/>
    <polygon class="cls-2" points="127.8 143.8 127.8 139.1 121.5 139.1 121.3 143.8 127.8 143.8"/>
    <path class="cls-4" d="M127.8,144h-6.5c0,0-.1,0-.2,0,0,0,0,0,0-.2l.2-4.7c0-.1,0-.2.2-.2h6.3c.1,0,.2,0,.2.2v4.7c0,.1,0,.2-.2.2h0ZM121.5,143.5h6.1v-4.2h-5.9l-.2,4.2Z"/>
    <polygon class="cls-2" points="101.8 143.8 102.7 139.1 96.4 139.1 95.3 143.8 101.8 143.8"/>
    <path class="cls-4" d="M101.8,144h-6.5c0,0-.1,0-.2,0,0,0,0-.1,0-.2l1.1-4.7c0,0,.1-.2.2-.2h6.3c0,0,.1,0,.2,0,0,0,0,.1,0,.2l-.9,4.7c0,.1-.1.2-.2.2ZM95.5,143.5h6.1l.8-4.2h-5.9l-1,4.2Z"/>
    <polygon class="cls-2" points="95.3 143.8 96.4 139.1 90.1 139.1 88.8 143.8 95.3 143.8"/>
    <path class="cls-4" d="M95.3,144h-6.5c0,0-.1,0-.2,0,0,0,0-.1,0-.2l1.3-4.7c0,0,.1-.2.2-.2h6.3c0,0,.1,0,.2,0,0,0,0,.1,0,.2l-1.1,4.7c0,0-.1.2-.2.2ZM89,143.5h6.1l1-4.2h-5.9l-1.2,4.2Z"/>
    <polygon class="cls-2" points="121.3 143.8 121.5 139.1 115.2 139.1 114.8 143.8 121.3 143.8"/>
    <path class="cls-4" d="M121.3,144h-6.5c0,0-.1,0-.2,0,0,0,0-.1,0-.2l.4-4.7c0-.1,0-.2.2-.2h6.3c0,0,.1,0,.2,0,0,0,0,0,0,.2l-.2,4.7c0,.1,0,.2-.2.2ZM115,143.5h6.1l.2-4.2h-5.9l-.4,4.2Z"/>
    <polygon class="cls-2" points="160.3 143.8 159.2 139.1 152.9 139.1 153.8 143.8 160.3 143.8"/>
    <path class="cls-4" d="M160.3,144h-6.5c-.1,0-.2,0-.2-.2l-.9-4.7c0-.1,0-.2.2-.3,0,0,0,0,0,0h6.3c0,0,.2,0,.2.2l1.1,4.7c0,.1,0,.2-.2.3,0,0,0,0,0,0h0ZM154,143.5h6.1l-1-4.2h-5.8l.8,4.2Z"/>
    <polygon class="cls-2" points="153.8 143.8 152.9 139.1 146.6 139.1 147.3 143.8 153.8 143.8"/>
    <path class="cls-4" d="M153.8,144h-6.5c-.1,0-.2,0-.2-.2l-.7-4.7c0,0,0-.1,0-.2,0,0,0,0,.2,0h6.3c.1,0,.2,0,.2.2l.9,4.7c0,0,0,.1,0,.2,0,0,0,0-.2,0ZM147.5,143.5h6.1l-.8-4.2h-5.9l.6,4.2Z"/>
    <polygon class="cls-2" points="140.8 143.8 140.4 139.1 134.1 139.1 134.3 143.8 140.8 143.8"/>
    <path class="cls-4" d="M140.8,144h-6.5c-.1,0-.2,0-.2-.2l-.2-4.7c0,0,0-.1,0-.2,0,0,0,0,.2,0h6.3c.1,0,.2,0,.2.2l.4,4.7c0,.1,0,.2-.2.2,0,0,0,0,0,0h0ZM134.5,143.5h6.1l-.4-4.2h-5.9l.2,4.2Z"/>
    <polygon class="cls-2" points="156.6 158.4 149.4 158.4 142.2 158.4 135 158.4 127.8 158.4 120.6 158.4 113.4 158.4 106.2 158.4 99 158.4 91.8 158.4 84.6 158.4 83 164 90.4 164 97.9 164 105.4 164 112.9 164 120.3 164 127.8 164 135.3 164 142.8 164 150.2 164 157.7 164 156.6 158.4"/>
    <path class="cls-4" d="M157.7,164.2h-74.7c0,0-.1,0-.2,0,0,0,0-.1,0-.2l1.6-5.6c0,0,.1-.2.2-.2h72.1c.1,0,.2,0,.2.2l1.1,5.6c0,0,0,.1,0,.2,0,0-.1,0-.2,0ZM83.2,163.8h74.2l-1-5.2h-71.7l-1.5,5.2Z"/>
    <polygon class="cls-2" points="147.3 143.8 146.6 139.1 140.4 139.1 140.8 143.8 147.3 143.8"/>
    <path class="cls-4" d="M147.3,144h-6.5c-.1,0-.2,0-.2-.2l-.5-4.7c0,0,0-.1,0-.2,0,0,0,0,.2,0h6.3c.1,0,.2,0,.2.2l.7,4.7c0,0,0,.1,0,.2,0,0-.1,0-.2,0ZM141,143.5h6.1l-.6-4.2h-5.9l.4,4.2Z"/>
    <rect class="cls-2" x="46.2" y="173.8" width="160.2" height="2.3"/>
    <path class="cls-2" d="M206.3,176.3H46.2c-.1,0-.2,0-.2-.2v-2.3c0-.1,0-.2.2-.2h160.2c.1,0,.2,0,.2.2v2.3c0,.1,0,.2-.2.2ZM46.4,175.9h159.7v-1.8H46.4v1.8Z"/>
    <path class="cls-2" d="M86.1,65h-7c-.4,0-.6-.3-.6-.6s.3-.6.6-.6h7c.4,0,.6.3.6.6s-.3.6-.6.6Z"/>
    <path class="cls-4" d="M105.3,68.6h-26.2c-.4,0-.6-.3-.6-.6s.3-.6.6-.6h26.2c.4,0,.6.3.6.6s-.3.6-.6.6Z"/>
    <path class="cls-4" d="M145.8,68.6h-26.2c-.4,0-.6-.3-.6-.6s.3-.6.6-.6h26.2c.4,0,.6.3.6.6s-.3.6-.6.6h0Z"/>
    <path class="cls-2" d="M117.4,68.6h-10.4c-.4,0-.6-.3-.6-.6s.3-.6.6-.6h10.4c.4,0,.6.3.6.6s-.3.6-.6.6h0Z"/>
    <path class="cls-2" d="M94.2,72.2h-15.1c-.4,0-.6-.3-.6-.6s.3-.6.6-.6h15.1c.4,0,.6.3.6.6s-.3.6-.6.6Z"/>
    <path class="cls-2" d="M111.1,72.2h-15.1c-.4,0-.6-.3-.6-.6s.3-.6.6-.6h15.1c.4,0,.6.3.6.6s-.3.6-.6.6Z"/>
    <path class="cls-2" d="M128.1,72.2h-15.1c-.4,0-.6-.3-.6-.6s.3-.6.6-.6h15.1c.4,0,.6.3.6.6s-.3.6-.6.6Z"/>
    <path class="cls-2" d="M136.4,72.2h-6.4c-.4,0-.6-.3-.6-.6s.3-.6.6-.6h6.4c.4,0,.6.3.6.6s-.3.6-.6.6Z"/>
    <path class="cls-2" d="M94.9,65h-7c-.4,0-.6-.3-.6-.6s.3-.6.6-.6h7c.4,0,.6.3.6.6s-.3.6-.6.6Z"/>
    <path class="cls-2" d="M136.4,65h-7c-.4,0-.6-.3-.6-.6s.3-.6.6-.6h7c.4,0,.6.3.6.6s-.3.6-.6.6h0Z"/>
    <path class="cls-4" d="M127.2,65h-7c-.4,0-.6-.3-.6-.6s.3-.6.6-.6h7c.4,0,.6.3.6.6s-.3.6-.6.6Z"/>
    <path class="cls-2" d="M117.2,65h-20.3c-.4,0-.6-.3-.6-.6s.3-.6.6-.6h20.4c.4,0,.6.3.6.6s-.3.6-.6.6h0Z"/>
    <path class="cls-2" d="M86.1,86.9h-7c-.4,0-.6-.3-.6-.6s.3-.6.6-.6h7c.4,0,.6.3.6.6s-.3.6-.6.6Z"/>
    <path class="cls-4" d="M105.3,90.5h-26.2c-.4,0-.6-.3-.6-.6s.3-.6.6-.6h26.2c.4,0,.6.3.6.6s-.3.6-.6.6Z"/>
    <path class="cls-2" d="M145.8,90.5h-26.2c-.4,0-.6-.3-.6-.6s.3-.6.6-.6h26.2c.4,0,.6.3.6.6s-.3.6-.6.6h0Z"/>
    <path class="cls-2" d="M117.4,90.5h-10.4c-.4,0-.6-.3-.6-.6s.3-.6.6-.6h10.4c.4,0,.6.3.6.6s-.3.6-.6.6h0Z"/>
    <path class="cls-2" d="M94.2,94.1h-15.1c-.4,0-.6-.3-.6-.6s.3-.6.6-.6h15.1c.4,0,.6.3.6.6s-.3.6-.6.6Z"/>
    <path class="cls-2" d="M111.1,94.1h-15.1c-.4,0-.6-.3-.6-.6s.3-.6.6-.6h15.1c.4,0,.6.3.6.6s-.3.6-.6.6Z"/>
    <path class="cls-4" d="M128.1,94.1h-15.1c-.4,0-.6-.3-.6-.6s.3-.6.6-.6h15.1c.4,0,.6.3.6.6s-.3.6-.6.6Z"/>
    <path class="cls-2" d="M136.4,94.1h-6.4c-.4,0-.6-.3-.6-.6s.3-.6.6-.6h6.4c.4,0,.6.3.6.6s-.3.6-.6.6Z"/>
    <path class="cls-2" d="M94.9,86.9h-7c-.4,0-.6-.3-.6-.6s.3-.6.6-.6h7c.4,0,.6.3.6.6s-.3.6-.6.6Z"/>
    <path class="cls-2" d="M136.4,86.9h-7c-.4,0-.6-.3-.6-.6s.3-.6.6-.6h7c.4,0,.6.3.6.6s-.3.6-.6.6h0Z"/>
    <path class="cls-4" d="M127.2,86.9h-7c-.4,0-.6-.3-.6-.6s.3-.6.6-.6h7c.4,0,.6.3.6.6s-.3.6-.6.6Z"/>
    <path class="cls-2" d="M117.2,86.9h-20.3c-.4,0-.6-.3-.6-.6s.3-.6.6-.6h20.4c.4,0,.6.3.6.6s-.3.6-.6.6h0Z"/>
    <path class="cls-2" d="M86.1,119.2h-7c-.4,0-.6-.3-.6-.6s.3-.6.6-.6h7c.4,0,.6.3.6.6s-.3.6-.6.6Z"/>
    <path class="cls-4" d="M105.3,122.7h-26.2c-.4,0-.6-.3-.6-.6s.3-.6.6-.6h26.2c.4,0,.6.3.6.6s-.3.6-.6.6Z"/>
    <path class="cls-2" d="M145.8,122.7h-26.2c-.4,0-.6-.3-.6-.6s.3-.6.6-.6h26.2c.4,0,.6.3.6.6s-.3.6-.6.6h0Z"/>
    <path class="cls-2" d="M117.4,122.7h-10.4c-.4,0-.6-.3-.6-.6s.3-.6.6-.6h10.4c.4,0,.6.3.6.6s-.3.6-.6.6h0Z"/>
    <path class="cls-2" d="M94.2,126.3h-15.1c-.4,0-.6-.3-.6-.6s.3-.6.6-.6h15.1c.4,0,.6.3.6.6s-.3.6-.6.6Z"/>
    <path class="cls-2" d="M111.1,126.3h-15.1c-.4,0-.6-.3-.6-.6s.3-.6.6-.6h15.1c.4,0,.6.3.6.6s-.3.6-.6.6Z"/>
    <path class="cls-4" d="M128.1,126.3h-15.1c-.4,0-.6-.3-.6-.6s.3-.6.6-.6h15.1c.4,0,.6.3.6.6s-.3.6-.6.6Z"/>
    <path class="cls-2" d="M136.4,126.3h-6.4c-.4,0-.6-.3-.6-.6s.3-.6.6-.6h6.4c.4,0,.6.3.6.6s-.3.6-.6.6Z"/>
    <path class="cls-2" d="M94.9,119.2h-7c-.4,0-.6-.3-.6-.6s.3-.6.6-.6h7c.4,0,.6.3.6.6s-.3.6-.6.6Z"/>
    <path class="cls-2" d="M136.4,119.2h-7c-.4,0-.6-.3-.6-.6s.3-.6.6-.6h7c.4,0,.6.3.6.6s-.3.6-.6.6h0Z"/>
    <path class="cls-4" d="M127.2,119.2h-7c-.4,0-.6-.3-.6-.6s.3-.6.6-.6h7c.4,0,.6.3.6.6s-.3.6-.6.6Z"/>
    <path class="cls-2" d="M117.2,119.2h-20.3c-.4,0-.6-.3-.6-.6s.3-.6.6-.6h20.4c.4,0,.6.3.6.6s-.3.6-.6.6h0Z"/>
    <path class="cls-2" d="M125.3,76h-7c-.4,0-.6-.3-.6-.6s.3-.6.6-.6h7c.4,0,.6.3.6.6s-.3.6-.6.6Z"/>
    <path class="cls-2" d="M116,76h-7c-.4,0-.6-.3-.6-.6s.3-.6.6-.6h7c.4,0,.6.3.6.6s-.3.6-.6.6Z"/>
    <path class="cls-2" d="M106,76h-20.4c-.4,0-.6-.3-.6-.6s.3-.6.6-.6h20.4c.4,0,.6.3.6.6s-.3.6-.6.6Z"/>
    <path class="cls-2" d="M125.3,82.4h-7c-.4,0-.6-.3-.6-.6s.3-.6.6-.6h7c.4,0,.6.3.6.6s-.3.6-.6.6Z"/>
    <path class="cls-2" d="M116,82.4h-7c-.4,0-.6-.3-.6-.6s.3-.6.6-.6h7c.4,0,.6.3.6.6s-.3.6-.6.6Z"/>
    <path class="cls-4" d="M106,82.4h-20.4c-.4,0-.6-.3-.6-.6s.3-.6.6-.6h20.4c.4,0,.6.3.6.6s-.3.6-.6.6Z"/>
    <path class="cls-2" d="M92.7,79.2h-7c-.4,0-.6-.3-.6-.6s.3-.6.6-.6h7c.4,0,.6.3.6.6s-.3.6-.6.6Z"/>
    <path class="cls-2" d="M101.9,79.2h-7c-.4,0-.6-.3-.6-.6s.3-.6.6-.6h7c.4,0,.6.3.6.6s-.3.6-.6.6Z"/>
    <path class="cls-4" d="M125.3,79.2h-20.4c-.4,0-.6-.3-.6-.6s.3-.6.6-.6h20.4c.4,0,.6.3.6.6s-.3.6-.6.6Z"/>
    <path class="cls-2" d="M125.3,98.4h-7c-.4,0-.6-.3-.6-.6s.3-.6.6-.6h7c.4,0,.6.3.6.6s-.3.6-.6.6Z"/>
    <path class="cls-2" d="M116,98.4h-7c-.4,0-.6-.3-.6-.6s.3-.6.6-.6h7c.4,0,.6.3.6.6s-.3.6-.6.6Z"/>
    <path class="cls-2" d="M106,98.4h-20.4c-.4,0-.6-.3-.6-.6s.3-.6.6-.6h20.4c.4,0,.6.3.6.6s-.3.6-.6.6Z"/>
    <path class="cls-2" d="M125.3,104.8h-7c-.4,0-.6-.3-.6-.6s.3-.6.6-.6h7c.4,0,.6.3.6.6s-.3.6-.6.6Z"/>
    <path class="cls-2" d="M116,104.8h-7c-.4,0-.6-.3-.6-.6s.3-.6.6-.6h7c.4,0,.6.3.6.6s-.3.6-.6.6Z"/>
    <path class="cls-4" d="M106,104.8h-20.4c-.4,0-.6-.3-.6-.6s.3-.6.6-.6h20.4c.4,0,.6.3.6.6s-.3.6-.6.6Z"/>
    <path class="cls-2" d="M92.7,101.6h-7c-.4,0-.6-.3-.6-.6s.3-.6.6-.6h7c.4,0,.6.3.6.6s-.3.6-.6.6Z"/>
    <path class="cls-2" d="M101.9,101.6h-7c-.4,0-.6-.3-.6-.6s.3-.6.6-.6h7c.4,0,.6.3.6.6s-.3.6-.6.6Z"/>
    <path class="cls-4" d="M125.3,101.6h-20.4c-.4,0-.6-.3-.6-.6s.3-.6.6-.6h20.4c.4,0,.6.3.6.6s-.3.6-.6.6Z"/>
    <path class="cls-2" d="M92.7,108.6h-7c-.4,0-.6-.3-.6-.6s.3-.6.6-.6h7c.4,0,.6.3.6.6s-.3.6-.6.6Z"/>
    <path class="cls-2" d="M101.9,108.6h-7c-.4,0-.6-.3-.6-.6s.3-.6.6-.6h7c.4,0,.6.3.6.6s-.3.6-.6.6Z"/>
    <path class="cls-4" d="M125.3,108.6h-20.4c-.4,0-.6-.3-.6-.6s.3-.6.6-.6h20.4c.4,0,.6.3.6.6s-.3.6-.6.6Z"/>
    <path class="cls-2" d="M92.7,115h-7c-.4,0-.6-.3-.6-.6s.3-.6.6-.6h7c.4,0,.6.3.6.6s-.3.6-.6.6Z"/>
    <path class="cls-2" d="M101.9,115h-7c-.4,0-.6-.3-.6-.6s.3-.6.6-.6h7c.4,0,.6.3.6.6s-.3.6-.6.6Z"/>
    <path class="cls-4" d="M125.3,115h-20.4c-.4,0-.6-.3-.6-.6s.3-.6.6-.6h20.4c.4,0,.6.3.6.6s-.3.6-.6.6Z"/>
    <path class="cls-2" d="M125.3,111.8h-7c-.4,0-.6-.3-.6-.6s.3-.6.6-.6h7c.4,0,.6.3.6.6s-.3.6-.6.6Z"/>
    <path class="cls-2" d="M116,111.8h-7c-.4,0-.6-.3-.6-.6s.3-.6.6-.6h7c.4,0,.6.3.6.6s-.3.6-.6.6Z"/>
    <path class="cls-4" d="M106,111.8h-20.4c-.4,0-.6-.3-.6-.6s.3-.6.6-.6h20.4c.4,0,.6.3.6.6s-.3.6-.6.6Z"/>
    <rect class="cls-2" x="74.3" y="63.2" width="2.2" height="2.2"/>
    <rect class="cls-2" x="74.3" y="66.8" width="2.2" height="2.2"/>
    <rect class="cls-2" x="74.3" y="70.4" width="2.2" height="2.2"/>
    <rect class="cls-2" x="74.3" y="74" width="2.2" height="2.2"/>
    <rect class="cls-2" x="74.3" y="77.6" width="2.2" height="2.2"/>
    <rect class="cls-2" x="74.3" y="81.2" width="2.2" height="2.2"/>
    <rect class="cls-2" x="74.3" y="84.8" width="2.2" height="2.2"/>
    <rect class="cls-2" x="74.3" y="88.5" width="2.2" height="2.2"/>
    <rect class="cls-2" x="74.3" y="92.1" width="2.2" height="2.2"/>
    <rect class="cls-2" x="74.3" y="95.7" width="2.2" height="2.2"/>
    <rect class="cls-2" x="74.3" y="99.3" width="2.2" height="2.2"/>
    <rect class="cls-2" x="74.3" y="102.9" width="2.2" height="2.2"/>
    <rect class="cls-2" x="74.3" y="106.5" width="2.2" height="2.2"/>
    <rect class="cls-2" x="74.3" y="110.1" width="2.2" height="2.2"/>
    <rect class="cls-2" x="74.3" y="113.8" width="2.2" height="2.2"/>
    <rect class="cls-2" x="74.3" y="117.4" width="2.2" height="2.2"/>
    <rect class="cls-2" x="74.3" y="121" width="2.2" height="2.2"/>
    <rect class="cls-2" x="74.3" y="124.6" width="2.2" height="2.2"/>
  </g>
  <g id="freepik--speech-bubble--inject-18">
    <path class="cls-2" d="M180.2,23.6c-13.4,0-24.2,10.8-24.2,24.2,0,6.6,2.7,12.9,7.5,17.5l-3.4,6.4,8.5-2.7c11.7,6.5,26.4,2.2,32.9-9.5,6.5-11.7,2.2-26.4-9.5-32.9-3.6-2-7.6-3-11.7-3Z"/>
    <path class="cls-2" d="M180.2,72.2c-4.1,0-8.1-1-11.7-3l-8.4,2.7c0,0-.2,0-.2,0,0,0,0-.2,0-.2l3.4-6.3c-9.7-9.4-9.9-24.8-.5-34.5,9.4-9.7,24.8-9.9,34.5-.5,4.7,4.6,7.4,10.9,7.4,17.5,0,13.5-10.9,24.4-24.4,24.4ZM168.5,68.8s0,0,.1,0c11.6,6.4,26.2,2.2,32.6-9.4,6.4-11.6,2.2-26.2-9.4-32.6-11.6-6.4-26.2-2.2-32.6,9.4-2,3.6-3,7.6-3,11.6,0,6.6,2.7,12.8,7.4,17.3,0,0,0,.2,0,.3l-3.2,6,7.9-2.6h0Z"/>
    <path class="cls-4" d="M179,21.9c-13.4,0-24.2,10.8-24.2,24.2,0,6.6,2.7,12.9,7.5,17.5l-3.4,6.4,8.5-2.7c11.7,6.5,26.4,2.2,32.9-9.5,6.5-11.7,2.2-26.4-9.5-32.9-3.6-2-7.6-3-11.7-3Z"/>
    <path class="cls-2" d="M179,70.5c-4.1,0-8.1-1-11.7-3l-8.4,2.7c0,0-.2,0-.2,0,0,0,0-.2,0-.2l3.4-6.3c-9.7-9.4-9.9-24.8-.5-34.5,9.4-9.7,24.8-9.9,34.5-.5s9.9,24.8.5,34.5c-4.6,4.7-10.9,7.4-17.5,7.4h0ZM167.3,67.1s0,0,.1,0c11.6,6.4,26.2,2.3,32.7-9.4,6.4-11.6,2.3-26.2-9.4-32.7-11.6-6.4-26.2-2.3-32.7,9.4-5.3,9.6-3.5,21.5,4.4,29,0,0,0,.2,0,.2l-3.2,6,7.9-2.6h0Z"/>
    <g id="freepik--Code--inject-18">
      <path class="cls-3" d="M170.9,56.1l-9.3-6.6v-3.5l9.3-6.6v3.5l-6.7,4.8,6.7,4.8v3.5Z"/>
      <path class="cls-3" d="M173.8,57.2l7.1-26.3h3l-7.1,26.3h-3Z"/>
      <path class="cls-3" d="M186.7,56.1v-3.5l6.7-4.9-6.7-4.8v-3.5l9.3,6.6v3.5l-9.3,6.6Z"/>
      <path class="cls-2" d="M172.1,54.6l-9.3-6.6v-3.5l9.3-6.6v3.5l-6.7,4.8,6.7,4.8v3.5Z"/>
      <path class="cls-2" d="M174.9,55.8l7.1-26.3h3l-7.1,26.3h-3Z"/>
      <path class="cls-2" d="M187.9,54.6v-3.5l6.7-4.9-6.7-4.8v-3.5l9.3,6.6v3.5l-9.3,6.6Z"/>
    </g>
  </g>
  <g id="freepik--hand-2--inject-18">
    <path class="cls-2" d="M160.7,176.3l14.7,12.1c.7,1.8,1.7,3.4,2.9,4.9,2,2.6,25.6,12.4,25.6,12.4l4,1.2-44.1-33.1-3.1,2.6Z"/>
    <path class="cls-2" d="M207.9,207.1s0,0,0,0l-4-1.2c-1-.4-23.7-9.9-25.7-12.5-1.2-1.5-2.2-3.1-2.9-4.9l-14.6-12.1c0,0,0-.1,0-.2,0,0,0-.1,0-.2l3.1-2.6c0,0,.2,0,.3,0l44.1,33.1c0,0,.1.2,0,.3,0,0-.1.1-.2,0ZM161,176.3l14.5,11.9s0,0,0,0c.7,1.7,1.7,3.4,2.9,4.8,2,2.5,25.3,12.2,25.6,12.3l2.9.8-43-32.4-2.8,2.3Z"/>
    <path class="cls-4" d="M189.2,166.7s-3.9-4.8-5.7-7.9-4.2-10.2-6.1-14.4-4.7-5.5-8-6.8-4.7-1-4.7-.1,1.3,2.5,1.3,2.5l-5.7,1s-2.3-1.3-3.8-.9-4.2,3.2-4.2,3.2c0,0-2.9-1-4.7-.6s-6.6,2.8-8.6,3.8-4.2,1.2-4.1,2,2.2,2.3,4.1,2,5.1-1.5,7.1-1.5,3.1.4,4.1,1.2,5.2,6.7,5.8,7.4,1.2,3.6,1.2,3.6c0,0-2.6-1.1-4.2-2.5s-3.9-4.9-6.5-5.2-5.5,2-4,3.2,2.9,1.9,3.9,3.2,2.6,5.2,5.4,9.5,8.7,6.8,8.7,6.8l12.4,5.1s3.2-7.6,9.2-9.6,7.7-2.9,7.7-2.9l-.7-2.2Z"/>
    <path class="cls-2" d="M173,181.6s0,0,0,0l-12.4-5.1c0,0-6.1-2.7-8.8-6.9-1.3-2.1-2.6-4.3-3.7-6.5-.5-1-1.1-2-1.7-3-.7-.8-1.5-1.5-2.5-2.1-.5-.3-.9-.7-1.4-1.1-.5-.3-.6-.9-.4-1.4.5-1.2,2.6-2.4,4.5-2.1s3.8,2.2,5.3,3.8c.5.5.9,1,1.3,1.4,1.1.9,2.4,1.7,3.7,2.3-.2-1-.7-2.7-1-3.1-.1-.2-.5-.6-1-1.3-1.4-1.9-4.1-5.6-4.8-6.1-1-.7-2-1.1-4-1.1s-3,.5-4.5.8c-1,.3-1.9.5-2.6.6-1.9.3-4.1-1.2-4.3-2.2-.1-.7.8-1,2-1.4.8-.2,1.5-.5,2.2-.8,1.1-.5,6.7-3.3,8.6-3.8,1.6-.4,4.1.4,4.7.5.5-.5,2.9-2.8,4.2-3.2s3.5.6,3.9.8l5.3-.9c-.4-.5-1.1-1.6-1.1-2.3,0-.3.1-.6.4-.7.7-.5,2.3-.2,4.6.7,3.4,1.3,6.2,2.7,8.1,7,.7,1.7,1.6,3.7,2.4,5.9,1.3,3.3,2.6,6.7,3.7,8.5,1.7,3,5.6,7.8,5.7,7.8,0,0,0,0,0,0l.7,2.2c0,.1,0,.2-.1.3,0,0-1.8.9-7.7,2.9-5.8,2-9,9.4-9,9.5,0,0-.1.1-.2.1ZM146.2,153.8c-1.6,0-3.3,1-3.7,1.9-.2.3,0,.7.2.9.5.4,1,.7,1.4,1,1,.6,1.8,1.3,2.5,2.2.6,1,1.2,2,1.7,3,1.1,2.2,2.3,4.4,3.7,6.4,2.7,4.1,8.6,6.7,8.6,6.8l12.2,5c.6-1.2,3.8-7.7,9.2-9.5,4.9-1.7,7-2.6,7.5-2.8l-.7-2c-.3-.4-4-4.9-5.7-7.9-1.1-1.9-2.4-5.3-3.7-8.6-.8-2.2-1.7-4.2-2.4-5.9-1.8-4.1-4.4-5.4-7.9-6.7-3-1.2-3.9-.9-4.2-.7-.1,0-.2.2-.2.4,0,.7.9,1.9,1.3,2.3,0,0,0,.2,0,.3,0,0,0,0,0,0l-5.7,1s0,0-.1,0c0,0-2.3-1.3-3.6-.8s-4.1,3.1-4.1,3.1c0,0-.1,0-.2,0,0,0-2.9-1-4.5-.6-1.5.4-5.5,2.3-8.5,3.8-.7.4-1.5.6-2.3.9-.9.3-1.7.6-1.7.9.1.7,2.1,2.1,3.8,1.9.7-.1,1.6-.3,2.6-.6,1.5-.4,3.3-.8,4.6-.8,2.1,0,3.2.5,4.2,1.2.7.5,2.9,3.5,4.9,6.2.5.6.8,1.1,1,1.3.6.8,1.2,3.6,1.2,3.7,0,0,0,.2,0,.2,0,0-.1,0-.2,0-1.5-.7-2.9-1.5-4.2-2.6-.4-.4-.9-.9-1.4-1.4-1.4-1.5-3.1-3.5-5-3.7-.1,0-.3,0-.4,0Z"/>
    <path class="cls-2" d="M135,148.7c-.1,0-.2,0-.2-.2s0-.2.2-.2c0,0,1.4-.4,1.8-.5.3-.1.6-.3.8-.5,0,0,.2,0,.3,0,0,0,0,.2,0,.3,0,0,0,0,0,0-.3.2-.6.4-1,.6-.4.1-1.8.5-1.8.5h0Z"/>
    <path class="cls-2" d="M166.2,154.9c0,0-.1,0-.1,0-1-1-1.7-2.2-2.1-3.6-.5-1.7-2.1-2.5-2.9-3h-.2c-1.9-1.1-8.5-4.8-8.6-4.9-.1,0-.1-.2,0-.3,0-.1.2-.1.3,0,0,0,0,0,0,0,0,0,6.7,3.8,8.6,4.8h.2c.8.5,2.6,1.4,3.1,3.3.4,1.3,1,2.4,2,3.4,0,0,0,.2,0,.3,0,0,0,0-.2,0h0Z"/>
    <path class="cls-2" d="M171.6,150.8c0,0-.2,0-.2-.1,0,0-.7-1.5-1.5-2.8-.6-1-1.7-1.3-2.3-1.4-.1,0-.2,0-.3,0-.4-.2-5.9-4.4-7-5.3,0,0-.1-.2,0-.3,0,0,.2-.1.3,0,0,0,0,0,0,0,2.5,1.9,6.6,5.1,6.9,5.2,0,0,.2,0,.3,0,.6.1,1.9.4,2.6,1.6.7,1.3,1.5,2.8,1.5,2.8,0,.1,0,.2,0,.3,0,0,0,0,0,0,0,0,0,0,0,0Z"/>
    <path class="cls-2" d="M173.9,147.4c0,0-.1,0-.2,0-.2-.2-3.8-4.3-4.7-6-.8-1.6-3-1.2-3-1.2-.1,0-.2,0-.2-.2,0-.1,0-.2.2-.2,0,0,2.5-.4,3.4,1.4.8,1.7,4.6,5.9,4.6,5.9,0,0,0,.2,0,.3,0,0-.1,0-.2,0Z"/>
    <path class="cls-2" d="M145.2,158.9c0,0-.2,0-.2-.1,0-.1,0-.2,0-.3,0,0,0,0,0,0,.4-.2.8-.6,1-1,0-.3,0-.6-.2-.8-.8-1.2-2.4-1.2-2.4-1.2-.1,0-.2,0-.2-.2s0-.2.2-.2,1.9,0,2.8,1.4c.3.3.3.8.2,1.2-.2.6-.6,1-1.2,1.3,0,0,0,0,0,0Z"/>
    <path class="cls-3" d="M188.9,164.8s-7.9,2-12.8,7.6-5,10.2-4.5,10.9,9.9,5.8,9.9,5.8c0,0,5.8-11.2,9.9-14s7-3.5,7-3.5c0,0-7.3-4.7-7.6-5.2s-.9-2-1.9-1.6Z"/>
    <path class="cls-2" d="M181.5,189.3s0,0-.1,0c-1.6-.8-9.5-5.2-10-5.9s-.5-5.5,4.5-11.2c4.8-5.4,12.5-7.5,12.9-7.6,1.1-.5,1.8.9,2.1,1.5v.2c.3.4,4.8,3.4,7.6,5.2,0,0,.1.1,0,.2,0,0,0,.2-.2.2,0,0-2.9.8-6.9,3.5s-9.8,13.8-9.8,13.9c0,0,0,0-.1.1h0ZM189.2,165c0,0-.2,0-.3,0h0c0,0-7.9,2.1-12.7,7.5s-4.9,10-4.5,10.7c.3.5,6,3.7,9.6,5.6.8-1.5,6-11.3,9.9-13.9,2-1.4,4.3-2.6,6.6-3.4-1.8-1.2-7-4.5-7.3-5.1v-.2c-.4-.7-.8-1.4-1.3-1.4h0ZM188.9,164.8h0Z"/>
    <path class="cls-3" d="M211,208.6s-8-4.1-9.9-5.1l-14.9-8c-.8-.2-1.7-.5-2.5-.9-.9-.4-2.2-.3-2.8-3.4s.9-9.2,7.4-15.3c6.6-6.1,10.6-5.8,10.6-5.8,0,0,2.8-.3,3.5.3s.9,2.3,1.6,2.6,20.9,6.3,20.9,6.3"/>
    <path class="cls-2" d="M211,208.9s0,0,0,0c0,0-8-4.1-9.9-5.1l-14.8-8c-.9-.2-1.7-.5-2.5-.9-.2,0-.3-.1-.5-.2-.8-.3-1.9-.7-2.4-3.3s.5-8.9,7.5-15.5c6.6-6.1,10.6-5.9,10.8-5.9.3,0,2.8-.3,3.6.3.4.4.7.9.8,1.4.2.5.4,1,.7,1.2.7.3,20.7,6.3,20.9,6.3.1,0,.2.2.2.3,0,.1-.2.2-.3.2-.8-.2-20.2-6-20.9-6.3-.5-.2-.7-.8-1-1.4-.1-.5-.4-.9-.7-1.2-.5-.4-2.6-.3-3.3-.2,0,0-4.1-.2-10.5,5.8-6.9,6.4-7.9,12.5-7.4,15.1.5,2.4,1.3,2.7,2.1,3,.2,0,.4.1.5.2.8.3,1.6.6,2.4.8h0l14.9,8c1.9,1,9.8,5.1,9.9,5.1.1,0,.1.2,0,.3,0,0-.1.1-.2.1Z"/>
    <path class="cls-2" d="M189.3,194.4c0,0-.1,0-.2-.1-2.1-3.7-1.2-8-1.2-8.2,0-.1.1-.2.2-.2,0,0,0,0,0,0,.1,0,.2.1.2.2,0,0,0,0,0,0,0,0-.8,4.3,1.1,7.9,0,.1,0,.2,0,.3,0,0,0,0-.1,0h0Z"/>
    <path class="cls-2" d="M191.7,196.2c0,0-.1,0-.2-.1-1.3-2.1-1.8-3.5-1.6-4.1,0-.1.1-.2.3-.3.1,0,.2,0,.3.1,0,0,0,.2-.1.3,0,0-.4.7,1.5,3.8,0,0,0,.2,0,.3,0,0,0,0,0,0,0,0,0,0-.1,0ZM190.3,192.1h0Z"/>
  </g>
  <g id="freepik--hand-1--inject-18">
    <path class="cls-2" d="M100.5,163.5s-9.6,11.4-12.5,13.7c-1.7,1.4-3.6,2.6-5.5,3.7l-10.4,10.4s.3,1.4-2.6,3.2-8.6,3.7-10.1,4.3-17.3,7.8-17.3,7.8l58.3-43.1Z"/>
    <path class="cls-2" d="M42.2,206.8c0,0-.1,0-.2-.1,0,0,0-.2,0-.3l58.3-43.1c0,0,.2,0,.3,0,0,0,0,.2,0,.3-.4.5-9.6,11.4-12.5,13.7-1.7,1.4-3.6,2.6-5.5,3.8l-10.3,10.3c0,.4-.2,1.7-2.7,3.3-2.4,1.4-6.6,3-8.9,3.9-.5.2-.9.4-1.2.5-1.4.6-17.1,7.7-17.3,7.8,0,0,0,0,0,0ZM99.1,164.7l-55.2,40.8c4.2-1.9,14.3-6.5,15.5-7l1.2-.5c2.3-.8,6.5-2.4,8.8-3.8,2.7-1.6,2.5-2.9,2.5-3,0,0,0-.1,0-.2l10.4-10.4h0c1.9-1.1,3.7-2.4,5.4-3.7,2.2-1.8,8.6-9.2,11.3-12.3Z"/>
    <path class="cls-4" d="M114.4,146c-1,.3-4.7.1-4.7.1,0,0-2.2-1.7-3.3-2.7s-3.9-7-5.3-7.3-7.4,3.1-7.4,3.1c0,0-4.8-2.1-6.1-1.9s-5.1,3.7-5.1,3.7c0,0-5.4-.8-6.5.8s-2.6,6.8-4.2,10-7.5,11.8-7.5,11.8l-.8,1.1s1.2.4,4.9,2.3,9.7,11,9.7,11c0,0,8.3-3.8,12.9-6s8.4-6.8,9.4-8.7,2.7-3.7,4.8-5.4,6.1-2.4,7-3.6-.6-3-.6-3c.6-.3,1.1-.6,1.6-1,.5-.4,2.5-1.5,2.7-2.7s-.6-1.9-1.6-1.6ZM98.9,155.7l1.9-5.8c.8.6,4.3,1.9,4.3,1.9-2.3.6-6.3,3.9-6.3,3.9Z"/>
    <path class="cls-2" d="M78.2,178.3c0,0-.1,0-.2,0,0,0-6-9.1-9.6-10.9s-4.9-2.3-4.9-2.3c-.1,0-.2-.2-.1-.3,0,0,0,0,0,0l.8-1.1c0,0,5.9-8.6,7.4-11.8.8-1.6,1.6-3.7,2.3-5.5.8-2,1.4-3.7,1.9-4.5,1-1.6,5.8-1,6.6-.9.7-.6,4-3.5,5.2-3.7s5.3,1.5,6.1,1.9c.9-.5,6-3.4,7.4-3.1.9.2,2,2,3.6,4.6.7,1.2,1.4,2.4,1.8,2.8,1,.9,2.9,2.4,3.3,2.7.5,0,3.6.2,4.5,0h0c.5-.2,1,0,1.4.3.4.4.6,1,.5,1.6-.2,1.1-1.6,2-2.4,2.5-.2.1-.3.2-.4.3-.5.3-.9.6-1.4.9.4.5,1.3,2,.5,3.1-.5.7-1.7,1.1-3.1,1.7s-2.9,1.1-3.9,2c-2.3,1.9-3.9,3.6-4.8,5.4s-4.7,6.6-9.5,8.8c-4.6,2.1-12.8,5.9-12.9,6,0,0,0,0,0,0ZM63.9,164.7c.5.2,1.9.8,4.7,2.2,3.5,1.8,8.8,9.7,9.7,10.9,1.2-.6,8.5-3.9,12.7-5.9,4.7-2.1,8.3-6.8,9.3-8.6s2.5-3.6,4.9-5.5c1.1-.9,2.6-1.5,4-2,1.3-.5,2.5-1,2.9-1.5.8-1.1-.6-2.7-.6-2.8,0,0,0-.1,0-.2,0,0,0-.1.1-.1.5-.3,1.1-.6,1.6-1,.1,0,.3-.2.5-.3.7-.5,2-1.4,2.2-2.3.1-.4,0-.9-.3-1.2-.3-.2-.7-.3-1-.2h0c-1,.3-4.6.1-4.7.1,0,0,0,0-.1,0,0,0-2.2-1.7-3.3-2.7-.5-.4-1.1-1.5-1.9-2.8-1.1-1.8-2.5-4.2-3.3-4.4-1.1-.2-5.6,2.2-7.2,3.1,0,0-.1,0-.2,0-1.3-.6-5-2.1-5.9-1.9s-4,2.7-5,3.7c0,0-.1,0-.2,0-1.5-.2-5.5-.5-6.2.7-.5.8-1.2,2.6-1.9,4.4s-1.5,3.9-2.3,5.5c-1.6,3.2-7.4,11.7-7.5,11.8l-.7.9ZM114.4,146h0ZM98.9,155.9s0,0-.1,0c0,0-.1-.2,0-.2l1.9-5.9c0,0,0-.1.1-.1,0,0,.1,0,.2,0,.8.6,4.3,1.9,4.3,1.9.1,0,.2,0,.2.2s0,.2-.2.2c-2.2.6-6.1,3.9-6.2,3.9,0,0-.1,0-.2,0ZM100.9,150.2l-1.6,4.9c1.1-.8,3.4-2.6,5.2-3.3-1.2-.5-2.4-1-3.6-1.6Z"/>
    <path class="cls-2" d="M78.7,147.9c-.1,0-.2,0-.2-.2,0-.2-.3-1.8,0-2.4s3.4-3.8,4-4.4c0,0,.2,0,.3,0,0,0,0,.2,0,.3-1.4,1.4-3.7,3.9-3.9,4.3s0,1.8.1,2.2c0,.1,0,.2-.2.2h0Z"/>
    <path class="cls-2" d="M81.9,150s0,0,0,0c-.1,0-.2-.1-.1-.2,0,0,0,0,0,0l.8-2.6s0,0,0-.1l11-7.9c0,0,.2,0,.3,0,0,0,0,0,0,0,0,0,0,.2,0,.3,0,0,0,0,0,0l-10.9,7.8-.8,2.5c0,0-.1.2-.2.2Z"/>
    <path class="cls-2" d="M87.4,151.9h0c-.1,0-.2-.1-.2-.2,0-.4.4-2.6,1-3.1s3.8-1.2,4.4-1.3c1.1-.9,5.9-5.1,7-5.1s1.6.5,3.5,1.4c2.4,1.1,5.6,2.5,6.7,2.4.1,0,.2,0,.2.2,0,.1,0,.2-.2.2-1.2.1-4.3-1.2-7-2.4-1.5-.7-3-1.3-3.4-1.3-.7,0-4.5,3.1-6.7,5,0,0,0,0,0,0-1.5.3-3.9,1-4.2,1.3s-.7,1.8-.8,2.8c0,.1-.1.2-.2.2Z"/>
    <path class="cls-2" d="M113.7,148c-.5,0-1.1-.2-1.5-.6-.2-.3-.3-.5-.2-.7.2-.4.8-.4,1-.4h0c.1,0,.2,0,.2.2,0,.1,0,.2-.2.2,0,0,0,0,0,0-.2,0-.6,0-.6.2,0,0,0,.1.2.3.6.7,2.1.3,2.7.1.1,0,.2,0,.3.1,0,0,0,0,0,0,0,.1,0,.2-.1.3,0,0,0,0,0,0-.5.2-1.1.3-1.7.3Z"/>
    <path class="cls-2" d="M105.1,152c-.1,0-.2,0-.2-.2,0,0,0-.1.1-.2.2,0,3.8-2.2,6.8-.4,0,0,.1.2,0,.3,0,0,0,0,0,0,0,.1-.2.1-.3,0-2.8-1.6-6.3.4-6.3.4,0,0,0,0,0,0Z"/>
    <path class="cls-2" d="M109.8,155.7c-.1,0-.2,0-.2-.2v-.6c-.3-.7-.6-1.5-1-2.2,0,0,0-.1,0-.2,0,0,0,0,.1-.1l2-.7c.1,0,.2,0,.3.1,0,.1,0,.2-.1.3,0,0,0,0,0,0l-1.8.6c.3.7.6,1.3.8,2.1v.6c.1.1,0,.2,0,.2h0Z"/>
    <path class="cls-2" d="M97.1,159.9s0,0,0,0c-.1,0-.2-.2-.1-.3l1.8-4c0-.1.2-.2.3-.1,0,0,0,0,0,0,.1,0,.2.2.1.3l-1.8,4c0,0-.1.1-.2.1Z"/>
    <path class="cls-3" d="M50.9,171.3s6.3-4.1,8.7-5.9,3.5-1.4,4.7-1.8,7.3,1.4,11.3,6.5,3.6,8.8,3.1,9.8-13.2,8.7-13.2,8.7c0,0-1.8-7.3-7.2-11.6s-7.5-5.6-7.5-5.6Z"/>
    <path class="cls-2" d="M65.6,188.8s0,0,0,0c0,0-.1,0-.1-.1,0,0-1.9-7.2-7.1-11.5s-7.4-5.6-7.4-5.6c0,0-.1-.1-.1-.2,0,0,0-.1,0-.2,0,0,6.4-4.2,8.7-5.8,1.1-.9,2.4-1.4,3.8-1.6.3,0,.7-.1,1-.2,1.4-.5,7.6,1.6,11.5,6.5,4.1,5.1,3.7,9,3.2,10s-12,8-13.3,8.8c0,0,0,0-.1,0ZM51.3,171.3c.7.5,3,2,7.2,5.5,4.8,3.9,6.8,10.1,7.2,11.4,4.9-3,12.6-7.8,12.9-8.5.5-1,.9-4.6-3.1-9.6-4-5.1-10.1-6.7-11.1-6.4-.3.1-.7.2-1.1.2-1.3.2-2.6.7-3.6,1.5-2,1.5-7.2,4.9-8.4,5.7Z"/>
    <path class="cls-3" d="M25.5,183.4s11.8-7.2,13.7-8.4,4.2-2.8,4.2-2.8c0,0,.6-3.1,3.6-3.2,3-.1,5.9,1.1,9.8,3.2s8.8,10,9.3,13.1,1.5,4.1.7,6.1-3.9,2.1-4.5,2.1-2.1,1.3-2.1,1.3l-22.1,14.4"/>
    <path class="cls-2" d="M38.2,209.5c0,0-.1,0-.2,0,0,0,0-.2,0-.3,0,0,0,0,0,0l22.1-14.4c.2-.2,1.5-1.3,2.2-1.3s3.6,0,4.3-2c.5-1.3.3-2.1-.1-3.4-.3-.9-.5-1.7-.6-2.6-.5-3.1-5.3-10.8-9.2-13-3.8-2.1-6.7-3.3-9.7-3.2-2.8,0-3.4,3-3.4,3.1,0,0,0,0,0,.1,0,0-2.3,1.6-4.2,2.8s-13.6,8.3-13.8,8.3c0,0-.2,0-.3,0,0,0,0,0,0,0,0,0,0-.2,0-.3,0,0,0,0,0,0,.1,0,11.8-7.2,13.7-8.4,1.8-1.1,3.8-2.5,4.2-2.7.1-.5,1-3.2,3.8-3.3,3.1-.1,6.1,1.2,9.9,3.2,3.9,2.2,8.9,10.1,9.4,13.3.2.9.4,1.7.6,2.6.4,1.3.7,2.3,0,3.7-.9,2.2-4.1,2.3-4.7,2.3s-1.4.8-1.9,1.2l-22.1,14.4s0,0-.1,0Z"/>
    <path class="cls-2" d="M61.1,191.9s0,0-.1,0c0,0-.1-.2,0-.3,0,0,0,0,0,0,1.7-2.6,1-3.3,1-3.3,0,0-.1-.2,0-.3,0,0,.2-.1.3,0,0,0,0,0,0,0,.1,0,1,.9-.9,3.9,0,0-.1,0-.2,0Z"/>
    <path class="cls-2" d="M57.8,195.5c0,0-.1,0-.2,0,0,0,0-.2,0-.3,0,0,0,0,0,0,1.6-1.5,2.6-3.5,2.8-5.6,0-.1,0-.2.2-.2s.2,0,.2.2-.2,3.1-3,5.9c0,0,0,0-.1,0Z"/>
  </g>
</svg>