<?xml version="1.0" encoding="UTF-8"?>
<svg id="_レイヤー_1" data-name="レイヤー 1" xmlns="http://www.w3.org/2000/svg" version="1.1" viewBox="0 0 500 250">
  <defs>
    <style>
      .cls-1, .cls-2, .cls-3, .cls-4 {
        fill: #fff;
      }

      .cls-1, .cls-3, .cls-5, .cls-6 {
        stroke: #222;
      }

      .cls-1, .cls-5 {
        stroke-miterlimit: 10;
        stroke-width: 4px;
      }

      .cls-2, .cls-7 {
        stroke: #263238;
      }

      .cls-2, .cls-7, .cls-3, .cls-6 {
        stroke-linecap: round;
        stroke-linejoin: round;
      }

      .cls-8 {
        fill: #fcf6a9;
      }

      .cls-8, .cls-9, .cls-10, .cls-11, .cls-4 {
        stroke-width: 0px;
      }

      .cls-9, .cls-7, .cls-6 {
        fill: #222;
      }

      .cls-10 {
        fill: #000;
      }

      .cls-7 {
        stroke-width: 1px;
      }

      .cls-5 {
        fill: none;
      }

      .cls-11 {
        fill: #eee000;
      }
    </style>
  </defs>
  <g id="freepik--background-simple--inject-203">
    <path class="cls-8" d="M253.6,37.6s24.6,10,45.2,10,20.5-12.9,42.8-14.7,35.8,25.2,38.7,59.8c2.9,34.6-7.6,82.1-47.5,105.6-39.9,23.5-106.1,39.3-152.5,13.5-46.3-25.8-72.1-75.1-56.3-125.5,15.8-50.5,62.8-63.3,83.3-61,20.5,2.3,46.3,12.3,46.3,12.3Z"/>
  </g>
  <g id="freepik--Graphics--inject-203">
    <rect class="cls-4" x="142.6" y="54" width="12.9" height="12.9"/>
    <rect class="cls-4" x="160.3" y="54" width="12.9" height="12.9"/>
    <rect class="cls-4" x="142.6" y="72.4" width="12.9" height="12.9"/>
    <rect class="cls-4" x="160.3" y="72.4" width="12.9" height="12.9"/>
    <rect class="cls-4" x="142.6" y="90.7" width="12.9" height="12.9"/>
    <rect class="cls-4" x="160.3" y="90.7" width="12.9" height="12.9"/>
    <rect class="cls-4" x="142.6" y="109.1" width="12.9" height="12.9"/>
    <rect class="cls-4" x="160.3" y="109.1" width="12.9" height="12.9"/>
    <rect class="cls-4" x="142.6" y="127.5" width="12.9" height="12.9"/>
    <rect class="cls-4" x="160.3" y="127.5" width="12.9" height="12.9"/>
    <rect class="cls-4" x="142.6" y="145.8" width="12.9" height="12.9"/>
    <rect class="cls-4" x="160.3" y="145.8" width="12.9" height="12.9"/>
    <rect class="cls-4" x="142.6" y="164.2" width="12.9" height="12.9"/>
    <rect class="cls-4" x="160.3" y="164.2" width="12.9" height="12.9"/>
    <path class="cls-4" d="M308.8,62.2v36.6h51.9v-36.6h-51.9ZM358.7,96.7h-47.8v-32.5h47.8v32.5Z"/>
    <rect class="cls-4" x="314" y="69.2" width="7.6" height="7.6"/>
    <rect class="cls-4" x="331" y="69.2" width="7.6" height="7.6"/>
    <rect class="cls-4" x="348" y="69.2" width="7.6" height="7.6"/>
    <rect class="cls-4" x="314" y="83.3" width="7.6" height="7.6"/>
    <rect class="cls-4" x="331" y="83.3" width="7.6" height="7.6"/>
    <rect class="cls-4" x="348" y="83.3" width="7.6" height="7.6"/>
    <path class="cls-4" d="M327,89.7v36.6h51.9v-36.6h-51.9ZM376.9,124.3h-47.8v-32.5h47.8v32.5Z"/>
    <rect class="cls-4" x="332.1" y="96.8" width="7.6" height="7.6"/>
    <rect class="cls-4" x="349.2" y="96.8" width="7.6" height="7.6"/>
    <rect class="cls-4" x="366.2" y="96.8" width="7.6" height="7.6"/>
    <rect class="cls-4" x="332.1" y="110.9" width="7.6" height="7.6"/>
    <rect class="cls-4" x="349.2" y="110.9" width="7.6" height="7.6"/>
    <rect class="cls-4" x="366.2" y="110.9" width="7.6" height="7.6"/>
    <rect class="cls-4" x="236.6" y="191" width="17.4" height="17.4"/>
    <path class="cls-4" d="M263.7,216.8h-19.4v-19.4h19.4v19.4ZM246.3,214.8h15.4v-15.4h-15.4v15.4Z"/>
  </g>
  <g id="freepik--pen-tool-5--inject-203">
    <circle class="cls-11" cx="250.1" cy="113.7" r="51.3"/>
    <path class="cls-3" d="M249.6,122.1v18.1h-15.4l-9.5-21.8,21.5-50.5h3.3v44.6c-2.6.3-4.5,2.8-4.1,5.4.3,2.2,2,3.9,4.1,4.1h0ZM254.8,67.9h-3.3v44.7c2.6.6,4.2,3.2,3.6,5.8-.4,1.8-1.8,3.2-3.6,3.6v18.2h15.4l9.5-21.8-21.5-50.5Z"/>
    <rect class="cls-6" x="234.5" y="142.6" width="32.3" height="10.9"/>
    <path class="cls-6" d="M255.2,117.3c0,2.2-1.5,4.2-3.7,4.7v18.2h15.4l9.5-21.8-6.2-14.6c-5,3.9-10.3,7.6-15.7,10.8.5.8.8,1.7.8,2.7Z"/>
    <path class="cls-6" d="M234.2,140.2h15.4v-18.1c-1.6-.3-2.9-1.3-3.6-2.7-6.4,3.4-12.3,6.1-17.2,8.2l5.5,12.7Z"/>
    <path class="cls-5" d="M323.7,113.7c0-40.6-32.9-73.6-73.6-73.6s-73.6,32.9-73.6,73.6"/>
    <line class="cls-5" x1="204.9" y1="40.1" x2="295.3" y2="40.1"/>
    <circle class="cls-1" cx="250.1" cy="40.1" r="4.9" transform="translate(170.5 280.5) rotate(-80.8)"/>
    <circle class="cls-1" cx="205.5" cy="40.1" r="4.9"/>
    <circle class="cls-1" cx="294.6" cy="40.1" r="4.9"/>
  </g>
  <g id="freepik--pen-tool-4--inject-203">
    <circle class="cls-11" cx="329.6" cy="127.8" r="22.3" transform="translate(6.2 270.5) rotate(-45)"/>
    <path class="cls-10" d="M325.9,145.2c-.5,0-1-.4-1-.9l-2.1-30.2c0-.6.4-1.1,1-1.1.3,0,.6.1.8.4l19.1,22.7c.4.4.5,1,0,1.4-.4.4-1,.5-1.4,0,0,0-.1-.1-.2-.2l-17.1-20.3,1.9,27.1c0,.6-.4,1-.9,1.1h-.1Z"/>
  </g>
  <g id="freepik--pen-tool-3--inject-203">
    <circle class="cls-11" cx="293.9" cy="185" r="22.3" transform="translate(-32.9 302.3) rotate(-51.9)"/>
    <path class="cls-2" d="M306.5,184.7l6.4-6.4,5.4,5.4-4.3,11-25.3,10.2-1.2-1.2,15.7-15.7c1.1.8,2.6.6,3.3-.5.6-.8.6-2,0-2.8h0ZM285.6,201.9l1.2,1.2,15.7-15.7c-.7-1.1-.3-2.6.8-3.3.8-.5,1.7-.5,2.5,0l6.4-6.4-5.4-5.4-11,4.3-10.2,25.3Z"/>
    <rect class="cls-7" x="312.6" y="167.2" width="5.4" height="16.1" transform="translate(-31.6 274.3) rotate(-45)"/>
    <path class="cls-9" d="M284.6,206.4c0,0-.2,0-.3,0,0,0-9.5-3-8.5-11.9.5-4.1,2.6-6.6,4.7-8.9,2.2-2.5,4.3-4.9,4.4-9.3.3-8.2-6.4-10-6.7-10.1-.5-.2-.8-.8-.6-1.3.2-.5.6-.8,1.1-.7,0,0,8.5,2.3,8.2,12.1-.2,5.2-2.6,8-4.9,10.6-1.9,2.2-3.8,4.3-4.2,7.8-.8,7.2,6.8,9.6,7.1,9.7.5.2.8.7.7,1.3-.1.4-.5.7-1,.7h0Z"/>
  </g>
  <g id="freepik--pen-tool-2--inject-203">
    <circle class="cls-11" cx="204.7" cy="185.9" r="22.3" transform="translate(-36.8 51.2) rotate(-13.1)"/>
    <path class="cls-2" d="M215.1,185.1l6.4-6.4,5.4,5.4-4.3,11-25.3,10.2-1.2-1.2,15.7-15.7c1.1.8,2.6.6,3.3-.5.6-.8.6-2,0-2.8h0ZM194.2,202.3l1.2,1.2,15.7-15.7c-.7-1.1-.3-2.6.8-3.3.8-.5,1.7-.5,2.5,0l6.4-6.4-5.4-5.4-11,4.3-10.2,25.3Z"/>
    <rect class="cls-7" x="221.2" y="167.6" width="5.4" height="16.1" transform="translate(-58.6 209.7) rotate(-45)"/>
    <rect class="cls-9" x="186.3" y="175.1" width="2.7" height="19.7"/>
    <rect class="cls-9" x="177.9" y="183.6" width="19.7" height="2.7"/>
  </g>
  <g id="freepik--pen-tool-1--inject-203">
    <circle class="cls-11" cx="167" cy="126.4" r="22.3" transform="translate(-16.6 227.2) rotate(-65.9)"/>
    <path class="cls-2" d="M176.4,123.7l6.4-6.4,5.4,5.4-4.3,11-25.3,10.2-1.2-1.2,15.7-15.7c1.1.8,2.6.5,3.3-.5.6-.8.6-2,0-2.8h0ZM155.5,140.9l1.2,1.1,15.7-15.7c-.7-1.1-.4-2.6.8-3.3.8-.5,1.8-.5,2.5,0l6.4-6.4-5.4-5.4-11,4.3-10.2,25.3Z"/>
    <rect class="cls-7" x="182.5" y="106.2" width="5.4" height="16.1" transform="translate(-26.5 164.4) rotate(-45)"/>
    <rect class="cls-9" x="139.2" y="122.2" width="19.7" height="2.7"/>
  </g>
</svg>