<?xml version="1.0" encoding="UTF-8"?>
<svg id="_レイヤー_1" data-name="レイヤー 1" xmlns="http://www.w3.org/2000/svg" xmlns:xlink="http://www.w3.org/1999/xlink" version="1.1" viewBox="0 0 250 250">
  <defs>
    <style>
      .cls-1 {
        clip-path: url(#clippath);
      }

      .cls-2, .cls-3, .cls-4, .cls-5 {
        stroke-width: 0px;
      }

      .cls-2, .cls-6, .cls-7, .cls-8, .cls-9 {
        fill: none;
      }

      .cls-3 {
        fill: #fcf6a9;
      }

      .cls-4, .cls-10 {
        fill: #222;
      }

      .cls-6 {
        stroke-miterlimit: 10;
      }

      .cls-6, .cls-11, .cls-12, .cls-7, .cls-8, .cls-13, .cls-10 {
        stroke: #222;
      }

      .cls-6, .cls-11, .cls-12, .cls-7, .cls-13, .cls-10, .cls-9 {
        stroke-width: 1.3px;
      }

      .cls-11 {
        fill: #263238;
      }

      .cls-11, .cls-12, .cls-7, .cls-8, .cls-13, .cls-10, .cls-9 {
        stroke-linecap: round;
        stroke-linejoin: round;
      }

      .cls-12 {
        fill: #fff;
      }

      .cls-8 {
        stroke-width: 2.5px;
      }

      .cls-5, .cls-13 {
        fill: #eee000;
      }

      .cls-9 {
        stroke: #7d7d7d;
      }
    </style>
    <clipPath id="clippath">
      <rect class="cls-2" x="39.6" y="72.8" width="45" height="116.6"/>
    </clipPath>
  </defs>
  <g id="freepik--background-simple--inject-128">
    <path class="cls-3" d="M221.6,123.1c1-13.5-2.1-27.5-6.3-40.1-6.2-18.6-18.3-37.7-38.7-42.1-11.8-2.5-23.7.2-33.8,6.5-9.7,6.1-17.2,14-29.2,15.6-12,1.6-24.4.9-36.5.9-31.1,0-56.4,32.7-50.1,66.8,6.3,34.1,36.1,57.7,61.4,57.7s41.4-13.6,63-17.3c10.7-1.8,21.4.3,32-2.4,12.3-3.2,23.9-10.7,30.7-21.6,4.6-7.4,6.9-15.6,7.5-24.1Z"/>
  </g>
  <g id="freepik--Pictures--inject-128">
    <rect class="cls-6" x="92.2" y="73" width="33.2" height="46"/>
    <rect class="cls-6" x="96.2" y="78.6" width="25" height="34.7"/>
    <rect class="cls-6" x="163.1" y="96.7" width="23.1" height="32.1"/>
    <rect class="cls-6" x="165.9" y="100.7" width="17.4" height="24.2"/>
  </g>
  <g id="freepik--Plants--inject-128">
    <path class="cls-4" d="M215.9,157.4s.5-1.6.5-1.7c.2-1.2-.2-3.7-1.5-4.3-.8-.4-1.8,0-2.2.8,0,0,0,.1,0,.2-.3.9,0,2,.6,2.8.6.9,2.6,2.2,2.6,2.2Z"/>
    <path class="cls-4" d="M191.4,156.9c1,.5,3.4.4,3.4.4s-.5-1.6-.6-1.7c-.5-1.1-2.2-2.9-3.6-2.8-.9.1-1.5,1-1.3,1.9,0,0,0,.1,0,.2.2.9,1.2,1.7,2,2Z"/>
    <path class="cls-4" d="M195.2,152h0c0,.4-.1.8-.2,1.3,0,.8-.2,1.8-.2,2.8,0,1.1,0,2.3,0,3.4,0,1.3.3,2.5.6,3.7h0c-.2-.3-.9-1.2-.9-1.3-.8-.9-2.9-2.3-4.2-1.7-.8.4-1.2,1.3-.8,2.2,0,0,0,.1,0,.2.5.8,1.6,1.3,2.5,1.4,1,.1,3.2-.5,3.4-.5.4,1.2.8,2.4,1.3,3.6.3.7.6,1.4.9,2-.2-.3-.4-.5-.4-.6-.8-.9-2.9-2.3-4.2-1.7-.8.4-1.2,1.3-.8,2.2,0,0,0,.1,0,.2.5.9,1.6,1.3,2.5,1.4.9.1,2.8-.4,3.3-.5.1.3.3.5.4.8.6,1.2,1.3,2.5,1.8,3.7.2.5.4.9.6,1.3-.2-.3-.3-.5-.4-.5-.8-.9-2.9-2.3-4.2-1.7-.8.4-1.2,1.3-.8,2.2,0,0,0,.1,0,.2.5.9,1.6,1.3,2.5,1.4.9.1,2.6-.3,3.2-.5.2.5.4.9.5,1.4,0,.3.2.6.3.9s.2.6.3.9c.1.6.3,1.2.4,1.8,0,.4.2.8.2,1.2-.2-.5-.6-1.3-.6-1.4-.7-1-2.5-2.7-3.9-2.3-.9.2-1.4,1.2-1.1,2,0,0,0,.1,0,.2.3.9,1.4,1.5,2.3,1.8,1,.3,3.1,0,3.4,0,.1.6.2,1.3.4,1.9.3,1.9.5,3.4.7,4.6h.9c-.2-1.2-.4-2.8-.8-4.8-.1-.6-.3-1.4-.5-2.1.6-.3,1.3-.6,1.9-.9.7.8,2.5,1.7,2.7,1.8-.2.6-.5,1.2-.7,1.7-.7,1.7-1.4,3.1-2,4.2h1.1c.5-1,1.1-2.3,1.7-3.9.3-.6.5-1.3.8-2,.3,0,2.4.5,3.4.3.9-.2,2-.7,2.4-1.6.4-.8,0-1.8-.7-2.2,0,0-.1,0-.2,0-1.3-.5-3.3,1-4,2,0,0-.5.7-.7,1.2.1-.3.2-.6.3-.8.2-.6.4-1.1.6-1.8,0-.3.2-.6.3-.9s.2-.6.2-1c.2-.7.3-1.5.5-2.3.5.2,2.3.8,3.2.7s2.1-.4,2.6-1.2c.5-.7.3-1.8-.4-2.3,0,0,0,0-.1,0-1.2-.6-3.4.5-4.3,1.4,0,0-.6.7-.9,1.1,0-.5.1-.9.2-1.4.2-1.4.3-2.8.5-4.1,0-.4,0-.8.1-1.3.2,0,2.3.8,3.3.8.9,0,2.1-.4,2.6-1.2.5-.7.3-1.8-.4-2.3,0,0-.1,0-.2,0-1.2-.6-3.4.5-4.3,1.4,0,0-.9,1.1-1.1,1.3,0-.9.2-1.9.3-2.8.2-1.2.4-2.4.8-3.6,0,0,2.3.9,3.3.8.9,0,2.1-.4,2.6-1.2.5-.7.3-1.8-.4-2.3,0,0,0,0-.1,0-1.2-.6-3.4.5-4.3,1.4,0,0-.7.8-.9,1.2h0c.4-1.2.9-2.4,1.4-3.5.3-.6.6-1.2,1-1.7.4.2,2.2,1.1,3.2,1.1,1,0,2.1-.2,2.7-.9.6-.7.5-1.7-.1-2.3,0,0,0,0-.1-.1-1.1-.8-3.5.2-4.4.9,0,0-.5.5-.9.9.2-.2.3-.5.5-.7.6-.9,1.2-1.6,1.7-2.3.3-.4.6-.7.8-1,.5,0,2.4,0,3.3-.5.9-.4,1.8-1.1,2-2.1.2-.9-.3-1.8-1.2-2,0,0-.1,0-.2,0-1.4-.1-3,1.7-3.5,2.9,0,0-.5,1.7-.5,1.7h0c-.3.3-.5.6-.8,1-.5.7-1.1,1.4-1.7,2.3-.7.9-1.3,1.9-1.8,2.9-.6,1.1-1.1,2.3-1.5,3.5h0c0-.4,0-1.5,0-1.6-.2-1.2-1.2-3.5-2.5-3.7-.9-.1-1.7.5-1.9,1.4,0,0,0,.1,0,.2,0,1,.6,1.9,1.3,2.5.8.7,2.9,1.4,3.1,1.4-.4,1.2-.7,2.5-.9,3.7-.1.7-.2,1.5-.3,2.2v-.7c-.2-1.2-1.2-3.5-2.5-3.7-.9-.1-1.7.5-1.9,1.4,0,0,0,.1,0,.2,0,1,.6,1.9,1.3,2.5s2.5,1.2,3,1.4v.9c-.3,1.4-.4,2.8-.6,4.1,0,.5-.2.9-.2,1.4v-.6c-.2-1.2-1.2-3.5-2.5-3.7-.9-.1-1.7.5-1.9,1.3,0,0,0,.1,0,.2,0,1,.6,1.9,1.3,2.5s2.3,1.2,2.9,1.4c0,.5-.2,1-.3,1.4,0,.3-.2.6-.3.9s-.2.6-.3.9c-.2.6-.4,1.2-.6,1.7-.1.4-.3.7-.5,1.1,0-.5.2-1.4.2-1.5,0-1.1-.3-2.1-.8-3.1,0-.1,0-.2,0-.4-.1-.9-.9-1.5-1.8-1.4,0,0-.1,0-.2,0-1.3.4-2.2,2.7-2.3,3.9,0,0,0,.9,0,1.4,0-.3-.1-.6-.2-.9-.1-.6-.3-1.2-.5-1.8,0-.3-.2-.6-.3-.9s-.2-.6-.3-.9c-.3-.7-.6-1.4-.9-2.2.5-.1,2.3-.6,3.1-1.1s1.5-1.5,1.5-2.4c0-.9-.7-1.6-1.6-1.7,0,0-.1,0-.2,0-1.4.1-2.6,2.3-2.8,3.5,0,0,0,1-.1,1.4-.2-.4-.4-.9-.6-1.3-.6-1.2-1.3-2.5-1.9-3.7l-.6-1.1c.2,0,2.4-.5,3.2-1.2.7-.6,1.5-1.5,1.5-2.4,0-.9-.7-1.7-1.6-1.7,0,0-.1,0-.2,0-1.4.1-2.6,2.3-2.8,3.5,0,0-.1,1.4-.1,1.7-.4-.8-.9-1.7-1.2-2.5-.5-1.1-1-2.3-1.4-3.5,0,0,2.4-.5,3.2-1.2.7-.6,1.5-1.5,1.5-2.4,0-.9-.7-1.6-1.6-1.7,0,0-.1,0-.2,0-1.4.1-2.6,2.3-2.8,3.5,0,0-.1,1.1-.1,1.5h0c-.3-1.2-.6-2.4-.7-3.7,0-.7-.1-1.4-.1-2,.5,0,2.4-.3,3.2-.8s1.7-1.3,1.8-2.3c.1-.9-.5-1.7-1.4-1.8,0,0-.1,0-.2,0-1.4,0-2.8,2-3.2,3.2,0,0-.2.7-.3,1.2v-.9c0-1,0-2,.1-2.8,0-.5,0-.9.1-1.3.4-.3,2-1.4,2.5-2.2s.9-1.9.5-2.8c-.3-.8-1.2-1.3-2.1-1,0,0-.1,0-.2,0-1.2.6-1.5,3.1-1.4,4.3,0,.1.5,1.7.5,1.7Z"/>
  </g>
  <g id="freepik--Books--inject-128">
    <polygon class="cls-12" points="132.1 191.3 112.8 191.3 98.9 198.8 119.9 198.8 132.1 191.3"/>
    <line class="cls-7" x1="112.6" y1="193.1" x2="127.2" y2="193.1"/>
    <line class="cls-7" x1="110.4" y1="194.3" x2="124.9" y2="194.3"/>
    <line class="cls-7" x1="108.2" y1="195.4" x2="122.7" y2="195.4"/>
    <line class="cls-7" x1="105.9" y1="196.6" x2="120.5" y2="196.6"/>
    <polygon class="cls-12" points="98.9 198.8 98.9 200.1 120.4 200.1 119.9 198.8 98.9 198.8"/>
    <polygon class="cls-12" points="120.4 200.1 132.6 192.4 132.1 191.3 119.9 198.8 120.4 200.1"/>
    <path class="cls-7" d="M99.3,198.4c0-.1,0-.3,0-.4,0-.8.7-1.5,1.5-1.5.4,0,.8.2,1.1.4"/>
    <path class="cls-7" d="M101.2,197.5c0-.1,0-.3,0-.4,0-.8.7-1.5,1.5-1.5.4,0,.8.2,1.1.4"/>
    <path class="cls-7" d="M103,196.6c0-.1,0-.3,0-.4,0-.8.7-1.5,1.5-1.5.4,0,.8.2,1,.4"/>
    <path class="cls-7" d="M104.7,195.6c0-.1,0-.3,0-.4,0-.8.7-1.5,1.5-1.5.4,0,.8.2,1,.4"/>
    <path class="cls-7" d="M106.7,194.5c0-.1,0-.3,0-.4,0-.8.7-1.5,1.5-1.5.4,0,.8.2,1.1.4"/>
    <path class="cls-7" d="M108.7,193.4c0-.1,0-.3,0-.4,0-.8.7-1.5,1.5-1.5.4,0,.8.2,1.1.4"/>
    <path class="cls-7" d="M109.8,192.7c0-.1,0-.3,0-.4,0-.8.7-1.5,1.5-1.5.4,0,.8.2,1.1.4"/>
    <path class="cls-12" d="M134.7,195.8s1.5,3.2-1,4.2l14.4,9.3s1.4.8,3.2-.8c1.8-1.6.3-5.1-.5-5.6-.8-.4-16.1-7-16.1-7Z"/>
    <path class="cls-10" d="M152.7,188.4l-18.7,7.2,14.9,8.1c.8.5,1.4,1.2,1.9,2.1,0,.2.2.4.2.6.3,1.2-.5,2.3-1.7,2.6-.5.1-1.1,0-1.6-.3l-14.2-8.8s-1.3,0,.2,1.1c1.3.9,10.9,6.8,14,8.6.6.4,1.4.4,2.1.2l20.4-8.2c.6-.4,1-1,1.1-1.7.2-1.4-.5-2.9-1.9-3.5l-16.8-8Z"/>
  </g>
  <g id="freepik--Bookshelf--inject-128">
    <g class="cls-1">
      <g>
        <polygon class="cls-5" points="49.5 97.4 46.7 89.5 49.5 92.8 47.3 81 50.7 89.5 51.8 72.9 53.8 88.7 56 85.5 56 89.5 58.6 84.1 57.2 93.4 59.5 91.8 55.8 97 49.5 97.4"/>
        <polygon class="cls-10" points="58.2 95.4 47.9 95.4 49.7 116.1 56.3 116.1 58.2 95.4"/>
        <rect class="cls-12" x="42.4" y="115.9" width="35" height="74.1"/>
        <rect class="cls-12" x="59.9" y="115.9" width="19.4" height="74.1"/>
        <rect class="cls-10" x="59.9" y="115.9" width="17.2" height="74.1"/>
        <rect class="cls-13" x="59.9" y="172.7" width="15.3" height="15.2"/>
        <rect class="cls-12" x="59.9" y="173.6" width="15.3" height="1.9"/>
        <rect class="cls-12" x="59.9" y="184.7" width="15.3" height="1.9"/>
        <line class="cls-7" x1="62.8" y1="173" x2="62.8" y2="192.2"/>
        <line class="cls-7" x1="68.2" y1="173" x2="68.2" y2="192.2"/>
        <line class="cls-7" x1="72.8" y1="173" x2="72.8" y2="192.2"/>
        <rect class="cls-13" x="59.9" y="118.6" width="15.3" height="22.3"/>
        <rect class="cls-12" x="59.9" y="119.6" width="15.3" height="2.2"/>
        <rect class="cls-12" x="59.9" y="133.9" width="15.3" height="2.2"/>
        <line class="cls-7" x1="62.8" y1="119" x2="62.8" y2="140.8"/>
        <line class="cls-7" x1="68.2" y1="119" x2="68.2" y2="140.8"/>
        <line class="cls-7" x1="72.8" y1="119" x2="72.8" y2="140.8"/>
        <rect class="cls-13" x="59.9" y="145.5" width="15.3" height="22.3"/>
        <rect class="cls-12" x="59.9" y="146.4" width="15.3" height="2.2"/>
        <rect class="cls-12" x="59.9" y="160.7" width="15.3" height="2.2"/>
        <line class="cls-7" x1="62.8" y1="145.9" x2="62.8" y2="167.7"/>
        <line class="cls-7" x1="68.2" y1="145.9" x2="68.2" y2="167.7"/>
        <line class="cls-7" x1="72.8" y1="145.9" x2="72.8" y2="167.7"/>
        <rect class="cls-12" x="59.9" y="140.6" width="17.5" height="2.5"/>
        <rect class="cls-12" x="59.9" y="167.7" width="17.5" height="2.5"/>
        <line class="cls-7" x1="77.4" y1="115.9" x2="77.4" y2="190"/>
        <polygon class="cls-12" points="57.5 115.9 57.5 190 59.9 190 59.9 118.6 77.1 118.6 77.1 115.8 57.5 115.9"/>
        <line class="cls-7" x1="59.9" y1="118.6" x2="59.9" y2="115.9"/>
      </g>
    </g>
  </g>
  <g id="freepik--Desk--inject-128">
    <line class="cls-7" x1="228" y1="189.5" x2="28.1" y2="189.5"/>
  </g>
  <g id="freepik--character-1--inject-128">
    <path class="cls-12" d="M131.7,159.4h-31.3c-3.9-.3-4.1,1.2-4.1,1.2l-5.9,28.9h38.6c.2-1.4,3.2-22.9,3.8-26.3.6-3.6-1.2-3.9-1.2-3.9Z"/>
    <path class="cls-10" d="M131.7,159.4h0c-.2,0-1.1.2-1.6,2.5s-3.4,22.2-4.3,27.7h3.3c.2-1.4,3.2-22.9,3.8-26.3.6-3.6-1.2-3.9-1.2-3.9Z"/>
    <path class="cls-13" d="M81,189.6h36.4c-.2-5.7-.9-26.2-1.4-28.7-.6-3-2.2-3.4-4.4-3.6s-3.8.4-8.2.4-8.6-.5-8.6-.5c0,0-1.7-.2-2.6-.2s-1.6.6-2.8.6c-2.2,0-4.5,0-6.7-.3-2.3-.3-5.1.9-5.6,3.3-.4,2-1.4,23.6-1.6,29.1h5.5v-.2Z"/>
    <path class="cls-7" d="M91.5,160.4s1.3,6.2,4.9,7.7"/>
    <path class="cls-7" d="M88.2,159.3s-1.8,3.9.8,9.5"/>
    <path class="cls-7" d="M109.5,167.3s-4.1,10.5-13.1,15.4"/>
    <path class="cls-12" d="M92.6,153.6s.3,4.4.8,6.8,3.1,4.1,6.1,3.1c3-.9,4.2-3,4.4-4.4s.2-6.7.2-6.7c0,0-4.7,3.1-11.4,1.1Z"/>
    <path class="cls-10" d="M108.5,128.8s.4-.6-.7-2.3-3.8-2.8-3.8-2.8l1.7,2.3s-4.8-2.5-6.8-2.5-6.9.7-6.9.7l2.4.6s-5.9,1.8-6.6,2.7-4.1,3.7-3.4,3.7,4.2-.6,4.2-.6c0,0-3.5,3.4-3.5,4.8s3.1,8.2,3.1,8.2c0,0,2.1,3.8,2.8,2,.7-1.8-.4-6.2-.3-6.6s8.3-1.1,10.1-1.1,1.6,4.4,2.3,5.1c.7.7,4.1,2,4.7,2s1.6-.4,1.6-1c0-1.2.3-2.4.7-3.5.6-1.4,1.3-2.7,1.4-4.4.1-1.7-.8-5.5-.8-5.5h1.3s-1.3-2.1-3.4-1.5Z"/>
    <path class="cls-12" d="M88.9,142.5s-.7-2.7-2-.8c-.8,1.2,1.3,5.9,2.4,6.2s-.4-5.4-.4-5.4Z"/>
    <path class="cls-12" d="M88.9,137.1s0,10.3.7,12.8,3.5,6.3,7.6,6.3,6.9-2.1,8-3.7c1.1-1.5,1.7-4.6,1.7-4.6,0,0,1.3,1,2.8-.8,1.5-1.8,1.8-5.1,1.1-5.5-1.1-.7-2.4.1-3,.7l-1.1,1.1s-1.8-1.3-1.8-3,.3-4.8.3-4.8l-1.3.8v-1.1c.1,0-.1.3-1.8.3s-5.8.3-5.8.3l2.1-2.8s-4.1,1.8-5.5,2.7-4.1,1.3-4.1,1.3Z"/>
    <path class="cls-4" d="M94.2,143.3c0,.8-.3,1.4-.7,1.4s-.7-.6-.7-1.4.3-1.4.7-1.4.7.6.7,1.4Z"/>
    <path class="cls-4" d="M100.8,143.5c0,.8-.3,1.4-.7,1.4s-.7-.6-.7-1.4.3-1.4.7-1.4.7.6.7,1.4Z"/>
    <path class="cls-7" d="M95.4,146.6s0,2,2.5,1.5"/>
    <path class="cls-7" d="M94.6,150.1s2,1.2,4.7,0"/>
    <path class="cls-7" d="M91.1,140.6c.5-.9,1.6-1.3,2.5-1"/>
    <path class="cls-7" d="M98.8,139.6s2.3-.7,3.1.9"/>
    <path class="cls-13" d="M77.4,159.7l-6.3,17.2s-4,2.9-4.4,3.7c-1.1,1.9.3,4.6,1.6,5.9,2,2.2,6.2,2.5,8.7.9,1.6-1.1,2.6-3.2,3.2-5l.7-15.1"/>
    <path class="cls-7" d="M68.5,178.4s3.2-2.6,8.5.4"/>
    <path class="cls-12" d="M71.2,179.7l4.2.9s4.1-1.7,4.4.2c.4,1.8-2.4,2.4-3.1,2.4s-2.6-.2-3.3,0-1.7,1.1-3.3,1.3c0,0-4.6,1.8-6.4.7-1.8-1.1-.4-5,2-6.3,2.4-1.3,5.5.8,5.5.8Z"/>
    <path class="cls-12" d="M61.8,181.1s-1.8-1.1-2.4.3c-.6,1.4-2.2,4.5-1.2,4.3s3.6-4.5,3.6-4.5Z"/>
    <path class="cls-12" d="M64.6,179.2s-3-.3-3.3.6c-.6,1.6-1.5,6.1-.2,6.4,1.3.4,1.7-2.4,2.4-4.1.4-1,.8-1.9,1.1-2.9Z"/>
    <path class="cls-12" d="M66.3,177.3s-2.2-.2-2.9,1.3c-.7,1.5-1.2,7.4-.5,7.4s.5.6,1.6-1.8c.5-1.2,1.4-5,1.4-5l.4-1.8Z"/>
    <path class="cls-12" d="M71.8,180.2s-2.9-2.5-3.7-2.9-1.3-.6-2.2.2-1,3.5-1.7,5.3-1.4,3.5-.5,3.5,1.6-.4,2.3-1.4,2-4.3,2-4.3"/>
    <path class="cls-12" d="M67.5,182.3s1,.5,2.5-.5"/>
    <path class="cls-13" d="M110.9,157.1s3.5-.7,5.2,1,6.6,14.6,8.3,18.9c1.7,4.4,3.4,7.5,3,9.6s-4.1,3-6.7,3.1c-3,.2-5-1.7-5-2.3s-1.1-2,.9-6.8l-1.4-10.3"/>
    <path class="cls-12" d="M120.1,181.4s-3-1.3-3.5-1.3c-.4.5-.7,1.1-.7,1.8,0,1,0,5,.6,5.2s2-.7,3-2.1,1.2-3.4.6-3.7Z"/>
    <path class="cls-12" d="M117.9,175.8l-1.7,13.6.6,2.2,1-1.9,1.8-13.7c0-.5-.3-.9-.7-.9h0c-.5,0-.9.3-.9.7,0,0,0,0,0,0Z"/>
    <polygon class="cls-12" points="117.8 189.7 116.2 189.5 116.8 191.6 117.8 189.7"/>
    <path class="cls-12" d="M118.8,175.1c-.5,0-.9.3-.9.7,0,0,0,0,0,0l-.2,1.8,1.6.3.2-1.9c0-.5-.3-.9-.7-.9Z"/>
    <path class="cls-12" d="M116.6,180.1c-.5,0-1.5,1.3-2.1,2-.6.7-.4,2.2,0,3.4s.7,3.4,1.3,3.5,1.1-.5,1.1-1.6-.2-3.4-.2-3.4"/>
    <path class="cls-12" d="M123.2,187.1s.7,1.9,0,2.9-3.4.6-3.9.2,2.2-1.1,3.9-3.1Z"/>
    <path class="cls-12" d="M122.9,185.3c.5.6.7,1.4.4,2.2-.5,1.3-2.3,2.4-3.6,2.6s-2.4-.5-1.8-.9,3.5-2.4,4.9-3.8Z"/>
    <path class="cls-12" d="M121.7,183.1s1.2,1.1,1.2,2.2-2.9,3.7-4.2,4.1c-1.4.5-2.1,0-1.7-.9s4.3-5.3,4.3-5.3c0,0-.2-.3.4,0Z"/>
    <path class="cls-12" d="M118.4,183.1s-2.2,3.7-2.5,4.9.8,1.2,1.5.7,4-4.4,4.3-5.6-.3-2.5-1.6-2.3c-1.3.2-1.8,2.3-1.8,2.3Z"/>
  </g>
  <g id="freepik--character-2--inject-128">
    <path class="cls-12" d="M196.6,189.5c.6-4.7,3.2-23.4,3.7-26.5.6-3.6-1.2-3.9-1.2-3.9h-31.2c-3.9-.3-4.1,1.2-4.1,1.2l-5.7,29.2h38.5Z"/>
    <path class="cls-10" d="M196.6,189.5c.6-4.7,3.2-23.4,3.7-26.5.6-3.6-1.2-3.9-1.2-3.9h0c-.2,0-1.1.2-1.6,2.5-.5,2.2-3.2,21.2-4.2,27.9h3.3Z"/>
    <path class="cls-13" d="M132.9,189.5c2.4-2.6,10-10.9,11.9-12.8,2.3-2.3,4-4.5,4-4.5l.7,17.3h36.2c0-.2-2.1-13.2-3.8-22.2-1.7-9-3.5-17.6-7.4-23.1-3.9-5.4-15.6-11-15.6-11l-10,7.8s-2.9,3.5-3.8,6.9c-.9,3.4-3,12-4,15.3-.9,3.1-12,22.9-13.9,26.2h5.7Z"/>
    <path class="cls-7" d="M173.8,159.7c1.9,9.2,3.6,17.7,5.4,26.7"/>
    <path class="cls-7" d="M165.7,162.4c1.5,7.7,2.6,16.2,4.1,24.1"/>
    <path class="cls-7" d="M157,145.8c1.2,13.5,2.4,27.1,3.9,40.6"/>
    <path class="cls-7" d="M148.9,149.5c1.4,12.7,2.5,24.6,4.1,37"/>
    <path class="cls-7" d="M146,152.2s-3.7,16.3-5.6,20.7"/>
    <path class="cls-7" d="M146.9,164.6s-2.2,9-3.9,12.4"/>
    <line class="cls-7" x1="159.1" y1="138" x2="164.8" y2="141.9"/>
    <line class="cls-7" x1="148.8" y1="172.2" x2="147" y2="157.5"/>
    <path class="cls-12" d="M132.9,189.5c2.3-2.5,9.2-10.1,11.5-12.4-1.9-1.3-5.2-3.4-7.5-4.9-3.3,6.5-8.4,15.2-9.6,17.3h5.7Z"/>
    <path class="cls-12" d="M135.3,175.1s6.3,4.6,6.9,4.6,3.7-3.2,3.9-3.8-7.6-6-8.1-6-2.7,3.7-2.7,5.2Z"/>
    <polyline class="cls-7" points="150.4 144.6 151.5 156 153.5 155.6 153.3 153.1"/>
    <polygon class="cls-12" points="145.9 143 145.3 147.4 149.3 143.3 145.9 143"/>
    <polygon class="cls-12" points="148.2 139.3 145.9 143 152.1 145.4 153.8 140.8 148.2 139.3"/>
    <path class="cls-12" d="M131.7,114.3s-.9,5.6-.5,6.6c.3,1.1,1.7,2.4,1.8,3.4s-2.5,4.3-1.7,5.2c.8.9,2.4,1.5,2.4,1.5,0,0,3.3,8.6,4.8,8.9,1.5.3,6.4-2.3,6.4-2.3,0,0,6.1,5.5,6.4,5.9.3.3,6.4-12,6.4-12,0,0-2.7-5.3-2.7-5.7s4.2-12,4-16.6c-.2-4.7-13.6-9.2-16.3-8.8s-8.5,3.6-8.5,3.6c0,0,2.1-1.7.3-1.6s-7,4-6.7,7.4c.2,3.4,3.9,4.5,3.9,4.5Z"/>
    <path class="cls-10" d="M150.3,132c1.1-3-1.3-8.8-1.1-10.1s1.3-4.5,3.3-4.5,1.6,3.9,1.4,5.5c-.2,1.2-.6,2.3-1.2,3.3,0,0,1.3-.2,2.3-.4.2-1,4.2-12,4-16.6-.2-4.7-13.6-9.2-16.3-8.8s-8.5,3.6-8.5,3.6c0,0,2.1-1.7.3-1.6s-7,4-6.7,7.4c.2,3.4,3.9,4.5,3.9,4.5,0,0,7-3.5,9.5-3.8s-.8,2.4-1,3.9,3.6,2.7,5,4c1.4,1.3,2.3,9.7,1.4,11.6-.9,2-5,1-7,.2s-6,.8-6,.8c0,0,3.3,8.6,4.8,8.9.8.2,2.7-.5,4.2-1.2l2.3-1.1s4.3-2.6,5.4-5.7Z"/>
    <path class="cls-4" d="M136.4,124c.2.7,0,1.3-.2,1.4s-.6-.5-.8-1.2,0-1.3.2-1.4.6.5.8,1.2Z"/>
    <path class="cls-9" d="M135.3,133s2.2,0,3.4-1.7"/>
    <path class="cls-8" d="M133.6,121.3s.3-1.5,3-.5"/>
    <polygon class="cls-12" points="157.3 129.7 149.8 144.4 153.8 149.4 160.7 133.2 157.3 129.7"/>
    <path class="cls-13" d="M166.1,142.9s-3.4-.5-4.7.5-7.9,16.6-7.9,16.6c2,.6,3.8,1.7,5.1,3.3,2.1,2.5,3.6,7,3.6,7,0,0,8.8-10.8,10.4-13.2"/>
    <path class="cls-7" d="M166.7,145.1s-2.9.2-3.9,2-8.5,17.3-8.5,17.3l3.2,2.7s6.6-13.9,8.5-16.3c1.3-1.5,3-2.6,4.9-3.2"/>
    <line class="cls-7" x1="171.3" y1="152.4" x2="160.6" y2="167.3"/>
    <path class="cls-12" d="M151.8,159.3s-2.9,1.8-2.9,3.9,2.6,6.8,5.4,9c2.8,2.3,5.3,1.6,6.8.7s4.9-1.5,5.1-5.4-5.1-9.6-7.4-10.3c-2.3-.8-7,2.2-7,2.2Z"/>
    <path class="cls-12" d="M104,172.2s-1.2,1.1-2.4,2-2.5,1.5-1.4,2.1c1.1.5,2.3.1,3.5-.1,1.2-.2,2.6-.5,2.7-1.4s0-3.5-2.4-2.5Z"/>
    <path class="cls-12" d="M159.4,171.8s1.7-3,.1-6.1-4.8-4.5-6.8-4.5-35.4,9.4-35.4,9.4c0,0-10.1-2.8-11.3-2.4s-8.4,4.3-10,5.1c-1.6.8-1.6,1.7-.9,1.8s2.7-.5,3.7-.9c1-.3,4.2-1.5,4.2-1.5-.3.8-.5,1.6-.7,2.4,0,.5,3,2.1,3.6,2.1s2.4.3,3.7-.1c1.3-.4-.5-2.3-.5-2.3l2.3-1s2.3,1.2,4.2,1.1c1.1,0,2.1-.3,3-.8,0,0,35.4-1,40.6-2.4Z"/>
    <path class="cls-7" d="M105.1,171.8s-1.4,2.7-1.1,3.3,3.2,2.1,3.2,2.1"/>
    <path class="cls-7" d="M107.4,171.9s-1.4,2.7-1,3.3,3.4,2,3.4,2"/>
    <line class="cls-7" x1="103.1" y1="172.8" x2="103.3" y2="171.8"/>
  </g>
  <g id="freepik--Device--inject-128">
    <polygon class="cls-12" points="100.7 189.2 64.3 189.2 50.4 196.7 88.5 196.7 100.7 189.2"/>
    <line class="cls-7" x1="66.6" y1="191.2" x2="93.6" y2="191.2"/>
    <line class="cls-7" x1="64.7" y1="192.6" x2="91.6" y2="192.6"/>
    <line class="cls-7" x1="62.7" y1="194" x2="89.6" y2="194"/>
    <line class="cls-7" x1="93.7" y1="191.2" x2="86" y2="195"/>
    <line class="cls-7" x1="89.5" y1="191.2" x2="81.8" y2="195"/>
    <polygon class="cls-11" points="43.8 170.5 82 170.5 88.5 196.7 50.4 196.7 43.8 170.5"/>
    <rect class="cls-12" x="50.4" y="196.7" width="38.2" height="1.9"/>
    <polygon class="cls-12" points="43.4 170.5 81.6 170.5 88.1 196.7 49.9 196.7 43.4 170.5"/>
    <polygon class="cls-11" points="88.5 196.7 100.7 189.2 100.7 190.8 88.5 198.6 88.5 196.7"/>
    <path class="cls-7" d="M67.4,182.8c.2,1.1-.6,2.2-1.7,2.3s-2.2-.6-2.3-1.7c-.2-1,.5-2,1.5-2.3,1.2-.2,2.3.5,2.5,1.7Z"/>
  </g>
</svg>