<?xml version="1.0" encoding="UTF-8"?>
<svg id="_レイヤー_1" data-name=" レイヤー 1" xmlns="http://www.w3.org/2000/svg" version="1.1" viewBox="0 0 500 500">
  <defs>
    <style>
      .cls-1 {
        fill: #000;
        isolation: isolate;
        opacity: .2;
      }

      .cls-1, .cls-2, .cls-3, .cls-4, .cls-5 {
        stroke-miterlimit: 10;
      }

      .cls-1, .cls-3, .cls-4, .cls-5 {
        stroke: #222;
      }

      .cls-6, .cls-7, .cls-8, .cls-9, .cls-10, .cls-11, .cls-12 {
        stroke-linejoin: round;
      }

      .cls-6, .cls-7, .cls-8, .cls-10, .cls-11, .cls-12 {
        stroke: #263238;
      }

      .cls-6, .cls-8, .cls-9, .cls-10 {
        stroke-linecap: round;
      }

      .cls-6, .cls-4, .cls-11 {
        fill: #fff;
      }

      .cls-13 {
        stroke-width: 0px;
      }

      .cls-13, .cls-3 {
        fill: #fcf6a9;
      }

      .cls-2 {
        fill: #333;
        stroke: #333;
      }

      .cls-7 {
        stroke-width: 1.6px;
      }

      .cls-7, .cls-8, .cls-9, .cls-10, .cls-12 {
        fill: none;
      }

      .cls-8, .cls-11 {
        stroke-width: .9px;
      }

      .cls-9 {
        stroke: #fff;
      }

      .cls-5 {
        fill: #eee000;
      }
    </style>
  </defs>
  <g id="freepik--background-simple--inject-18">
    <path class="cls-13" d="M290.9,396.7s77.9,3.6,127.1-84.4-8.7-168.9-98.2-186.4S185.7,42.7,105.9,93c-79.8,50.3-35.4,318,185,303.7h0Z"/>
  </g>
  <g id="freepik--Shadow--inject-18">
    <ellipse class="cls-3" cx="250" cy="419.6" rx="187.6" ry="11.6"/>
  </g>
  <g id="freepik--Graphics--inject-18">
    <path class="cls-7" d="M291.1,113.2l-.5,4.6,2.5.9c0,1.6.3,3.1.6,4.7l-2.1,1.6,1.8,4.3,2.6-.5c.8,1.3,1.8,2.6,2.9,3.7l-1.1,2.4,3.7,2.8,2-1.7c1.4.8,2.8,1.3,4.4,1.8l.3,2.6,4.6.6.9-2.5c1.6,0,3.1-.3,4.6-.6l1.6,2.1,4.3-1.8-.5-2.6c1.3-.8,2.6-1.8,3.7-2.9l2.4,1.1,2.8-3.7-1.7-2c.8-1.4,1.4-2.8,1.8-4.3l2.6-.3.5-4.6-2.5-.9c0-1.6-.2-3.1-.6-4.6l2.2-1.6-1.8-4.2-2.6.5c-.8-1.3-1.8-2.6-2.9-3.7l1.1-2.4-3.7-2.7-2,1.7c-1.4-.7-2.8-1.3-4.3-1.8l-.3-2.7-4.6-.5-.9,2.5c-1.6,0-3.1.3-4.6.7l-1.6-2.2-4.2,1.8.5,2.6c-1.3.8-2.6,1.8-3.7,2.8l-2.4-1.1-2.8,3.7,1.7,2c-.8,1.4-1.3,2.8-1.8,4.3l-2.7.3-.2-.2ZM301.7,116.9c.7-6.3,6.4-10.8,12.7-10,6.3.7,10.8,6.4,10,12.7-.7,6.3-6.4,10.8-12.7,10h0c-6.3-.8-10.7-6.5-10-12.7Z"/>
    <path class="cls-2" d="M171.6,225.9l-.5,4.1,2.2.8c0,1.4.2,2.8.6,4.2l-2,1.4,1.6,3.9,2.4-.4c.7,1.2,1.6,2.3,2.6,3.4l-1,2.2,3.4,2.5,1.8-1.6c1.2.7,2.6,1.2,3.9,1.6l.2,2.4,4.1.5.8-2.3c1.4,0,2.8-.2,4.2-.6l1.4,1.9,3.8-1.6-.4-2.4c1.2-.7,2.3-1.6,3.4-2.6l2.2,1,2.5-3.3-1.6-1.8c.7-1.2,1.2-2.6,1.6-3.9l2.4-.3.5-4.1-2.2-.8c0-1.4-.2-2.8-.6-4.2l2-1.4-1.6-3.9-2.4.4c-.7-1.2-1.6-2.3-2.6-3.3l1-2.2-3.4-2.5-1.8,1.6c-1.2-.7-2.6-1.2-3.9-1.6l-.2-2.4-4.1-.5-.8,2.3c-1.4,0-2.8.2-4.2.6l-1.4-1.9-3.9,1.6.4,2.4c-1.2.7-2.3,1.6-3.4,2.6l-2.2-1-2.5,3.4,1.6,1.8c-.7,1.2-1.2,2.6-1.6,3.9l-2.4.2h0ZM181.2,229.3c.7-5.7,5.8-9.8,11.5-9.1s9.8,5.8,9.1,11.5-5.8,9.8-11.5,9.1h0c-5.7-.7-9.8-5.8-9.1-11.5Z"/>
    <path class="cls-4" d="M383.1,327.8v-9.4l-5.2-1.2c-.4-3.2-1.3-6.3-2.4-9.3l4-3.7-4.7-8.2-5.2,1.6c-2-2.5-4.2-4.8-6.7-6.8l1.6-5.2-8.2-4.7-3.6,3.9c-3-1.2-6.1-2-9.2-2.5l-1.2-5.3h-9.4l-1.2,5.3c-3.2.4-6.3,1.3-9.3,2.4l-3.7-4-8.1,4.7,1.6,5.2c-2.5,2-4.8,4.2-6.8,6.7l-5.2-1.6-4.7,8.1,3.9,3.7c-1.2,3-2,6.1-2.5,9.2l-5.3,1.2v9.4l5.2,1.2c.5,3.2,1.3,6.3,2.4,9.2l-4,3.7,4.7,8.2,5.1-1.6c2,2.5,4.2,4.8,6.8,6.8l-1.6,5.2,8.2,4.7,3.6-4c3,1.2,6,2,9.2,2.5l1.2,5.3h9.4l1.2-5.2c3.2-.5,6.3-1.3,9.3-2.5l3.7,4,8.2-4.7-1.6-5.1c2.5-2,4.8-4.2,6.8-6.7l5.2,1.6,4.7-8.2-4-3.7c1.2-3,2-6.1,2.5-9.2l5.3-1.1h0ZM366.8,322.9c0,16.3-13.2,29.5-29.5,29.5s-29.5-13.2-29.5-29.5,13.2-29.5,29.5-29.5h0c16.3,0,29.5,13.2,29.5,29.5h0Z"/>
    <rect class="cls-5" x="195.3" y="94.2" width="24.2" height="5.6"/>
    <rect class="cls-5" x="195.3" y="102.2" width="15.9" height="5.6"/>
    <rect class="cls-5" x="195.3" y="110.3" width="9.2" height="5.6"/>
    <rect class="cls-5" x="153.2" y="156.1" width="8.2" height="16.8"/>
    <rect class="cls-5" x="165.1" y="161.9" width="8.2" height="11.1"/>
    <rect class="cls-5" x="177" y="166.6" width="8.2" height="6.4"/>
    <path class="cls-2" d="M250.9,185.7h-99.5c-5.7,0-10.4-4.6-10.4-10.4h0v-82.2c0-5.7,4.7-10.4,10.4-10.4h99.5c5.7,0,10.4,4.6,10.4,10.4v82.2c0,5.7-4.7,10.4-10.4,10.4ZM151.4,83.7c-5.2,0-9.5,4.2-9.5,9.5v82.2c0,5.2,4.2,9.5,9.5,9.5h99.5c5.2,0,9.5-4.2,9.5-9.5v-82.2c0-5.2-4.2-9.5-9.5-9.5h-99.5Z"/>
    <rect class="cls-2" x="214.2" y="156.5" width="35.5" height=".9"/>
    <rect class="cls-2" x="214.2" y="160.3" width="35.5" height=".9"/>
    <rect class="cls-2" x="214.2" y="164.1" width="35.5" height=".9"/>
    <rect class="cls-2" x="214.2" y="167.9" width="35.5" height=".9"/>
    <rect class="cls-2" x="214.2" y="171.7" width="35.5" height=".9"/>
    <rect class="cls-2" x="152.2" y="94.5" width="35.5" height=".9"/>
    <rect class="cls-2" x="152.2" y="98.3" width="35.5" height=".9"/>
    <rect class="cls-2" x="152.2" y="102.1" width="35.5" height=".9"/>
    <rect class="cls-2" x="152.2" y="105.9" width="35.5" height=".9"/>
    <rect class="cls-2" x="152.2" y="109.7" width="35.5" height=".9"/>
    <path class="cls-2" d="M242.6,125.2l6.4,3.3-.7-17.9-15.2,9.6,6.4,3.3-4.8,9.1h0c-.8,0-1.7.3-2.3.8l-8.4-3.9h0c0-2.2-1.6-4-3.7-4.1-2.1,0-3.9,1.5-4,3.6h0v.4c0,.6.1,1.1.4,1.6l-11,12c-.4-.1-.7-.2-1.1-.2h-.6l-15.8-20.1c.8-2-.2-4.2-2.2-5-1.9-.7-4,0-4.9,1.9-.2.5-.3,1-.3,1.5s0,.8.2,1.2l-18,18.5c-2-.7-4.2.3-5,2.3s.3,4.2,2.3,5c2,.7,4.2-.3,4.9-2.3h0c.2-.4.2-.9.2-1.3s0-.6-.1-.9l18.2-18.7c.4,0,.7.2,1.1.2h.7l15.8,20c-1,1.9-.3,4.3,1.6,5.3,1.9,1,4.3.3,5.3-1.6.3-.5.4-1.1.5-1.6v-.4c0-.4,0-.8-.2-1.2l11.3-12.3h.6c.8,0,1.5-.2,2.2-.7l8.6,4c0,2.1,1.9,3.8,4,3.7s3.8-1.9,3.7-4h0c0-.8-.3-1.5-.7-2.1l4.8-9.2-.2.2Z"/>
    <g id="freepik--chart-1--inject-2--inject-18">
      <path class="cls-12" d="M251.2,196.3c-3.3,0-5.9,2.6-5.9,5.9v51.2c0,3.3,2.6,5.9,5.9,5.9h62c3.3,0,5.9-2.6,5.9-5.9v-51.2c0-3.3-2.6-5.9-5.9-5.9h-62Z"/>
      <rect class="cls-2" x="250.2" y="203.2" width="4.7" height=".6"/>
      <rect class="cls-2" x="250.2" y="208.4" width="4.7" height=".6"/>
      <rect class="cls-2" x="250.2" y="213.5" width="4.7" height=".6"/>
      <rect class="cls-2" x="250.2" y="218.7" width="4.7" height=".6"/>
      <rect class="cls-2" x="250" y="208.4" width="4.7" height=".6"/>
      <rect class="cls-2" x="250.2" y="223.8" width="4.7" height=".6"/>
    </g>
    <path class="cls-5" d="M285.8,251.6c12.5.3,22.8-9.6,23.1-22.1.3-12.5-9.6-22.8-22.1-23.1s-22.8,9.6-23.1,22.1h0c-.2,12.5,9.7,22.7,22.1,23h0ZM286.6,213.1c8.8.2,15.9,7.5,15.7,16.3-.2,8.8-7.5,15.9-16.3,15.7s-15.9-7.5-15.7-16.3h0c.2-8.8,7.5-15.8,16.3-15.7h0Z"/>
    <path class="cls-2" d="M270,245.2c8.9,9,23.5,9.1,32.5.1h0c.2-.2.2-.5,0-.6l-4.7-4.7s-.2-.1-.3-.1-.2,0-.3.1c-3,3-7.1,4.6-11.3,4.5h-1.1c-3.4-.2-6.6-1.5-9.2-3.7-.2-.2-.5-.4-.7-.6-5.4-5.4-6.2-14-1.8-20.3h0c.1-.1.2-.3.3-.4,3.1-4,8-6.1,13-5.9.2,0,.5-.2.5-.4h0v-6.6c.1-.3-.1-.5-.3-.5h0c-12.7-.2-23.2,9.9-23.4,22.6-.1,6.2,2.3,12.2,6.7,16.6h0Z"/>
    <path class="cls-2" d="M286.7,206c13,0,23.5,10.6,23.5,23.5s-10.6,23.5-23.5,23.5-23.5-10.6-23.5-23.5,10.5-23.5,23.5-23.5h0ZM285.8,251.2c12.2.3,22.3-9.5,22.6-21.7.3-12.2-9.5-22.3-21.7-22.6s-22.3,9.5-22.6,21.7h0c-.2,12.2,9.5,22.3,21.7,22.6h0ZM286.6,212.6c9.1.2,16.3,7.7,16.1,16.8-.2,9.1-7.7,16.3-16.8,16.1-9.1-.2-16.3-7.7-16.1-16.8h0c.2-9.1,7.7-16.3,16.8-16.1ZM285.9,244.5c8.6.2,15.6-6.6,15.8-15.2.2-8.6-6.6-15.6-15.2-15.8s-15.6,6.6-15.8,15.2h0c-.2,8.6,6.6,15.6,15.2,15.8h0Z"/>
    <line class="cls-8" x1="169.7" y1="278.1" x2="169.7" y2="338.8"/>
    <rect class="cls-2" x="174.3" y="301" width="5.1" height="34.7"/>
    <rect class="cls-5" x="181.6" y="315.2" width="5.1" height="20.5"/>
    <rect class="cls-11" x="190.3" y="289.8" width="5.1" height="46"/>
    <rect class="cls-2" x="204.6" y="283.2" width="5.1" height="52.6"/>
    <rect class="cls-5" x="212" y="322.7" width="5.1" height="13"/>
    <rect class="cls-11" x="220.7" y="304.7" width="5.1" height="31"/>
    <rect class="cls-2" x="241.6" y="309.5" width="5.1" height="26.3"/>
    <rect class="cls-5" x="249" y="289" width="5.1" height="46.7"/>
    <rect class="cls-11" x="257.7" y="299.4" width="5.1" height="36.4"/>
    <line class="cls-8" x1="164.1" y1="327.7" x2="167" y2="327.7"/>
    <line class="cls-8" x1="164.1" y1="320.2" x2="167" y2="320.2"/>
    <line class="cls-8" x1="164.1" y1="312.7" x2="167" y2="312.7"/>
    <line class="cls-8" x1="164.1" y1="305.2" x2="167" y2="305.2"/>
    <line class="cls-8" x1="164.1" y1="297.8" x2="167" y2="297.8"/>
    <line class="cls-8" x1="164.1" y1="290.3" x2="167" y2="290.3"/>
    <line class="cls-8" x1="164.1" y1="282.8" x2="167" y2="282.8"/>
    <line class="cls-8" x1="166.3" y1="335.8" x2="266.4" y2="335.8"/>
    <path class="cls-12" d="M160.1,269.7c-3.6,0-6.5,2.9-6.5,6.5v59.5c0,3.6,2.9,6.5,6.5,6.5h110.4c3.6,0,6.5-2.9,6.5-6.5v-59.5c0-3.6-2.9-6.5-6.5-6.5h-110.4Z"/>
  </g>
  <g id="freepik--character-1--inject-18">
    <path class="cls-4" d="M72.7,402.7s2.3,15.4-3.3,17-9.5-.5-10.2-2.8,4.2-18.8,4.2-18.8l9.2,4.6h.1Z"/>
    <path class="cls-4" d="M169.9,406.1l24.3,5.8s1.8,1,1.6,2.6-11.3,5.9-14.4,6.4-21.1,2.9-23.6.7,2.8-19.6,2.8-19.6l9.2,4.1h0Z"/>
    <path class="cls-4" d="M125.9,124.9s3.4,5.2,3.5,7.8-.3,5.6,1.3,7.1,2.8,3.2,2.2,4-1.9,2.3-1.9,2.3c0,0,1.6,8.8-.5,10.4s-8.6,0-8.6,0v5.7s-9.1-3-15.4-2.4l-1.1-12.2s13.7-26.4,20.6-22.7h0Z"/>
    <path class="cls-4" d="M182.1,160.9s-.8-6.2,2.2-10c0,0-3.6-.6-3.2-1.9s6,.4,6,.4l-1.5-3s-5.2-1.7-4.6-3.4,8.4,2.4,8.4,2.4c0,0-4.6-3.8-3.9-5.4s5.3-1.6,7.8,6.7l1.3-1.6s.4-9.4,1.7-9.9c0,0,2,1.1,2,6.5,0,0,2,2.4.7,4.4s-4.3,6.6-6.8,8.4-2.5,8.4-2.5,8.4l-7.5-2h0Z"/>
    <path class="cls-4" d="M101.6,109.6l1.2-1.5s12.9-5.7,12.6-7.5-7.6.7-9-.3c0,0,1.3-16.9,0-17.5s-2.8,7.9-2.8,7.9c0,0-1.9-8.7-3.3-8.5s-.8,9-.8,9c0,0-2.8-5.6-3.8-5.1s.5,7.4.5,7.4c0,0-2-2.3-2.8-1.6.3,3.5,1.2,7,2.8,10.1l-2.8,4.7,8.3,2.9h0Z"/>
    <path class="cls-5" d="M180.7,160.9l8.9,1.2s-6.5,55-8.4,61.8-3.6,11.7-10.1,12-29.8-19.2-29.8-19.2l-1.1,27,1.5,11.2s-28.4,14.9-57.3,1.9l.7-13.1-10.4-60.1-8.2-28.5,26.4-50.1,9.6,5-16.9,45.6,4.7,15.2,5.3-2.1,5.8-7.5s9.9-5.1,22.5,2l2,6.3s14.7,1.1,39.6,35.6l15.2-44.2h0Z"/>
    <path class="cls-1" d="M117.3,160.9l1.1,7.7s8.3,5.5,11.6,7.4c0,0,8.1,51.3,2.1,61.4l-6.3,9.9s6.5,0,9.4-4.5c0,0-3.7,12.4-13.3,15.7,0,0,14.8-1.5,19.9-3.5l-1.5-11.2,2.4-62.4s2.3-4.2-16.8-11.7l-2.8-6.8-5.8-2h0Z"/>
    <path class="cls-10" d="M125.9,125.6s3.1,4.5,3.5,7.1-.7,5.3,1.3,7.1,3,3,2.2,4-1.9,2.3-1.9,2.3c0,0,.8,8.6-.5,10.4s-8.6,0-8.6,0v5.7"/>
    <path class="cls-10" d="M121.9,145.7s-2.9-7.5-5.1-5.7-.2,11.7,5.1,9.5"/>
    <path class="cls-2" d="M121.1,144s3.4-.3,1.3-8.4,2.5-7,7.6-9.3c5.1-2.3,6.3-6.5,5.2-9.1s-2.9-3.9-9.3-2.7c0,0-7-8.1-13.8.8,0,0-15.2-.2-19.3,7-4.1,7.2,1.3,25.7,9.3,31.9s15.8,1.2,17.4-4.6c0,0-5.4-2.9-2.7-9.7,0,0,2.5-.9,4.3,3.9v.2Z"/>
    <path class="cls-10" d="M73.9,179.1s36.8-26.7,68.9,0l-2.6,64.6,1.5,11.2s-27.1,12.7-57.3,1.9l.7-13.1s-11.2-64.6-11.2-64.6Z"/>
    <path class="cls-10" d="M95.1,169.4l6.3-8.1s12.4-4.3,22.5,2l2,6.3"/>
    <line class="cls-10" x1="142.8" y1="179.1" x2="174.9" y2="216"/>
    <path class="cls-10" d="M141.3,216s21.2,19.8,29.7,20,9.9-10,9.9-10l8.7-63.8-8.9-1.2-15.3,44.2"/>
    <path class="cls-10" d="M189.4,162s1.1-7.2,4-8.9,6.3-8,5.2-9.8-4.5,4.1-7.5,5.3-5.5,6.7-5.9,9.2"/>
    <path class="cls-10" d="M197.7,143.1s0-8.3-1.5-7.9-1.7,10.9-1.7,10.9"/>
    <path class="cls-10" d="M193.3,147.1s-1-4.7-3.8-6.9-4.5-1.1-4.2-.3,5,7,4.9,9.1"/>
    <path class="cls-10" d="M188.6,144.8s-7.6-3.5-7.6-1.4,4.6,2.9,4.6,2.9l1.5,3s-6.4-2-6-.4,3.2,1.9,3.2,1.9c0,0-3.1,3.1-2.2,10"/>
    <path class="cls-2" d="M137.3,255.7l1.9,13.5s17.8,53.3,20.5,63.7,4.2,34,5,44.8,7,29,7,29c0,0-.8,7.3-13.9,6.2,0,0-5.4-21.6-11.2-34.4s-6.6-32.1-6.6-32.1l-28.2-51.8s-5.8,30.1-9.7,41.3c-4,11.5-31.3,75.6-29.4,71.1,0,0-3.9,2.3-12-3.5,0,0,5.8-19.3,7.3-29.7s9.7-34.4,9.7-34.4c0,0,1.9-45.2,5-59.1,0,0-2-15.3,2.3-26.1,16.9,5.5,35.1,6,52.3,1.4h0Z"/>
    <polyline class="cls-9" points="96.3 285.6 109 289.3 110.8 293.8"/>
    <path class="cls-10" d="M158.1,411.3s-1.7,8.6-.3,10.3c.7.9,2.9.8,4,.8,2.4,0,4.9-.1,7.3-.3,4.9-.3,9.9-.3,14.6-1.8,4-1.2,7.8-2.9,11.3-5.1,1.9-1.3,0-3.4,0-3.4l-23.2-5.2"/>
    <path class="cls-10" d="M158,418.6s26.1,4.3,37-6.7"/>
    <path class="cls-10" d="M61.8,402.7s-3,10.3-2.6,13.5,3.7,4,7.5,3.9c3.8,0,5.4-1.8,5.9-4.4s0-10.9,0-10.9"/>
    <line class="cls-10" x1="59.2" y1="414.7" x2="72.7" y2="415.8"/>
    <path class="cls-10" d="M94.3,105.3c1.1-2.1,1.8-3.3,1.8-3.3,0,0-3.7-9-2.8-10.1s3.1,2,3.1,2c0,0-2.2-7.1-.8-7.7s3.9,6,3.9,6c0,0-.7-9.6.8-10s3.2,9.1,3.2,9.1c0,0,1.9-8.5,3-8.6s0,17.5,0,17.5c2.3,1.1,9.1-1.6,9,.6s-13,7.4-13,7.4c-.2.3-.4.6-.6.9"/>
    <polyline class="cls-10" points="73.9 179.1 66.5 155.1 92.9 105 102.5 110 85.6 155.6 90.3 170.9"/>
    <path class="cls-10" d="M74.7,151.3s9.5,0,10.8,4.3c-4.2-.2-8.3.9-11.7,3.2"/>
    <line class="cls-10" x1="106" y1="160.3" x2="106" y2="153.3"/>
    <path class="cls-1" d="M142.6,198.4l2.4,15.8s1.9-10.3,3.1-10.3,0,12.1,0,12.1c0,0,19.9,18,28.5,18.1,0,0-4.8,3.4-9.6.9s-25.8-19-25.8-19l1.4-17.5h0Z"/>
    <path class="cls-1" d="M100.8,109.2l-18.2,44.2s-6.3-.1-8.7,5.6l9.7-1.7,3.3,15,3.4-1.3-4.7-15.2,16.9-45.6-1.7-.8v-.2Z"/>
  </g>
  <g id="freepik--character-2--inject-18">
    <polygon class="cls-4" points="351.3 186.8 344.1 171.5 316 190.1 339.2 231.2 357.3 221 351.3 186.8"/>
    <path class="cls-4" d="M374.5,319.1s4.5,12.6,5.2,18.8-1.4,32-.9,39.2,4.3,28.5,4.3,28.5c0,0-18.9,13.8-24.9,9.3,0,0,13.3-10.8,14.7-15.1l-4.3-29.2-4.3-34.5s-1.1-7.2-2.6-10.9-1.3-11.6-1.3-11.6l14.2,5.6h-.1Z"/>
    <path class="cls-10" d="M374.1,317.9s4.9,13.3,6.1,22.9-2.3,31.2-1.2,41.6,2.3,16.2,4.3,21.7l-1,16.1h-2.6l-1-9.1s-4.1-1.7-6.5,4.2-11.5,6.6-15.9,3.2c0,0,0-2.6,3.2-4.9s11.7-9.5,13.2-13.8c0,0-4.6-30-5.7-39.7s-2.8-27.4-4.9-33.1-2.1-13.9-2.1-13.9"/>
    <path class="cls-10" d="M382.3,401.1s-12.7,13.8-23.3,13.7"/>
    <path class="cls-2" d="M358.1,414.8c1.8.2,3.5,0,5.2-.6,2.9-1,13.2-6,18.3-12.3l1.6,1.8-.8,16.2-2.6.4-1-9.1s-3.3-1.5-5.5,2.2-3.7,6.3-7.5,7.2-9.4-2-9.4-2c0,0-1-1.5,1.8-3.7h-.1Z"/>
    <path class="cls-4" d="M383.4,319.5c1.2,4.4,2.6,8.7,4.3,12.9,2.3,5.2,21.9,57.9,21.9,57.9,0,0,1.5,28.5,9.8,28.4s-.3-19.9-.3-19.9l-5.1-10.9s-1.9-31.9-4.3-43.7l-10.2-27.5-16.1,2.8h0Z"/>
    <path class="cls-10" d="M399.5,317.6s8.4,19.1,10.1,26.6,3.5,41.4,4.3,43.7,14.8,26.9,6.4,31.8-10.4-28.3-10.4-28.3c0,0-19.4-53.8-22.3-59s-6.1-20.2-6.1-20.2l17.9,5.5h.1Z"/>
    <path class="cls-10" d="M422,407.1s-.6,6.7-2.8,7.6-7.1-6.6-7.1-6.6"/>
    <path class="cls-2" d="M412.2,409.3s3,11.4,7,10.9,4.7-6.8,2.8-11.7c0,0-.7,5-2.8,6.2-2.1,0-7-5.4-7-5.4Z"/>
    <path class="cls-2" d="M376.8,218.4s10.1,13.8,17.1,36c7,22.2,6.3,64.7,6.3,64.7,0,0-26.1,8.4-51.4-2.3l4.6-95.8s16.3.3,23.3-2.6h.1Z"/>
    <path class="cls-4" d="M363.7,118.3s-7.9,7.4-8.8,12.2c-.8,3.4-2,6.6-3.6,9.7.8,1.3,2.1,2.2,3.5,2.8,0,0,.5,9.9,3.4,10.6l6.9-1.8.7,4.2,9.8-3.7v-5.7l7.5-4.9-2.7-12.8-12.2-5.7-4.6-4.8h.1Z"/>
    <path class="cls-4" d="M353.4,220.2l-.9-13.8s-6.4-12-4.4-16.4c2.2-4.8,15.7-22.5,15.7-22.5l-1.3-9.7,18.9-8.1.9,8.1-2.3,1.7,2.5,5.4s.2-1.6,4.5,6.6,20.9,37.2,22.2,42.8-25.7,25.2-34.8,29.9c0,0-1-2.2-11.9,6-2.8-.5-6.5-2.9-7.4-4.5s3.1-5.2,3.1-5.2c0,0,2.4-4.5,6.5-.9h4.4l25.4-23.7-12.9-18.9-5.1,21.2s-16.5,5-23.4,1.9h.3Z"/>
    <polygon class="cls-10" points="362.5 157.8 363.9 167.7 382.3 157.8 381.4 149.7 362.5 157.8"/>
    <path class="cls-10" d="M363.9,167.7s-16.8,20.5-16.3,24.5,4.9,14.1,4.9,14.1l.9,14.6s13.5.4,23.3-2.6l5.1-21.2"/>
    <path class="cls-10" d="M394.8,216l-26-39.1s-2.5-9,3.6-12.2,11.5.9,13.4,3,22.5,41.8,23.5,46.6-20.8,23.9-33.4,29c0,0-5.7,3.4-5.7-3.6l24.6-23.6h0Z"/>
    <line class="cls-10" x1="382.3" y1="164.9" x2="379.9" y2="159.1"/>
    <path class="cls-10" d="M370.1,239.7h-5.2s-4.1-3.6-6,0-4.4,4.4-3.6,6.1,4.9,5.1,7.4,4.5,9.4-6.2,9.4-6.2"/>
    <path class="cls-10" d="M361.8,120.9s-6.1,5.4-6.8,8.3-.4,8-3.7,10.9c0,0,.2,2.4,3.5,2.8,0,0,1.7,9.5,3.4,10.6s11.8-4.1,15.8-6.2c1-.7,1.8-1.7,2.1-2.9"/>
    <path class="cls-10" d="M357.1,145.8c1.9-.3,3.6-1.3,4.8-2.8"/>
    <path class="cls-10" d="M357.1,132.1s2.4-1.4,3.8.9"/>
    <path class="cls-2" d="M358.7,137.1c0,.8-.2,1.5-.6,1.5s-.7-.6-.8-1.4.2-1.5.6-1.5.7.6.8,1.4Z"/>
    <line class="cls-10" x1="365.1" y1="151.7" x2="365.9" y2="156.4"/>
    <path class="cls-2" d="M372.9,136.5s1.5-2.9,3.2-1.2,4.8,9.6-3.7,7.7c0,0-.6,4.8,3.7,6s12.4-5.4,12.7-16.7-10.6-18.9-16.4-16.7c0,0-8.4-13.1-16.6-7.5s-2.7,14.2-4.5,16.1-5.5,0-5.6,5.3,8.6,4.7,8.6,4.7l1-5.7,7.2-7.5s-1.7,5.4,1.2,10.2c2.6,4.3,9.2,5.5,9.2,5.5v-.2Z"/>
    <path class="cls-2" d="M388.8,132.2s4,.9,3.6,6.3-9.5,18.7-8.8,26.4l23.3,43.4s10.5-2,10-12.8-13.3-19.9-10.8-27.9,12.2-28.2-1.6-39.8-35.2,6.2-35.2,6.2l10.5-3.4,9,1.6Z"/>
    <polyline class="cls-10" points="350.4 185.9 344.1 171.5 316 190.1 339.2 231.2 353.3 223.5"/>
    <path class="cls-6" d="M324.8,210.5s-1.5-3.1.5-4.9,9-6.9,9-5.6,0,1.2-.5,1.7c-2,2.7-6.8,7-6.5,7.4,0,0,8.7-5.8,9.6-5.2.2.1,0,.9-.6,1.6-2.4,2.1-4.9,4.1-7.6,5.9,0,0,9.2-3.6,10.4-3,.3.2.3.7-.8,1.3-2.7,1.5-5.4,2.8-8.2,3.9l2.3,3.9s-4.4.8-7.6-7h0Z"/>
    <line class="cls-12" x1="375" y1="145.8" x2="375.6" y2="152.2"/>
  </g>
</svg>