<?xml version="1.0" encoding="UTF-8"?>
<svg id="_レイヤー_1" data-name="レイヤー 1" xmlns="http://www.w3.org/2000/svg" version="1.1" viewBox="0 0 375 250">
  <defs>
    <style>
      .cls-1, .cls-2 {
        stroke: #fff;
      }

      .cls-1, .cls-2, .cls-3, .cls-4, .cls-5, .cls-6, .cls-7, .cls-8, .cls-9 {
        stroke-miterlimit: 10;
      }

      .cls-1, .cls-2, .cls-3, .cls-7, .cls-8 {
        fill: none;
      }

      .cls-1, .cls-8 {
        stroke-width: 4px;
      }

      .cls-10 {
        fill: #fcf6a9;
      }

      .cls-10, .cls-11, .cls-12, .cls-13 {
        stroke-width: 0px;
      }

      .cls-11, .cls-14, .cls-15, .cls-16, .cls-9 {
        fill: #222;
      }

      .cls-3 {
        stroke: #263238;
      }

      .cls-12 {
        fill: #000;
      }

      .cls-14 {
        stroke-miterlimit: 10;
        stroke-width: 1px;
      }

      .cls-14, .cls-15, .cls-16, .cls-4, .cls-5, .cls-6, .cls-7, .cls-8, .cls-9 {
        stroke: #222;
      }

      .cls-15 {
        stroke-miterlimit: 10;
        stroke-width: 1px;
      }

      .cls-16 {
        stroke-miterlimit: 10;
        stroke-width: 1px;
      }

      .cls-4, .cls-13 {
        fill: #fff;
      }

      .cls-17 {
        opacity: .2;
      }

      .cls-5 {
        fill: #eee000;
      }

      .cls-6 {
        fill: #b2b2b2;
      }
    </style>
  </defs>
  <g id="freepik--background-simple--inject-369">
    <path class="cls-10" d="M346.3,155.6c-4.3-20.4-13-40.3-23.5-58.3-17.1-29.1-42.5-54.8-76.4-62.4-76.8-17.3-93.3,58.4-110.6,68.4s-60.3,4.6-83.7,36.5c-23.4,31.9-20.7,82.2-20.7,82.2h318.5c.7-22.2,1.2-44.7-3.4-66.4Z"/>
  </g>
  <g id="freepik--Floor--inject-369">
    <line class="cls-3" x1="343.9" y1="221.9" x2="353.7" y2="221.9"/>
    <line class="cls-3" x1="51.9" y1="221.9" x2="340" y2="221.9"/>
    <line class="cls-3" x1="20.4" y1="221.9" x2="47.7" y2="221.9"/>
  </g>
  <g id="freepik--Plants--inject-369">
    <g class="cls-17">
      <path class="cls-12" d="M165,221.7c0-.2-2.9-15.6-4-36.9-1.1-19.7-1.3-47.6,5.5-73.1l-.7-1.1c-3.8,14.2-7.9,38.6-5.9,74.3,1.2,21.4,4,36.9,4,37.1l1-.2Z"/>
      <path class="cls-12" d="M176.6,128.1c-7.9,2.9-12.6,5.7-15.2,7.5.3-3.1,2.4-10.5,14.5-19.1,19.2-13.7,56.3-2,65,1-19,.8-44.4,3.3-64.3,10.7Z"/>
      <path class="cls-12" d="M176.9,128.7c20.5-7.5,46.7-10,65.8-10.7h0s-21.2,19.4-47.1,23.7c-25.8,4.3-34.3-4.6-34.3-4.6,0-.2,0-.4,0-.7,2.4-1.7,7.2-4.7,15.5-7.8Z"/>
      <path class="cls-12" d="M149.6,139.8c5.8,3.9,9,7,10.7,8.9.4-2.6.1-8.9-7.9-18.1-12.7-14.7-44.8-12.5-52.3-11.8,15.1,4.3,34.9,11.3,49.5,21Z"/>
      <path class="cls-12" d="M149.2,140.2c-15-10-35.5-17-50.7-21.3h0s13.3,19.6,33.2,28.1c19.9,8.4,28.4,2.9,28.4,2.9,0-.2.1-.4.2-.5-1.6-1.8-4.9-5.1-10.9-9.2Z"/>
      <path class="cls-12" d="M172,186.8c-5.8,3.9-9,7-10.7,8.9-.4-2.6-.1-8.9,7.9-18.2,12.7-14.7,44.8-12.5,52.3-11.8-15.1,4.3-34.9,11.3-49.5,21Z"/>
      <path class="cls-12" d="M172.4,187.2c15-10,35.5-17,50.7-21.3h0s-13.3,19.6-33.2,28c-19.9,8.4-28.4,3-28.4,3,0-.2-.1-.4-.2-.5,1.6-1.8,4.9-5.1,10.9-9.2Z"/>
      <path class="cls-12" d="M145.7,172.5c7.6,3.7,12,6.9,14.4,8.9,0-3.1-1.4-10.7-12.5-20.5-17.7-15.5-55.9-7.5-64.8-5.3,18.9,2.6,43.8,7.6,63,16.9Z"/>
      <path class="cls-12" d="M145.3,173.1c-19.7-9.5-45.5-14.5-64.4-17h0s19.3,21.3,44.5,28.1c25.3,6.8,34.6-1.2,34.6-1.2,0-.2,0-.4.1-.7-2.2-1.9-6.7-5.3-14.7-9.2Z"/>
      <path class="cls-12" d="M170.9,94.9c-3.4,7.7-4.6,13.1-5.1,16.1-2.1-2.4-6-9-3.9-23.7,3.3-23.3,37.4-42.2,45.6-46.4-12.6,14.3-28.2,34.4-36.7,53.9Z"/>
      <path class="cls-12" d="M171.6,95.1c8.7-20,25-40.7,37.7-55h0s-.7,28.7-15.4,50.3c-14.7,21.6-27,21.6-27,21.6-.2-.1-.4-.3-.5-.4.4-2.9,1.6-8.4,5.1-16.6Z"/>
    </g>
    <g class="cls-17">
      <path class="cls-12" d="M261.1,221.8c-1.2-7.3-2-14.7-2.4-22-.6-11.7-.8-28.4,3.3-43.6l-.4-.7c-2.3,8.5-4.7,23-3.5,44.4.4,7.4,1.2,14.8,2.4,22.1h.6Z"/>
      <path class="cls-12" d="M268.1,165.9c-4.7,1.7-7.5,3.4-9,4.4.2-1.9,1.4-6.3,8.6-11.4,11.4-8.2,33.6-1.2,38.8.6-11.4.5-26.5,2-38.4,6.4Z"/>
      <path class="cls-12" d="M268.2,166.3c12.3-4.5,27.9-6,39.3-6.4h0s-12.7,11.6-28.1,14.1-20.5-2.7-20.5-2.7c0-.1,0-.3,0-.4,1.4-1,4.3-2.8,9.3-4.6Z"/>
      <path class="cls-12" d="M251.9,172.9c2.3,1.5,4.5,3.3,6.4,5.3.2-1.5,0-5.3-4.7-10.8-7.6-8.8-26.7-7.5-31.2-7,9,2.6,20.8,6.7,29.5,12.5Z"/>
      <path class="cls-12" d="M251.7,173.1c-9-6-21.2-10.2-30.2-12.7h0s7.9,11.7,19.8,16.7c11.9,5,16.9,1.8,16.9,1.8,0-.1,0-.2,0-.3-.9-1.1-2.9-3.1-6.5-5.5Z"/>
      <path class="cls-12" d="M265.3,201c-2.3,1.5-4.5,3.3-6.4,5.3-.2-1.5,0-5.3,4.7-10.8,7.6-8.8,26.7-7.5,31.2-7-9,2.6-20.8,6.7-29.5,12.5Z"/>
      <path class="cls-12" d="M265.6,201.2c9-6,21.2-10.2,30.3-12.7h0s-7.9,11.7-19.8,16.7c-11.9,5-16.9,1.8-16.9,1.8,0-.1,0-.2,0-.3.9-1.1,2.9-3.1,6.5-5.5Z"/>
      <path class="cls-12" d="M249.6,192.4c4.5,2.2,7.2,4.1,8.6,5.3,0-1.9-.8-6.4-7.5-12.2-10.6-9.2-33.3-4.5-38.7-3.2,11.2,1.6,26.1,4.6,37.6,10.1Z"/>
      <path class="cls-12" d="M249.4,192.8c-11.7-5.7-27.1-8.6-38.4-10.2h0s11.5,12.7,26.6,16.8c15.1,4,20.6-.7,20.6-.7,0-.1,0-.3,0-.4-1.3-1.1-4-3.2-8.8-5.5Z"/>
      <path class="cls-12" d="M264.7,146.1c-2,4.6-2.7,7.8-3,9.6-1.2-1.4-3.6-5.4-2.3-14.1,2-13.9,22.3-25.2,27.2-27.7-7.5,8.5-16.8,20.5-21.9,32.2Z"/>
      <path class="cls-12" d="M265.1,146.2c5.2-11.9,14.9-24.3,22.5-32.8h0s-.4,17.1-9.2,30.1c-8.8,12.9-16.1,12.9-16.1,12.9-.1,0-.2-.2-.3-.3.2-1.7.9-5,3.1-9.9Z"/>
    </g>
    <g class="cls-17">
      <path class="cls-12" d="M319.5,221.8c-.9-5.5-1.5-11.1-1.8-16.7-.5-8.9-.6-21.5,2.5-33l-.3-.5c-1.7,6.4-3.6,17.4-2.7,33.6.3,5.6.9,11.2,1.8,16.7h.5Z"/>
      <path class="cls-12" d="M324.7,179.6c-2.4.8-4.7,2-6.8,3.4.1-1.4,1.1-4.7,6.5-8.6,8.6-6.2,25.5-.9,29.4.4-8.6.3-20,1.5-29.1,4.8Z"/>
      <path class="cls-12" d="M324.8,179.8c9.3-3.4,21.1-4.5,29.7-4.8h0s-9.6,8.8-21.2,10.7c-11.7,1.9-15.5-2.1-15.5-2.1,0-.1,0-.2,0-.3,1-.8,3.2-2.1,7-3.5Z"/>
      <path class="cls-12" d="M312.5,184.8c1.8,1.1,3.4,2.5,4.8,4,.2-1.2,0-4-3.6-8.2-5.7-6.6-20.2-5.7-23.6-5.3,6.8,1.9,15.8,5.1,22.4,9.5Z"/>
      <path class="cls-12" d="M312.3,185c-6.8-4.5-16-7.7-22.9-9.6h0s6,8.9,15,12.6,12.8,1.3,12.8,1.3c0,0,0,0,0-.2-1.5-1.6-3.1-3-5-4.1Z"/>
      <path class="cls-12" d="M322.6,206.1c-1.8,1.1-3.4,2.5-4.8,4-.2-1.2,0-4,3.6-8.2,5.7-6.6,20.2-5.7,23.6-5.3-6.8,1.9-15.8,5.1-22.4,9.5Z"/>
      <path class="cls-12" d="M322.8,206.3c6.8-4.5,16-7.7,22.9-9.6h0s-6,8.8-15,12.7-12.8,1.3-12.8,1.3c0,0,0-.2,0-.2,1.5-1.6,3.1-3,4.9-4.2Z"/>
      <path class="cls-12" d="M310.7,199.6c2.3,1.1,4.5,2.4,6.5,4,0-1.4-.6-4.8-5.7-9.2-8-7-25.2-3.4-29.3-2.4,8.5,1.2,19.8,3.4,28.4,7.6Z"/>
      <path class="cls-12" d="M310.6,199.8c-8.9-4.3-20.5-6.5-29.1-7.7h0s8.7,9.6,20.1,12.7,15.6-.6,15.6-.6c0,0,0-.2,0-.3-1-.8-3-2.4-6.6-4.1Z"/>
      <path class="cls-12" d="M322.1,164.5c-1.1,2.3-1.8,4.8-2.3,7.3-.9-1.1-2.7-4.1-1.7-10.7,1.5-10.5,16.9-19,20.6-20.9-5.7,6.5-12.7,15.5-16.6,24.4Z"/>
      <path class="cls-12" d="M322.4,164.6c3.9-9,11.3-18.4,17-24.8h0s-.3,13-6.9,22.7-12.1,9.6-12.1,9.6c-.1,0-.2,0-.3,0,.2-1.3.7-3.8,2.3-7.5Z"/>
    </g>
    <g class="cls-17">
      <path class="cls-12" d="M58,221.8c.9-5.5,1.5-11.1,1.8-16.7.5-8.9.6-21.5-2.5-33l.3-.5c1.7,6.4,3.6,17.4,2.7,33.6-.3,5.6-.9,11.2-1.8,16.7h-.5Z"/>
      <path class="cls-12" d="M52.8,179.6c2.4.8,4.7,2,6.8,3.4-.1-1.4-1.1-4.7-6.5-8.6-8.6-6.2-25.5-.9-29.4.4,8.6.3,20,1.5,29.1,4.8Z"/>
      <path class="cls-12" d="M52.6,179.8c-9.3-3.4-21.1-4.5-29.7-4.8h0s9.6,8.8,21.2,10.7c11.7,1.9,15.5-2.1,15.5-2.1,0-.1,0-.2,0-.3-1-.8-3.2-2.1-7-3.5Z"/>
      <path class="cls-12" d="M65,184.8c-1.8,1.1-3.4,2.5-4.8,4-.2-1.2,0-4,3.6-8.2,5.7-6.6,20.2-5.7,23.6-5.3-6.8,1.9-15.8,5.1-22.4,9.5Z"/>
      <path class="cls-12" d="M65.1,185c6.8-4.5,16-7.7,22.9-9.6h0s-6,8.9-15,12.6-12.8,1.3-12.8,1.3c0,0,0,0,0-.2,1.5-1.6,3.1-3,4.9-4.1Z"/>
      <path class="cls-12" d="M54.8,206.1c1.8,1.1,3.4,2.5,4.8,4,.2-1.2,0-4-3.6-8.2-5.7-6.6-20.2-5.6-23.6-5.3,6.8,1.9,15.8,5.1,22.4,9.5Z"/>
      <path class="cls-12" d="M54.6,206.3c-6.8-4.5-16-7.7-22.9-9.6h0s6,8.8,15,12.7c9,3.8,12.8,1.3,12.8,1.3,0,0,0-.2,0-.2-1.5-1.6-3.1-3-4.9-4.2Z"/>
      <path class="cls-12" d="M66.7,199.6c-2.3,1.1-4.5,2.4-6.5,4,0-1.4.6-4.8,5.7-9.2,8-7,25.2-3.4,29.3-2.4-8.5,1.2-19.8,3.4-28.4,7.6Z"/>
      <path class="cls-12" d="M66.9,199.8c8.9-4.3,20.5-6.5,29.1-7.7h0s-8.7,9.6-20.1,12.7-15.6-.6-15.6-.6c0,0,0-.2,0-.3,2-1.7,4.2-3.1,6.6-4.1Z"/>
      <path class="cls-12" d="M55.3,164.5c1.1,2.3,1.8,4.8,2.3,7.3.9-1.1,2.7-4.1,1.7-10.7-1.5-10.5-16.9-19-20.6-20.9,5.7,6.5,12.7,15.5,16.6,24.4Z"/>
      <path class="cls-12" d="M55,164.6c-3.9-9-11.3-18.4-17-24.8h0s.3,13,6.9,22.7,12.2,9.8,12.2,9.8c0,0,.2-.1.2-.2-.2-1.3-.7-3.8-2.3-7.5Z"/>
    </g>
  </g>
  <g id="freepik--Bars--inject-369">
    <rect class="cls-9" x="268.9" y="80.4" width="33" height="141.5"/>
    <rect class="cls-4" x="279" y="80.4" width="33" height="141.5"/>
    <rect class="cls-9" x="194.6" y="129.4" width="33" height="92.5"/>
    <rect class="cls-4" x="204.6" y="129.4" width="33" height="92.5"/>
    <rect class="cls-9" x="117.4" y="157.2" width="33" height="64.6"/>
    <rect class="cls-4" x="127.5" y="157.2" width="33" height="64.6"/>
  </g>
  <g id="freepik--Spikes--inject-369">
    <line class="cls-8" x1="166.9" y1="221.9" x2="166.9" y2="174.5"/>
    <path class="cls-11" d="M166.9,176.5l-3.9,2.4h0c0-.1,2.6-6.6,2.6-6.6.5-2.2,1-4.5,1.5-6.7.5,2.2,1,4.5,1.5,6.7l2.6,6.4h0c0,.1-4-2.3-4-2.3Z"/>
    <line class="cls-8" x1="177.5" y1="221.9" x2="177.5" y2="174.5"/>
    <path class="cls-11" d="M177.5,176.5l-3.9,2.4h0c0-.1,2.6-6.6,2.6-6.6.5-2.2,1-4.5,1.5-6.7.5,2.2,1,4.5,1.5,6.7l2.6,6.4h0c0,.1-4-2.3-4-2.3Z"/>
    <line class="cls-8" x1="188.2" y1="221.9" x2="188.2" y2="174.5"/>
    <path class="cls-11" d="M188.2,176.5l-3.9,2.4h0c0-.1,2.6-6.6,2.6-6.6.5-2.2,1-4.5,1.5-6.7.5,2.2,1,4.5,1.5,6.7l2.5,6.4h0c0,.1-4-2.3-4-2.3Z"/>
    <line class="cls-1" x1="198.8" y1="221.9" x2="198.8" y2="174.5"/>
    <path class="cls-13" d="M198.8,176.5l-3.9,2.4h0c0-.1,2.6-6.6,2.6-6.6.5-2.2,1-4.5,1.5-6.7.5,2.2,1,4.5,1.5,6.7l2.6,6.4h0c0,.1-4-2.3-4-2.3Z"/>
    <line class="cls-8" x1="241.6" y1="221.9" x2="241.6" y2="150.5"/>
    <path class="cls-11" d="M241.6,152.4l-3.9,2.4h0c0-.1,2.6-6.6,2.6-6.6.5-2.2,1-4.5,1.5-6.7.5,2.2,1,4.5,1.5,6.7l2.6,6.4h0c0,.1-4-2.3-4-2.3Z"/>
    <line class="cls-8" x1="252.3" y1="221.9" x2="252.3" y2="150.5"/>
    <path class="cls-11" d="M252.3,152.4l-3.9,2.4h0c0-.1,2.6-6.6,2.6-6.6.5-2.2,1-4.5,1.5-6.7.5,2.2,1,4.5,1.5,6.7l2.6,6.4h0c0,.1-4-2.3-4-2.3Z"/>
    <line class="cls-8" x1="262.9" y1="221.9" x2="262.9" y2="150.5"/>
    <path class="cls-11" d="M262.9,152.4l-3.9,2.4h0c0-.1,2.6-6.6,2.6-6.6.5-2.2,1-4.5,1.5-6.7.5,2.2,1,4.5,1.5,6.7l2.6,6.4h0c0,.1-4-2.3-4-2.3Z"/>
    <line class="cls-1" x1="273.6" y1="221.9" x2="273.6" y2="150.5"/>
    <path class="cls-13" d="M273.6,152.4l-3.9,2.4h0c0-.1,2.6-6.6,2.6-6.6.5-2.2,1-4.5,1.5-6.7.5,2.2,1,4.5,1.5,6.7l2.6,6.4h0c0,.1-4-2.3-4-2.3Z"/>
  </g>
  <g id="freepik--Clouds--inject-369">
    <path class="cls-4" d="M174.1,56.1s-1.8-8.5-8.2-10.6-7.9,2.2-9.7,4.6-4.6-1.2-8.5,0-2.4,4.6-4.9,5.8-6.7-1.5-9.4.6-3.3,4-3.3,4h57.8s-9.1-8.5-13.7-4.3Z"/>
    <path class="cls-4" d="M277.8,100.3s-1.8-8.5-8.2-10.6-7.9,2.1-9.7,4.6-4.6-1.2-8.5,0-2.4,4.6-4.9,5.8-6.7-1.5-9.4.6-3.3,4-3.3,4h57.8s-9.1-8.5-13.7-4.3Z"/>
    <path class="cls-4" d="M90.4,90.1s-1.2-5.5-5.3-6.9-5.1,1.4-6.3,3-3-.8-5.5,0-1.6,3-3.2,3.8-4.3-1-6.1.4-2.2,2.6-2.2,2.6h37.5s-5.9-5.5-8.9-2.8Z"/>
  </g>
  <g id="freepik--Character--inject-369">
    <path class="cls-4" d="M65.2,200.5s-2.1.6-3.5.5-2.6-.2-2.8,1,0,2.4-.3,3.1-1.2,1.7-1,3.1.6,4.6,1.5,4.1,1.9-4.4,2.4-5.2,1.7-2.7,2.6-3.1c.6-.2,1.2-.3,1.8-.3l-.7-3.2Z"/>
    <path class="cls-9" d="M59.6,207.4c.5-1.2.8-2.5.9-3.8.1-.9.4-1.8.8-2.7-1.2-.1-2.3,0-2.5,1-.3,1.2,0,2.4-.3,3.1s-1.2,1.7-1,3.1.6,4.6,1.5,4.1c.6-.3,1.4-2.7,1.9-4.1l-1.4-.8Z"/>
    <path class="cls-9" d="M88.4,170.1c0-7.3-2.7-9.3-2.7-9.3-12.8,1.6-15.3-2.2-15.3-2.2l-1.6,1.2c-2.7,2.8-3.9,6.9-4.4,11.4s5.1,19.8,5.1,19.8c0,0-2.4,4.6-4.2,8.1s-.9,11.5-1.6,13.6-2.3,3.4-1.9,5.2.3,3.5,1.6,3.7,3.4.6,3.9,0-.6-1.4-.9-2.9-.6-3.9-.6-3.9l7.1-13.7s14.1-7.2,14.4-8,1-15.7.9-23ZM78.2,190.8l-1.3-17.7h1.1c0,0,2.2,16.7,2.2,16.7l-2,1Z"/>
    <path class="cls-4" d="M64.2,204.4c-.2,3.4,0,7-.4,8.4-.6,2.1-2.3,3.4-1.9,5.2s.3,3.5,1.6,3.7,3.4.6,3.9,0-.6-1.4-.9-2.9-.6-3.9-.6-3.9l4.4-8.5c-3.3.9-5.2-.8-6.1-1.9Z"/>
    <path class="cls-9" d="M67.5,221.6c.5-.5-.6-1.4-.9-2.9l-2.9.2s-.6-1.9-1-3.7c-.5.9-.9,1.7-.7,2.7.4,1.8.3,3.5,1.6,3.7s3.4.6,3.9,0Z"/>
    <line class="cls-2" x1="78" y1="191.7" x2="74" y2="199.6"/>
    <path class="cls-4" d="M90.2,150.6s0,1.9-.9,3.1-3,2.2-3,2.2l-.6,4.8s-1.5,1.1-4.9,1.3-6.9-1.5-6.9-1.5l2.3-19.6s4.4-1.6,7.1-2.3,6.4.2,6.4.2c0,0,.5,7.5.5,11.8Z"/>
    <path class="cls-7" d="M89.7,138.8s-3.7-.9-6.4-.2-7.1,2.3-7.1,2.3l-.4,3.2c2.6,1.7,5.7,2.5,8.9,2.4,1.9-.1,3.8-.7,5.4-1.7-.2-3.2-.4-6-.4-6Z"/>
    <path class="cls-5" d="M88.6,138.7s10.6-1.1,12.8-1.4,4.9-.8,4.9-.8l4.6,2.1c.2.9,0,1.8-.4,2.6-.8,1.2-18.1,6.3-18.1,6.3,0,0-.5,19-.5,20.3s0,1.5-.7,2.1-5.2,2.6-5.2,2.6c0,0,2.2-8.5,2.8-12.3s1-16.3.7-18.5-.8-3-.8-3Z"/>
    <polyline class="cls-7" points="93.1 140.7 92.3 147.5 94.9 141.1"/>
    <path class="cls-5" d="M89.4,141.7c.3,2.2-.1,14.7-.7,18.5,0,.5-.2,1.1-.3,1.7h0c1.6-4.1,2.5-8.4,2.7-12.8.2-3.6,0-7.2-.5-10.7l-2.1.2s.5.8.8,3Z"/>
    <path class="cls-4" d="M81.4,141.5l1-4.1s-.8-.4-1.8-1-3-2.7-2-6.5,3.4-4.3,3.4-4.3c0,0,3.4-1.7,6.6-.6s3.6,2.9,3.7,3.4-.4,1.6-.1,1.8,2.6,1.2,2.5,1.7c-.3.6-.6,1.1-1,1.5,0,0-.2,3.7-.7,4.2s-3.1.6-3.1.6l-2.2,4.6"/>
    <path class="cls-9" d="M87.2,125.8c.9-.3,1.8-.3,2.6-.2-.4-.2-.9-.4-1.4-.6-3.2-1-6.6.6-6.6.6,0,0-2.4.6-3.4,4.3-1,3.8,1,5.9,2,6.5.6.3,1.1.6,1.4.8.4-.9,1-2.3,1.5-3.5.3-.9,1.5.2,2-.7.1-.2,0-1.5,0-1.7.6-1.2,1-2.2.9-2.9-.2-1.3-1.5-1.8.8-2.5Z"/>
    <path class="cls-4" d="M84.7,134s-1.4-2-2.5-1-.1,3.1,2,2.9"/>
    <path class="cls-9" d="M79.7,127.2s-2-2-3.4-2.4-3.3-.5-4.4,1.9-.7,4.3.7,5.3,2.6,1.1,3.8.4c.9-.6,1.7-1.5,2.2-2.5.3-.6,1.2-2.7,1.2-2.7Z"/>
    <path class="cls-11" d="M90.9,130.2c0,.4-.2.8-.4.8s-.4-.3-.4-.8.2-.8.4-.8.4.3.4.8Z"/>
    <path class="cls-7" d="M89.5,128.7s1.2-.4,1.8,0"/>
    <path class="cls-7" d="M91.7,134.4c.4,0,.8,0,1.1.2"/>
    <polygon class="cls-9" points="89.7 138.2 87.5 137.8 88.7 140.1 89.7 138.2"/>
    <path class="cls-5" d="M82.1,138.6s-12.1,3.6-12.4,4.3-2.4,14.6-2.4,15.4-3.3,5.3-2.8,6.8,3.9,5.6,5.9,6.8c1,.7,2.1,1.3,3.3,1.8,0,0,3.2-9.9,5-16.1,1.9-6.2,3.4-18.9,3.4-18.9Z"/>
    <path class="cls-5" d="M82.1,138.6s-1.9.6-4.2,1.3c-.2,3.9-.8,15.1-.8,17.8,0,1.4,0,3,0,4.5.5-1.6,1-3.2,1.4-4.7,1.9-6.3,3.5-18.9,3.5-18.9Z"/>
    <path class="cls-4" d="M106,140.6c-1.6-2.3-1.9-7-3.2-9.1s-2.8-2.5-2.8-2.5l-.7-.2c-.5.1-.9.1-1.4,0-.6-.2-2.2-.7-2.2-.7,0,0-1.1.2-1.6-.1s.8-.4.2-.5-3-.3-3.5-.8,2.1-.6,2.1-.6c.9-.3,1.8-.4,2.7-.4,1.1.1,4.4.6,5,.7s2.5,1.8,2.5,1.8c0,0,4.9,5.1,6.1,6.9s1.7,3.1,1.8,3.6c0,.3,0,.5,0,.8"/>
    <path class="cls-5" d="M106.4,141.6c-.9-.3-2.2-3.5-2.8-5s-2.8-5.7-2.8-5.7l3.1-2.5,5.9,7.3c1.5,1.5,1.7,3.7.6,5.4"/>
    <path class="cls-7" d="M93.9,125.9s-.7.5.9.7c.7.1,1.4.1,2.1.1.6.7,1.5,1.2,2.4,1.4"/>
    <rect class="cls-15" x="55.9" y="176.3" width="3.5" height="1" transform="translate(-127.9 189) rotate(-75.7)"/>
    <rect class="cls-14" x="51.1" y="173.9" width="3.2" height="1" transform="translate(-129.5 170.1) rotate(-71.8)"/>
    <path class="cls-9" d="M58.2,175.4c0,0-.2,0-.3,0l-5-2.2c-.3-.1-.5-.5-.3-.9.1-.3.5-.5.9-.3l5,2.2c.3.1.5.5.4.9-.1.3-.4.4-.6.4h0Z"/>
    <polygon class="cls-6" points="47.4 172.3 62.3 179.8 60.4 197.4 58 197.8 41.8 189 47.4 172.3"/>
    <polygon class="cls-6" points="62.3 179.8 58 197.8 60.4 197.4 62.3 179.8"/>
    <path class="cls-7" d="M47.4,172.3s2.3,12.6,5.2,12.5c2.3-.1,9.7-5,9.7-5"/>
    <polygon class="cls-4" points="51.4 183 50.5 185.9 51.8 186.6 52.7 183.7 51.4 183"/>
    <path class="cls-4" d="M58.5,171l-1,5.4s-.6.5-1.1.4-.6-.9-.6-.9c0,0-2.5-.6-2.6-1.8s2.1-4.5,2.1-4.5l3.2,1.5Z"/>
    <path class="cls-5" d="M69.7,142.9l-10.4,12.6-4.3,14,3.7,1.6,5.9-12,8.6-7.5c.5-1,.6-2.1.2-3.2"/>
  </g>
  <g id="freepik--Trophy--inject-369">
    <rect class="cls-5" x="288.1" y="56.5" width="3.8" height="23.6"/>
    <path class="cls-5" d="M282.2,56.2c-4.6,0-8.3-1.4-10.8-4.3-4.6-5.1-3.8-12.9-3.8-13.3h0c0-.7.7-1.3,1.4-1.3h12.5v2.8h-9.7c-.8,0-1.4.6-1.4,1.4,0,0,0,0,0,0,.2,2.4.8,5.8,3.1,8.3,2,2.2,4.9,3.3,8.7,3.3v2.8Z"/>
    <path class="cls-5" d="M298,56.2c4.6,0,8.3-1.4,10.8-4.3,4.6-5.1,3.8-12.9,3.8-13.3h0c0-.7-.7-1.3-1.4-1.3h-12.5v2.8h9.7c.8,0,1.4.6,1.4,1.4,0,0,0,0,0,0-.2,2.4-.8,5.8-3.1,8.3-2,2.2-4.9,3.3-8.7,3.3v2.8Z"/>
    <path class="cls-5" d="M279.4,34.6h21.2v16.2c0,5.8-4.7,10.6-10.6,10.6h0c-5.8,0-10.6-4.7-10.6-10.6h0v-16.2h0Z"/>
    <path class="cls-11" d="M298.5,34.6v15.7c0,5.4-4.4,9.9-9.9,10.2h.6c5.8,0,10.6-4.6,10.6-10.2v-15.7h-1.2Z"/>
    <path class="cls-13" d="M281.5,34.6v15.6c0,5.4,3.9,9.8,8.8,10.1h-.5c-5.2,0-9.3-4.5-9.3-10.2v-15.6h1.1Z"/>
    <rect class="cls-5" x="279.4" y="34.6" width="21.2" height="4.6"/>
    <rect class="cls-5" x="287.1" y="66.5" width="6.1" height="6.3" rx="1" ry="1"/>
    <path class="cls-5" d="M302.3,80.4c-.5-1.5-1.9-2.4-3.5-2.5h-17.3c-1.6,0-3,1-3.5,2.5h24.3Z"/>
    <path class="cls-5" d="M283.1,36.9c0-.5-.4-.9-.9-.9-.5,0-.9.4-.9.9,0,.5.4.9.9.9,0,0,0,0,0,0,.5,0,.9-.4.9-.9h0Z"/>
    <path class="cls-5" d="M287.1,36.9c0-.5-.4-.9-.9-.9-.5,0-.9.4-.9.9,0,.5.4.9.9.9,0,0,0,0,0,0,.5,0,.9-.4.9-.9Z"/>
    <path class="cls-5" d="M291,36.9c0-.5-.4-.9-.9-.9s-.9.4-.9.9.4.9.9.9.9-.4.9-.9h0Z"/>
    <path class="cls-5" d="M295,36.9c0-.5-.4-.9-.9-.9s-.9.4-.9.9.4.9.9.9.9-.4.9-.9h0Z"/>
    <path class="cls-5" d="M298.9,36.9c0-.5-.4-.9-.9-.9-.5,0-.9.4-.9.9,0,.5.4.9.9.9,0,0,0,0,0,0,.5,0,.9-.4.9-.9h0Z"/>
    <circle class="cls-16" cx="290" cy="48.5" r="6.8"/>
    <path class="cls-13" d="M291.3,52.1h-1.4v-5.2c-.5.5-1.1.8-1.8,1.1v-1.3c.4-.2.9-.4,1.2-.7.4-.3.7-.7.9-1.2h1.1v7.3Z"/>
    <line class="cls-7" x1="290.3" y1="22" x2="290.3" y2="30.2"/>
    <line class="cls-7" x1="255" y1="47" x2="263.2" y2="47"/>
    <line class="cls-7" x1="273.1" y1="63.5" x2="274.3" y2="62.2"/>
    <line class="cls-7" x1="268.5" y1="68" x2="271.8" y2="64.7"/>
    <line class="cls-7" x1="311.9" y1="65.9" x2="308.2" y2="62.2"/>
    <line class="cls-7" x1="314" y1="68" x2="313" y2="67"/>
    <line class="cls-7" x1="273.2" y1="32.4" x2="274.3" y2="33.5"/>
    <line class="cls-7" x1="268.5" y1="27.7" x2="272.1" y2="31.3"/>
    <line class="cls-7" x1="314" y1="27.7" x2="308.2" y2="33.5"/>
    <line class="cls-7" x1="322.9" y1="47" x2="324.5" y2="47"/>
    <line class="cls-7" x1="316.3" y1="47" x2="321.3" y2="47"/>
  </g>
</svg>